<?xml version="1.0" encoding="UTF-8"?>
<svg xmlns="http://www.w3.org/2000/svg" xmlns:xlink="http://www.w3.org/1999/xlink" width="130px" height="130px" viewBox="0 0 130 130" version="1.1">
<g id="surface1">
<path style=" stroke:none;fill-rule:nonzero;fill:rgb(84.705883%,65.490198%,56.470591%);fill-opacity:1;" d="M 0 0 C 42.898438 0 85.800781 0 130 0 C 130 42.898438 130 85.800781 130 130 C 87.101562 130 44.199219 130 0 130 C 0 87.101562 0 44.199219 0 0 Z M 0 0 "/>
<path style=" stroke:none;fill-rule:nonzero;fill:rgb(93.333334%,90.196079%,86.274511%);fill-opacity:1;" d="M 64.738281 14.796875 C 64.9375 14.796875 65.136719 14.796875 65.335938 14.796875 C 67.140625 14.796875 68.929688 14.816406 70.722656 15.046875 C 70.949219 15.074219 71.171875 15.101562 71.398438 15.125 C 72.992188 15.300781 74.585938 15.628906 76.152344 15.96875 C 76.234375 15.988281 76.316406 16.003906 76.398438 16.023438 C 76.9375 16.144531 77.46875 16.289062 78 16.445312 C 78.097656 16.472656 78.199219 16.5 78.296875 16.527344 C 80.960938 17.253906 83.558594 18.199219 86.058594 19.371094 C 86.128906 19.402344 86.199219 19.433594 86.269531 19.46875 C 87.960938 20.257812 89.601562 21.125 91.195312 22.101562 C 91.253906 22.136719 91.308594 22.171875 91.367188 22.207031 C 92.601562 22.964844 93.792969 23.789062 94.953125 24.65625 C 95.089844 24.761719 95.230469 24.867188 95.375 24.96875 C 95.859375 25.328125 96.328125 25.699219 96.785156 26.089844 C 96.96875 26.25 97.160156 26.40625 97.351562 26.5625 C 97.640625 26.796875 97.917969 27.042969 98.195312 27.292969 C 98.324219 27.410156 98.453125 27.523438 98.585938 27.636719 C 99.324219 28.285156 100.027344 28.972656 100.722656 29.667969 C 100.847656 29.796875 100.976562 29.921875 101.105469 30.050781 C 101.5 30.445312 101.882812 30.839844 102.246094 31.265625 C 102.351562 31.378906 102.457031 31.496094 102.5625 31.609375 C 102.828125 31.898438 103.078125 32.199219 103.324219 32.503906 C 103.46875 32.679688 103.617188 32.855469 103.765625 33.027344 C 104.164062 33.488281 104.546875 33.960938 104.910156 34.449219 C 104.945312 34.496094 104.976562 34.539062 105.011719 34.585938 C 106.585938 36.695312 108.019531 38.890625 109.265625 41.210938 C 109.292969 41.265625 109.324219 41.316406 109.351562 41.375 C 110.921875 44.308594 112.21875 47.375 113.164062 50.570312 C 113.191406 50.660156 113.191406 50.660156 113.21875 50.753906 C 113.550781 51.875 113.820312 53.007812 114.074219 54.144531 C 114.089844 54.214844 114.105469 54.28125 114.121094 54.351562 C 114.789062 57.277344 115.191406 60.308594 115.1875 63.308594 C 115.1875 63.441406 115.1875 63.570312 115.1875 63.699219 C 115.1875 63.96875 115.1875 64.242188 115.1875 64.511719 C 115.1875 64.855469 115.1875 65.203125 115.1875 65.546875 C 115.1875 65.8125 115.1875 66.082031 115.1875 66.351562 C 115.1875 66.476562 115.1875 66.605469 115.1875 66.730469 C 115.1875 67.335938 115.183594 67.9375 115.152344 68.542969 C 115.148438 68.589844 115.144531 68.632812 115.144531 68.679688 C 115.128906 68.910156 115.101562 69.128906 115.050781 69.355469 C 115.039062 69.453125 115.03125 69.550781 115.023438 69.648438 C 114.949219 70.664062 114.816406 71.664062 114.660156 72.671875 C 114.644531 72.761719 114.632812 72.855469 114.617188 72.949219 C 114.417969 74.234375 114.175781 75.496094 113.863281 76.757812 C 113.808594 76.984375 113.757812 77.214844 113.703125 77.445312 C 113.609375 77.863281 113.5 78.273438 113.367188 78.679688 C 113.304688 78.878906 113.246094 79.078125 113.1875 79.273438 C 112.992188 79.953125 112.773438 80.621094 112.546875 81.285156 C 112.519531 81.371094 112.519531 81.371094 112.488281 81.460938 C 112.105469 82.578125 111.679688 83.675781 111.214844 84.761719 C 111.1875 84.820312 111.164062 84.882812 111.136719 84.945312 C 110.972656 85.320312 110.804688 85.691406 110.628906 86.058594 C 110.597656 86.128906 110.566406 86.195312 110.535156 86.265625 C 109.082031 89.351562 107.363281 92.308594 105.300781 95.03125 C 105.265625 95.078125 105.230469 95.125 105.191406 95.171875 C 104.195312 96.480469 103.148438 97.746094 102.023438 98.945312 C 101.949219 99.027344 101.875 99.109375 101.804688 99.191406 C 101.359375 99.699219 100.882812 100.171875 100.402344 100.652344 C 100.257812 100.792969 100.113281 100.941406 99.96875 101.085938 C 99.875 101.175781 99.78125 101.269531 99.6875 101.363281 C 99.648438 101.40625 99.605469 101.449219 99.5625 101.492188 C 99.308594 101.742188 99.050781 101.980469 98.785156 102.210938 C 98.628906 102.347656 98.476562 102.488281 98.324219 102.625 C 98.035156 102.894531 97.734375 103.144531 97.425781 103.394531 C 97.261719 103.527344 97.09375 103.667969 96.933594 103.808594 C 96.523438 104.15625 96.105469 104.492188 95.675781 104.816406 C 95.535156 104.921875 95.398438 105.027344 95.261719 105.132812 C 90.777344 108.535156 85.738281 111.105469 80.394531 112.84375 C 80.3125 112.871094 80.3125 112.871094 80.230469 112.894531 C 79.582031 113.105469 78.925781 113.300781 78.265625 113.480469 C 78.03125 113.546875 77.800781 113.613281 77.566406 113.679688 C 76.933594 113.867188 76.289062 113.996094 75.640625 114.121094 C 75.351562 114.175781 75.066406 114.234375 74.78125 114.296875 C 73.835938 114.507812 72.886719 114.667969 71.925781 114.800781 C 71.84375 114.8125 71.84375 114.8125 71.761719 114.824219 C 69.640625 115.128906 67.519531 115.210938 65.378906 115.207031 C 65.058594 115.203125 64.738281 115.203125 64.417969 115.207031 C 62.277344 115.210938 60.164062 115.097656 58.046875 114.789062 C 57.949219 114.777344 57.949219 114.777344 57.855469 114.761719 C 56.125 114.507812 54.421875 114.160156 52.726562 113.734375 C 52.542969 113.691406 52.363281 113.648438 52.179688 113.605469 C 47.910156 112.59375 43.691406 110.761719 39.910156 108.550781 C 39.847656 108.511719 39.785156 108.476562 39.71875 108.4375 C 38.144531 107.523438 36.625 106.515625 35.164062 105.429688 C 35.09375 105.378906 35.023438 105.324219 34.953125 105.273438 C 34.191406 104.707031 33.453125 104.121094 32.734375 103.503906 C 32.628906 103.414062 32.527344 103.328125 32.421875 103.242188 C 32.003906 102.890625 31.597656 102.53125 31.203125 102.160156 C 31.015625 101.984375 30.828125 101.8125 30.632812 101.644531 C 30.363281 101.410156 30.105469 101.160156 29.851562 100.90625 C 29.804688 100.859375 29.757812 100.8125 29.710938 100.765625 C 29.617188 100.671875 29.519531 100.574219 29.425781 100.476562 C 29.277344 100.332031 29.132812 100.1875 28.988281 100.039062 C 28.894531 99.945312 28.800781 99.851562 28.707031 99.757812 C 28.664062 99.714844 28.621094 99.671875 28.574219 99.628906 C 28.324219 99.378906 28.085938 99.121094 27.855469 98.851562 C 27.710938 98.683594 27.558594 98.519531 27.40625 98.355469 C 27.125 98.054688 26.863281 97.742188 26.605469 97.421875 C 26.472656 97.261719 26.339844 97.101562 26.203125 96.945312 C 25.78125 96.457031 25.390625 95.949219 25.003906 95.433594 C 24.902344 95.296875 24.796875 95.164062 24.695312 95.027344 C 23.621094 93.609375 22.613281 92.105469 21.730469 90.5625 C 21.640625 90.40625 21.550781 90.253906 21.460938 90.101562 C 20.898438 89.140625 20.390625 88.15625 19.890625 87.164062 C 19.855469 87.097656 19.820312 87.027344 19.785156 86.957031 C 18.917969 85.226562 18.210938 83.421875 17.5625 81.601562 C 17.488281 81.390625 17.414062 81.183594 17.339844 80.976562 C 17.0625 80.199219 16.824219 79.417969 16.617188 78.621094 C 16.578125 78.464844 16.535156 78.3125 16.496094 78.15625 C 16.085938 76.644531 15.722656 75.125 15.46875 73.578125 C 15.460938 73.535156 15.453125 73.488281 15.445312 73.4375 C 15.320312 72.65625 15.203125 71.871094 15.101562 71.085938 C 15.089844 70.976562 15.074219 70.867188 15.058594 70.753906 C 14.804688 68.878906 14.796875 67.003906 14.796875 65.113281 C 14.796875 65.054688 14.796875 64.992188 14.796875 64.929688 C 14.792969 62.769531 14.855469 60.636719 15.171875 58.496094 C 15.210938 58.222656 15.25 57.949219 15.285156 57.675781 C 15.445312 56.484375 15.652344 55.316406 15.925781 54.144531 C 15.9375 54.082031 15.953125 54.019531 15.96875 53.957031 C 16.046875 53.617188 16.128906 53.277344 16.210938 52.9375 C 16.25 52.78125 16.289062 52.621094 16.328125 52.460938 C 17.460938 47.777344 19.417969 43.25 21.90625 39.128906 C 21.941406 39.070312 21.976562 39.011719 22.011719 38.953125 C 23.304688 36.804688 24.785156 34.738281 26.414062 32.832031 C 26.570312 32.648438 26.722656 32.460938 26.875 32.273438 C 27.179688 31.894531 27.511719 31.542969 27.84375 31.1875 C 27.917969 31.105469 27.992188 31.023438 28.066406 30.9375 C 28.519531 30.421875 29.007812 29.9375 29.496094 29.453125 C 29.644531 29.300781 29.792969 29.152344 29.941406 29.003906 C 30.039062 28.90625 30.136719 28.8125 30.230469 28.714844 C 30.273438 28.671875 30.320312 28.628906 30.363281 28.582031 C 30.617188 28.328125 30.878906 28.089844 31.148438 27.855469 C 31.316406 27.707031 31.480469 27.558594 31.644531 27.40625 C 31.945312 27.125 32.253906 26.863281 32.574219 26.605469 C 32.742188 26.46875 32.90625 26.332031 33.066406 26.191406 C 33.476562 25.84375 33.898438 25.507812 34.328125 25.183594 C 34.457031 25.082031 34.585938 24.984375 34.71875 24.882812 C 36.164062 23.765625 37.71875 22.726562 39.296875 21.804688 C 39.339844 21.777344 39.386719 21.75 39.429688 21.726562 C 43.195312 19.542969 47.15625 17.765625 51.363281 16.625 C 51.523438 16.582031 51.6875 16.535156 51.847656 16.488281 C 52.691406 16.246094 53.546875 16.046875 54.40625 15.859375 C 54.46875 15.847656 54.535156 15.832031 54.597656 15.816406 C 57.953125 15.09375 61.3125 14.792969 64.738281 14.796875 Z M 64.738281 14.796875 "/>
<path style=" stroke:none;fill-rule:nonzero;fill:rgb(93.333334%,90.196079%,86.274511%);fill-opacity:1;" d="M 64.738281 14.796875 C 64.9375 14.796875 65.136719 14.796875 65.335938 14.796875 C 67.140625 14.796875 68.929688 14.816406 70.722656 15.046875 C 70.949219 15.074219 71.171875 15.101562 71.398438 15.125 C 72.992188 15.300781 74.585938 15.628906 76.152344 15.96875 C 76.234375 15.988281 76.316406 16.003906 76.398438 16.023438 C 76.9375 16.144531 77.46875 16.289062 78 16.445312 C 78.097656 16.472656 78.199219 16.5 78.296875 16.527344 C 80.960938 17.253906 83.558594 18.199219 86.058594 19.371094 C 86.128906 19.402344 86.199219 19.433594 86.269531 19.46875 C 87.960938 20.257812 89.601562 21.125 91.195312 22.101562 C 91.253906 22.136719 91.308594 22.171875 91.367188 22.207031 C 92.601562 22.964844 93.792969 23.789062 94.953125 24.65625 C 95.089844 24.761719 95.230469 24.867188 95.375 24.96875 C 95.859375 25.328125 96.328125 25.699219 96.785156 26.089844 C 96.96875 26.25 97.160156 26.40625 97.351562 26.5625 C 97.640625 26.796875 97.917969 27.042969 98.195312 27.292969 C 98.324219 27.410156 98.453125 27.523438 98.585938 27.636719 C 99.324219 28.285156 100.027344 28.972656 100.722656 29.667969 C 100.847656 29.796875 100.976562 29.921875 101.105469 30.050781 C 101.5 30.445312 101.882812 30.839844 102.246094 31.265625 C 102.351562 31.378906 102.457031 31.496094 102.5625 31.609375 C 102.828125 31.898438 103.078125 32.199219 103.324219 32.503906 C 103.46875 32.679688 103.617188 32.855469 103.765625 33.027344 C 104.164062 33.488281 104.546875 33.960938 104.910156 34.449219 C 104.945312 34.496094 104.976562 34.539062 105.011719 34.585938 C 106.585938 36.695312 108.019531 38.890625 109.265625 41.210938 C 109.292969 41.265625 109.324219 41.316406 109.351562 41.375 C 110.921875 44.308594 112.21875 47.375 113.164062 50.570312 C 113.191406 50.660156 113.191406 50.660156 113.21875 50.753906 C 113.550781 51.875 113.820312 53.007812 114.074219 54.144531 C 114.089844 54.214844 114.105469 54.28125 114.121094 54.351562 C 114.789062 57.277344 115.191406 60.308594 115.1875 63.308594 C 115.1875 63.441406 115.1875 63.570312 115.1875 63.699219 C 115.1875 63.96875 115.1875 64.242188 115.1875 64.511719 C 115.1875 64.855469 115.1875 65.203125 115.1875 65.546875 C 115.1875 65.8125 115.1875 66.082031 115.1875 66.351562 C 115.1875 66.476562 115.1875 66.605469 115.1875 66.730469 C 115.1875 67.335938 115.183594 67.9375 115.152344 68.542969 C 115.148438 68.589844 115.144531 68.632812 115.144531 68.679688 C 115.128906 68.910156 115.101562 69.128906 115.050781 69.355469 C 115.039062 69.453125 115.03125 69.550781 115.023438 69.648438 C 114.949219 70.664062 114.816406 71.664062 114.660156 72.671875 C 114.644531 72.761719 114.632812 72.855469 114.617188 72.949219 C 114.417969 74.234375 114.175781 75.496094 113.863281 76.757812 C 113.808594 76.984375 113.757812 77.214844 113.703125 77.445312 C 113.609375 77.863281 113.5 78.273438 113.367188 78.679688 C 113.304688 78.878906 113.246094 79.078125 113.1875 79.273438 C 112.992188 79.953125 112.773438 80.621094 112.546875 81.285156 C 112.519531 81.371094 112.519531 81.371094 112.488281 81.460938 C 112.105469 82.578125 111.679688 83.675781 111.214844 84.761719 C 111.1875 84.820312 111.164062 84.882812 111.136719 84.945312 C 110.972656 85.320312 110.804688 85.691406 110.628906 86.058594 C 110.597656 86.128906 110.566406 86.195312 110.535156 86.265625 C 109.082031 89.351562 107.363281 92.308594 105.300781 95.03125 C 105.265625 95.078125 105.230469 95.125 105.191406 95.171875 C 104.195312 96.480469 103.148438 97.746094 102.023438 98.945312 C 101.949219 99.027344 101.875 99.109375 101.804688 99.191406 C 101.359375 99.699219 100.882812 100.171875 100.402344 100.652344 C 100.257812 100.792969 100.113281 100.941406 99.96875 101.085938 C 99.875 101.175781 99.78125 101.269531 99.6875 101.363281 C 99.648438 101.40625 99.605469 101.449219 99.5625 101.492188 C 99.308594 101.742188 99.050781 101.980469 98.785156 102.210938 C 98.628906 102.347656 98.476562 102.488281 98.324219 102.625 C 98.035156 102.894531 97.734375 103.144531 97.425781 103.394531 C 97.261719 103.527344 97.09375 103.667969 96.933594 103.808594 C 96.523438 104.15625 96.105469 104.492188 95.675781 104.816406 C 95.535156 104.921875 95.398438 105.027344 95.261719 105.132812 C 90.777344 108.535156 85.738281 111.105469 80.394531 112.84375 C 80.3125 112.871094 80.3125 112.871094 80.230469 112.894531 C 79.582031 113.105469 78.925781 113.300781 78.265625 113.480469 C 78.03125 113.546875 77.800781 113.613281 77.566406 113.679688 C 76.933594 113.867188 76.289062 113.996094 75.640625 114.121094 C 75.351562 114.175781 75.066406 114.234375 74.78125 114.296875 C 73.835938 114.507812 72.886719 114.667969 71.925781 114.800781 C 71.84375 114.8125 71.84375 114.8125 71.761719 114.824219 C 69.640625 115.128906 67.519531 115.210938 65.378906 115.207031 C 65.058594 115.203125 64.738281 115.203125 64.417969 115.207031 C 62.277344 115.210938 60.164062 115.097656 58.046875 114.789062 C 57.949219 114.777344 57.949219 114.777344 57.855469 114.761719 C 56.125 114.507812 54.421875 114.160156 52.726562 113.734375 C 52.542969 113.691406 52.363281 113.648438 52.179688 113.605469 C 47.910156 112.59375 43.691406 110.761719 39.910156 108.550781 C 39.847656 108.511719 39.785156 108.476562 39.71875 108.4375 C 38.144531 107.523438 36.625 106.515625 35.164062 105.429688 C 35.09375 105.378906 35.023438 105.324219 34.953125 105.273438 C 34.191406 104.707031 33.453125 104.121094 32.734375 103.503906 C 32.628906 103.414062 32.527344 103.328125 32.421875 103.242188 C 32.003906 102.890625 31.597656 102.53125 31.203125 102.160156 C 31.015625 101.984375 30.828125 101.8125 30.632812 101.644531 C 30.363281 101.410156 30.105469 101.160156 29.851562 100.90625 C 29.804688 100.859375 29.757812 100.8125 29.710938 100.765625 C 29.617188 100.671875 29.519531 100.574219 29.425781 100.476562 C 29.277344 100.332031 29.132812 100.1875 28.988281 100.039062 C 28.894531 99.945312 28.800781 99.851562 28.707031 99.757812 C 28.664062 99.714844 28.621094 99.671875 28.574219 99.628906 C 28.324219 99.378906 28.085938 99.121094 27.855469 98.851562 C 27.710938 98.683594 27.558594 98.519531 27.40625 98.355469 C 27.125 98.054688 26.863281 97.742188 26.605469 97.421875 C 26.472656 97.261719 26.339844 97.101562 26.203125 96.945312 C 25.78125 96.457031 25.390625 95.949219 25.003906 95.433594 C 24.902344 95.296875 24.796875 95.164062 24.695312 95.027344 C 23.621094 93.609375 22.613281 92.105469 21.730469 90.5625 C 21.640625 90.40625 21.550781 90.253906 21.460938 90.101562 C 20.898438 89.140625 20.390625 88.15625 19.890625 87.164062 C 19.855469 87.097656 19.820312 87.027344 19.785156 86.957031 C 18.917969 85.226562 18.210938 83.421875 17.5625 81.601562 C 17.488281 81.390625 17.414062 81.183594 17.339844 80.976562 C 17.0625 80.199219 16.824219 79.417969 16.617188 78.621094 C 16.578125 78.464844 16.535156 78.3125 16.496094 78.15625 C 16.085938 76.644531 15.722656 75.125 15.46875 73.578125 C 15.460938 73.535156 15.453125 73.488281 15.445312 73.4375 C 15.320312 72.65625 15.203125 71.871094 15.101562 71.085938 C 15.089844 70.976562 15.074219 70.867188 15.058594 70.753906 C 14.804688 68.878906 14.796875 67.003906 14.796875 65.113281 C 14.796875 65.054688 14.796875 64.992188 14.796875 64.929688 C 14.792969 62.769531 14.855469 60.636719 15.171875 58.496094 C 15.210938 58.222656 15.25 57.949219 15.285156 57.675781 C 15.445312 56.484375 15.652344 55.316406 15.925781 54.144531 C 15.9375 54.082031 15.953125 54.019531 15.96875 53.957031 C 16.046875 53.617188 16.128906 53.277344 16.210938 52.9375 C 16.25 52.78125 16.289062 52.621094 16.328125 52.460938 C 17.460938 47.777344 19.417969 43.25 21.90625 39.128906 C 21.941406 39.070312 21.976562 39.011719 22.011719 38.953125 C 23.304688 36.804688 24.785156 34.738281 26.414062 32.832031 C 26.570312 32.648438 26.722656 32.460938 26.875 32.273438 C 27.179688 31.894531 27.511719 31.542969 27.84375 31.1875 C 27.917969 31.105469 27.992188 31.023438 28.066406 30.9375 C 28.519531 30.421875 29.007812 29.9375 29.496094 29.453125 C 29.644531 29.300781 29.792969 29.152344 29.941406 29.003906 C 30.039062 28.90625 30.136719 28.8125 30.230469 28.714844 C 30.273438 28.671875 30.320312 28.628906 30.363281 28.582031 C 30.617188 28.328125 30.878906 28.089844 31.148438 27.855469 C 31.316406 27.707031 31.480469 27.558594 31.644531 27.40625 C 31.945312 27.125 32.253906 26.863281 32.574219 26.605469 C 32.742188 26.46875 32.90625 26.332031 33.066406 26.191406 C 33.476562 25.84375 33.898438 25.507812 34.328125 25.183594 C 34.457031 25.082031 34.585938 24.984375 34.71875 24.882812 C 36.164062 23.765625 37.71875 22.726562 39.296875 21.804688 C 39.339844 21.777344 39.386719 21.75 39.429688 21.726562 C 43.195312 19.542969 47.15625 17.765625 51.363281 16.625 C 51.523438 16.582031 51.6875 16.535156 51.847656 16.488281 C 52.691406 16.246094 53.546875 16.046875 54.40625 15.859375 C 54.46875 15.847656 54.535156 15.832031 54.597656 15.816406 C 57.953125 15.09375 61.3125 14.792969 64.738281 14.796875 Z M 56.421875 20.800781 C 56.355469 20.8125 56.355469 20.8125 56.289062 20.828125 C 53.167969 21.46875 50.109375 22.371094 47.191406 23.660156 C 47.125 23.6875 47.058594 23.71875 46.992188 23.746094 C 45.382812 24.457031 43.8125 25.238281 42.308594 26.148438 C 42.117188 26.261719 41.925781 26.375 41.734375 26.488281 C 40.933594 26.96875 40.15625 27.476562 39.390625 28.015625 C 39.3125 28.070312 39.234375 28.121094 39.160156 28.175781 C 38.210938 28.839844 37.285156 29.542969 36.398438 30.289062 C 36.332031 30.347656 36.265625 30.402344 36.195312 30.457031 C 35.777344 30.808594 35.367188 31.171875 34.964844 31.542969 C 34.824219 31.675781 34.679688 31.800781 34.535156 31.925781 C 34.257812 32.167969 33.996094 32.425781 33.738281 32.683594 C 33.691406 32.730469 33.640625 32.777344 33.59375 32.828125 C 33.496094 32.925781 33.394531 33.027344 33.296875 33.125 C 33.144531 33.277344 32.996094 33.425781 32.84375 33.574219 C 32.75 33.671875 32.652344 33.769531 32.554688 33.867188 C 32.488281 33.933594 32.488281 33.933594 32.421875 34 C 32.164062 34.257812 31.921875 34.519531 31.6875 34.792969 C 31.554688 34.949219 31.414062 35.097656 31.273438 35.25 C 31.011719 35.535156 30.761719 35.832031 30.519531 36.132812 C 30.398438 36.285156 30.273438 36.433594 30.148438 36.582031 C 28.273438 38.820312 26.664062 41.304688 25.285156 43.875 C 25.253906 43.933594 25.21875 43.996094 25.1875 44.058594 C 24.179688 45.921875 23.324219 47.859375 22.621094 49.855469 C 22.605469 49.898438 22.589844 49.945312 22.574219 49.988281 C 21.886719 51.945312 21.3125 53.914062 20.90625 55.945312 C 20.867188 56.152344 20.824219 56.355469 20.78125 56.5625 C 20.523438 57.804688 20.355469 59.058594 20.214844 60.320312 C 20.210938 60.371094 20.203125 60.417969 20.199219 60.46875 C 19.765625 64.375 19.824219 68.585938 20.625 72.441406 C 20.675781 72.695312 20.71875 72.949219 20.757812 73.203125 C 20.890625 74.015625 21.078125 74.808594 21.273438 75.609375 C 21.328125 75.816406 21.375 76.023438 21.417969 76.234375 C 21.550781 76.808594 21.71875 77.367188 21.902344 77.925781 C 21.953125 78.078125 22 78.226562 22.050781 78.378906 C 22.667969 80.296875 23.355469 82.171875 24.222656 83.992188 C 24.3125 84.179688 24.398438 84.363281 24.484375 84.550781 C 24.875 85.390625 25.308594 86.191406 25.773438 86.992188 C 25.890625 87.199219 26.003906 87.410156 26.117188 87.621094 C 26.46875 88.265625 26.863281 88.882812 27.269531 89.496094 C 27.351562 89.613281 27.429688 89.730469 27.507812 89.851562 C 28.152344 90.832031 28.847656 91.769531 29.574219 92.691406 C 29.625 92.753906 29.675781 92.816406 29.726562 92.882812 C 29.847656 93.035156 29.972656 93.1875 30.09375 93.339844 C 30.136719 93.394531 30.183594 93.449219 30.226562 93.503906 C 30.507812 93.847656 30.792969 94.1875 31.082031 94.527344 C 31.113281 94.5625 31.144531 94.597656 31.175781 94.632812 C 31.859375 95.425781 32.59375 96.175781 33.335938 96.914062 C 33.46875 97.046875 33.601562 97.179688 33.734375 97.3125 C 33.820312 97.398438 33.90625 97.484375 33.992188 97.570312 C 34.027344 97.609375 34.066406 97.644531 34.105469 97.6875 C 34.347656 97.925781 34.597656 98.152344 34.855469 98.375 C 35 98.5 35.140625 98.628906 35.28125 98.757812 C 35.558594 99.007812 35.839844 99.246094 36.128906 99.476562 C 36.28125 99.601562 36.433594 99.726562 36.582031 99.851562 C 37.261719 100.417969 37.957031 100.949219 38.675781 101.464844 C 38.742188 101.515625 38.742188 101.515625 38.8125 101.566406 C 40.066406 102.46875 41.367188 103.292969 42.703125 104.066406 C 42.75 104.089844 42.792969 104.117188 42.839844 104.144531 C 46.203125 106.097656 49.859375 107.582031 53.625 108.550781 C 53.703125 108.570312 53.785156 108.589844 53.867188 108.613281 C 55.808594 109.113281 57.757812 109.464844 59.75 109.691406 C 59.917969 109.710938 60.089844 109.730469 60.257812 109.753906 C 60.949219 109.839844 61.640625 109.890625 62.339844 109.921875 C 62.394531 109.925781 62.453125 109.929688 62.511719 109.929688 C 67.761719 110.171875 73.117188 109.679688 78.128906 108.03125 C 78.179688 108.011719 78.230469 107.996094 78.28125 107.980469 C 80.652344 107.199219 82.964844 106.328125 85.1875 105.183594 C 85.308594 105.125 85.425781 105.0625 85.542969 105.003906 C 86.761719 104.386719 86.761719 104.386719 87.941406 103.695312 C 88.101562 103.59375 88.265625 103.492188 88.425781 103.394531 C 90.125 102.351562 91.757812 101.203125 93.292969 99.933594 C 93.457031 99.796875 93.621094 99.664062 93.785156 99.53125 C 94.070312 99.296875 94.347656 99.054688 94.621094 98.808594 C 94.75 98.6875 94.882812 98.570312 95.019531 98.453125 C 95.714844 97.84375 96.378906 97.199219 97.035156 96.542969 C 97.167969 96.410156 97.300781 96.277344 97.433594 96.144531 C 97.523438 96.058594 97.609375 95.972656 97.695312 95.882812 C 97.734375 95.84375 97.773438 95.804688 97.8125 95.765625 C 98.089844 95.488281 98.347656 95.199219 98.605469 94.898438 C 98.667969 94.828125 98.730469 94.753906 98.796875 94.683594 C 99.183594 94.234375 99.554688 93.777344 99.917969 93.3125 C 100.039062 93.15625 100.164062 93 100.289062 92.847656 C 101.058594 91.902344 101.761719 90.90625 102.441406 89.894531 C 102.488281 89.824219 102.488281 89.824219 102.535156 89.753906 C 103.59375 88.175781 104.515625 86.523438 105.363281 84.824219 C 105.398438 84.757812 105.433594 84.691406 105.46875 84.621094 C 106.652344 82.261719 107.613281 79.753906 108.304688 77.210938 C 108.355469 77.015625 108.414062 76.824219 108.46875 76.632812 C 108.78125 75.519531 109.019531 74.390625 109.238281 73.253906 C 109.265625 73.125 109.289062 73 109.316406 72.871094 C 109.445312 72.199219 109.542969 71.527344 109.625 70.851562 C 109.636719 70.765625 109.636719 70.765625 109.648438 70.683594 C 109.761719 69.785156 109.863281 68.890625 109.914062 67.988281 C 109.917969 67.945312 109.921875 67.898438 109.921875 67.851562 C 109.976562 66.929688 109.992188 66.007812 109.992188 65.085938 C 109.992188 65.015625 109.992188 64.945312 109.992188 64.875 C 109.992188 63.65625 109.953125 62.445312 109.851562 61.230469 C 109.839844 61.117188 109.839844 61.117188 109.832031 61.003906 C 109.667969 59.160156 109.414062 57.289062 108.980469 55.488281 C 108.9375 55.304688 108.894531 55.117188 108.855469 54.929688 C 108.140625 51.664062 107.011719 48.511719 105.558594 45.5 C 105.542969 45.460938 105.523438 45.421875 105.503906 45.382812 C 104.976562 44.289062 104.417969 43.21875 103.789062 42.175781 C 103.671875 41.988281 103.558594 41.796875 103.445312 41.605469 C 102.964844 40.800781 102.460938 40.023438 101.921875 39.261719 C 101.886719 39.210938 101.851562 39.164062 101.816406 39.113281 C 101.121094 38.132812 100.394531 37.175781 99.613281 36.265625 C 99.460938 36.089844 99.316406 35.910156 99.171875 35.730469 C 98.84375 35.324219 98.480469 34.945312 98.121094 34.566406 C 97.949219 34.382812 97.777344 34.195312 97.613281 34.007812 C 97.316406 33.671875 97 33.355469 96.683594 33.039062 C 96.632812 32.988281 96.578125 32.933594 96.523438 32.882812 C 96.25 32.605469 95.964844 32.339844 95.667969 32.082031 C 95.488281 31.925781 95.316406 31.761719 95.140625 31.597656 C 94.828125 31.308594 94.511719 31.035156 94.179688 30.769531 C 94.039062 30.65625 93.90625 30.542969 93.773438 30.421875 C 93.1875 29.902344 92.574219 29.433594 91.941406 28.976562 C 91.765625 28.847656 91.589844 28.714844 91.417969 28.585938 C 90.984375 28.257812 90.53125 27.953125 90.078125 27.652344 C 89.941406 27.558594 89.800781 27.46875 89.664062 27.375 C 85.503906 24.601562 80.808594 22.539062 75.949219 21.359375 C 75.769531 21.316406 75.59375 21.269531 75.414062 21.226562 C 74.574219 21.015625 73.730469 20.839844 72.875 20.703125 C 72.65625 20.667969 72.441406 20.628906 72.222656 20.589844 C 71.234375 20.417969 70.246094 20.292969 69.246094 20.199219 C 69.160156 20.191406 69.160156 20.191406 69.074219 20.183594 C 67.679688 20.050781 66.289062 20.007812 64.886719 20.007812 C 64.808594 20.007812 64.726562 20.007812 64.648438 20.007812 C 61.886719 20.011719 59.128906 20.242188 56.421875 20.800781 Z M 56.421875 20.800781 "/>
<path style=" stroke:none;fill-rule:nonzero;fill:rgb(84.705883%,65.490198%,56.470591%);fill-opacity:1;" d="M 68.703125 20.148438 C 68.800781 20.15625 68.894531 20.167969 68.988281 20.175781 C 71.195312 20.367188 73.378906 20.714844 75.53125 21.253906 C 75.632812 21.28125 75.734375 21.304688 75.839844 21.332031 C 76.082031 21.390625 76.328125 21.453125 76.570312 21.515625 C 76.617188 21.527344 76.667969 21.539062 76.714844 21.554688 C 80.382812 22.527344 83.933594 23.992188 87.230469 25.871094 C 87.285156 25.902344 87.339844 25.929688 87.394531 25.960938 C 88.207031 26.421875 88.988281 26.925781 89.765625 27.441406 C 89.808594 27.472656 89.855469 27.503906 89.902344 27.53125 C 90.722656 28.082031 91.535156 28.644531 92.3125 29.253906 C 92.363281 29.292969 92.410156 29.332031 92.460938 29.371094 C 92.847656 29.671875 93.226562 29.976562 93.601562 30.289062 C 93.632812 30.316406 93.667969 30.347656 93.703125 30.375 C 94.117188 30.722656 94.53125 31.078125 94.933594 31.441406 C 95.066406 31.566406 95.207031 31.6875 95.34375 31.808594 C 96 32.378906 96.628906 32.984375 97.242188 33.601562 C 97.289062 33.644531 97.332031 33.691406 97.378906 33.734375 C 97.632812 33.988281 97.875 34.25 98.109375 34.523438 C 98.265625 34.703125 98.433594 34.878906 98.597656 35.054688 C 98.886719 35.367188 99.164062 35.691406 99.433594 36.023438 C 99.5625 36.1875 99.699219 36.34375 99.835938 36.503906 C 100.273438 37.011719 100.675781 37.546875 101.074219 38.089844 C 101.125 38.15625 101.125 38.15625 101.175781 38.226562 C 102.574219 40.117188 103.828125 42.113281 104.910156 44.199219 C 104.949219 44.273438 104.988281 44.347656 105.027344 44.425781 C 106.59375 47.453125 107.804688 50.636719 108.613281 53.949219 C 108.636719 54.042969 108.636719 54.042969 108.660156 54.136719 C 108.757812 54.527344 108.847656 54.921875 108.941406 55.316406 C 108.953125 55.371094 108.964844 55.425781 108.980469 55.484375 C 109.183594 56.378906 109.347656 57.273438 109.476562 58.183594 C 109.503906 58.382812 109.535156 58.582031 109.5625 58.78125 C 110.035156 62.035156 110.144531 65.363281 109.851562 68.640625 C 109.84375 68.726562 109.84375 68.726562 109.835938 68.816406 C 109.808594 69.128906 109.777344 69.441406 109.742188 69.753906 C 109.726562 69.890625 109.710938 70.023438 109.699219 70.160156 C 109.417969 72.859375 108.867188 75.546875 108.03125 78.128906 C 108.003906 78.214844 107.976562 78.300781 107.949219 78.386719 C 107.285156 80.460938 106.507812 82.476562 105.558594 84.433594 C 105.523438 84.507812 105.488281 84.582031 105.453125 84.660156 C 104.957031 85.679688 104.425781 86.671875 103.84375 87.644531 C 103.746094 87.800781 103.652344 87.960938 103.5625 88.125 C 103.234375 88.6875 102.890625 89.234375 102.523438 89.773438 C 102.4375 89.894531 102.355469 90.019531 102.273438 90.144531 C 101.640625 91.074219 100.980469 91.980469 100.265625 92.847656 C 100.058594 93.101562 99.859375 93.355469 99.664062 93.621094 C 99.378906 94.007812 99.0625 94.355469 98.734375 94.703125 C 98.65625 94.792969 98.582031 94.878906 98.503906 94.96875 C 98.429688 95.054688 98.355469 95.140625 98.28125 95.226562 C 98.242188 95.269531 98.207031 95.3125 98.167969 95.355469 C 97.726562 95.851562 97.261719 96.320312 96.789062 96.789062 C 96.652344 96.925781 96.511719 97.066406 96.371094 97.207031 C 96.28125 97.296875 96.191406 97.386719 96.101562 97.476562 C 96.058594 97.519531 96.019531 97.5625 95.976562 97.601562 C 95.730469 97.847656 95.472656 98.082031 95.210938 98.3125 C 95.054688 98.445312 94.902344 98.585938 94.75 98.726562 C 94.464844 98.988281 94.167969 99.238281 93.867188 99.480469 C 93.714844 99.601562 93.566406 99.726562 93.414062 99.855469 C 92.808594 100.363281 92.183594 100.835938 91.539062 101.292969 C 91.390625 101.402344 91.242188 101.507812 91.09375 101.617188 C 87.683594 104.117188 83.867188 106.039062 79.886719 107.445312 C 79.804688 107.472656 79.726562 107.503906 79.640625 107.53125 C 76.761719 108.558594 73.703125 109.328125 70.65625 109.65625 C 70.582031 109.664062 70.503906 109.671875 70.429688 109.679688 C 66.75 110.066406 63.015625 110.15625 59.34375 109.65625 C 59.257812 109.644531 59.171875 109.632812 59.085938 109.621094 C 53.234375 108.839844 47.457031 106.9375 41.601562 103.414062 C 41.503906 103.359375 41.410156 103.300781 41.316406 103.242188 C 39.804688 102.320312 38.363281 101.273438 36.984375 100.164062 C 36.925781 100.117188 36.863281 100.066406 36.800781 100.019531 C 36.105469 99.453125 35.425781 98.867188 34.769531 98.257812 C 34.628906 98.128906 34.484375 98.003906 34.339844 97.878906 C 34.0625 97.636719 33.800781 97.382812 33.542969 97.121094 C 33.496094 97.074219 33.449219 97.027344 33.398438 96.976562 C 33.300781 96.878906 33.199219 96.777344 33.101562 96.679688 C 32.953125 96.53125 32.800781 96.378906 32.648438 96.230469 C 32.554688 96.132812 32.457031 96.035156 32.359375 95.9375 C 32.316406 95.894531 32.269531 95.851562 32.226562 95.804688 C 31.9375 95.511719 31.664062 95.210938 31.394531 94.898438 C 31.324219 94.820312 31.257812 94.742188 31.1875 94.660156 C 29.800781 93.074219 28.511719 91.402344 27.363281 89.636719 C 27.328125 89.578125 27.292969 89.523438 27.253906 89.464844 C 26.695312 88.609375 26.171875 87.738281 25.675781 86.839844 C 25.636719 86.773438 25.601562 86.707031 25.5625 86.636719 C 24.273438 84.304688 23.238281 81.890625 22.367188 79.375 C 22.300781 79.1875 22.234375 79 22.167969 78.816406 C 21.878906 77.976562 21.652344 77.128906 21.441406 76.269531 C 21.386719 76.058594 21.332031 75.847656 21.277344 75.636719 C 20.972656 74.441406 20.734375 73.25 20.558594 72.03125 C 20.535156 71.847656 20.503906 71.664062 20.476562 71.480469 C 20.453125 71.335938 20.429688 71.191406 20.410156 71.046875 C 20.402344 71 20.394531 70.957031 20.390625 70.910156 C 19.617188 65.953125 19.851562 60.664062 20.929688 55.769531 C 20.957031 55.648438 20.957031 55.648438 20.984375 55.519531 C 22.0625 50.601562 23.949219 45.894531 26.585938 41.601562 C 26.621094 41.539062 26.65625 41.480469 26.695312 41.421875 C 28.175781 39.019531 29.894531 36.753906 31.816406 34.6875 C 31.886719 34.609375 31.957031 34.53125 32.027344 34.449219 C 32.476562 33.941406 32.953125 33.46875 33.433594 32.988281 C 33.578125 32.84375 33.722656 32.699219 33.867188 32.554688 C 33.957031 32.460938 34.050781 32.367188 34.144531 32.277344 C 34.1875 32.234375 34.230469 32.191406 34.273438 32.148438 C 34.523438 31.898438 34.785156 31.660156 35.050781 31.425781 C 35.195312 31.300781 35.335938 31.175781 35.476562 31.046875 C 35.820312 30.738281 36.171875 30.449219 36.53125 30.160156 C 36.601562 30.101562 36.675781 30.042969 36.75 29.980469 C 38.183594 28.816406 39.699219 27.746094 41.273438 26.78125 C 41.335938 26.742188 41.398438 26.703125 41.464844 26.664062 C 46.554688 23.550781 52.121094 21.46875 60.96875 20.148438 C 61.089844 20.136719 61.089844 20.136719 61.210938 20.125 C 63.683594 19.902344 66.234375 19.921875 68.703125 20.148438 Z M 60.90625 22.945312 C 60.851562 22.949219 60.796875 22.953125 60.742188 22.960938 C 60.445312 22.988281 60.144531 23.023438 59.847656 23.058594 C 59.804688 23.0625 59.761719 23.070312 59.71875 23.074219 C 58.695312 23.203125 57.6875 23.390625 56.679688 23.59375 C 56.601562 23.609375 56.527344 23.625 56.445312 23.640625 C 53.214844 24.285156 50.121094 25.351562 47.125 26.714844 C 47.070312 26.738281 47.015625 26.765625 46.957031 26.789062 C 46.101562 27.179688 45.277344 27.621094 44.460938 28.078125 C 44.378906 28.125 44.378906 28.125 44.296875 28.171875 C 43.511719 28.613281 42.746094 29.085938 41.988281 29.574219 C 41.941406 29.605469 41.890625 29.636719 41.84375 29.671875 C 41.066406 30.171875 40.320312 30.710938 39.585938 31.265625 C 39.542969 31.296875 39.503906 31.324219 39.460938 31.355469 C 38.996094 31.707031 38.542969 32.074219 38.097656 32.457031 C 37.90625 32.621094 37.710938 32.78125 37.511719 32.9375 C 37.273438 33.132812 37.050781 33.335938 36.832031 33.5625 C 36.714844 33.679688 36.59375 33.789062 36.464844 33.898438 C 36.296875 34.042969 36.132812 34.191406 35.976562 34.351562 C 35.824219 34.507812 35.667969 34.652344 35.503906 34.796875 C 35.09375 35.148438 34.714844 35.527344 34.363281 35.933594 C 34.128906 36.199219 33.890625 36.457031 33.644531 36.710938 C 33.316406 37.058594 33.003906 37.410156 32.703125 37.785156 C 32.578125 37.941406 32.449219 38.09375 32.316406 38.246094 C 31.863281 38.769531 31.460938 39.324219 31.054688 39.882812 C 30.945312 40.035156 30.832031 40.1875 30.71875 40.339844 C 30.28125 40.9375 29.867188 41.542969 29.472656 42.167969 C 29.410156 42.269531 29.347656 42.367188 29.285156 42.464844 C 26.882812 46.222656 25.121094 50.339844 24.050781 54.664062 C 24.035156 54.722656 24.019531 54.785156 24.003906 54.84375 C 23.90625 55.238281 23.8125 55.632812 23.726562 56.03125 C 23.710938 56.097656 23.695312 56.164062 23.679688 56.234375 C 23.390625 57.519531 23.183594 58.804688 23.027344 60.113281 C 23.011719 60.246094 22.992188 60.382812 22.976562 60.519531 C 22.625 63.480469 22.707031 66.589844 23.011719 69.550781 C 23.015625 69.621094 23.023438 69.691406 23.03125 69.765625 C 23.074219 70.195312 23.136719 70.617188 23.203125 71.046875 C 23.21875 71.144531 23.234375 71.242188 23.25 71.339844 C 23.464844 72.683594 23.703125 74.015625 24.050781 75.335938 C 24.078125 75.445312 24.105469 75.554688 24.132812 75.660156 C 24.210938 75.964844 24.292969 76.269531 24.375 76.570312 C 24.386719 76.617188 24.398438 76.664062 24.414062 76.710938 C 24.894531 78.453125 25.527344 80.183594 26.261719 81.835938 C 26.289062 81.898438 26.316406 81.960938 26.34375 82.023438 C 27.019531 83.550781 27.761719 85.03125 28.621094 86.464844 C 28.722656 86.636719 28.824219 86.808594 28.925781 86.980469 C 30.199219 89.164062 31.765625 91.234375 33.492188 93.085938 C 33.636719 93.238281 33.773438 93.394531 33.910156 93.550781 C 34.117188 93.792969 34.339844 94.011719 34.566406 94.234375 C 34.699219 94.367188 34.820312 94.503906 34.941406 94.644531 C 35.292969 95.050781 35.671875 95.414062 36.078125 95.765625 C 36.199219 95.871094 36.308594 95.980469 36.421875 96.09375 C 36.660156 96.335938 36.921875 96.546875 37.1875 96.761719 C 37.371094 96.910156 37.546875 97.070312 37.71875 97.230469 C 38.085938 97.566406 38.472656 97.875 38.867188 98.175781 C 39.007812 98.285156 39.148438 98.394531 39.285156 98.507812 C 40.710938 99.625 42.238281 100.632812 43.808594 101.53125 C 43.871094 101.5625 43.929688 101.597656 43.988281 101.632812 C 47.496094 103.660156 51.242188 105.15625 55.183594 106.078125 C 55.253906 106.097656 55.253906 106.097656 55.324219 106.113281 C 58.113281 106.765625 60.976562 107.195312 63.847656 107.195312 C 63.945312 107.195312 64.042969 107.195312 64.140625 107.195312 C 64.34375 107.195312 64.550781 107.195312 64.753906 107.195312 C 64.960938 107.195312 65.167969 107.199219 65.371094 107.199219 C 66.578125 107.203125 67.765625 107.183594 68.964844 107.054688 C 69.054688 107.046875 69.148438 107.035156 69.238281 107.027344 C 69.460938 107.007812 69.679688 106.980469 69.898438 106.957031 C 69.96875 106.949219 70.042969 106.941406 70.113281 106.933594 C 70.476562 106.894531 70.828125 106.84375 71.183594 106.765625 C 71.421875 106.71875 71.664062 106.679688 71.902344 106.640625 C 71.953125 106.632812 72 106.625 72.050781 106.617188 C 72.152344 106.601562 72.25 106.585938 72.351562 106.570312 C 73.433594 106.390625 74.5 106.203125 75.554688 105.886719 C 75.785156 105.820312 76.015625 105.761719 76.246094 105.699219 C 76.734375 105.570312 77.21875 105.421875 77.699219 105.265625 C 77.742188 105.253906 77.785156 105.238281 77.828125 105.226562 C 79.484375 104.6875 81.101562 104.089844 82.679688 103.351562 C 82.746094 103.320312 82.816406 103.289062 82.882812 103.253906 C 86.667969 101.5 90.09375 99.160156 93.210938 96.394531 C 93.257812 96.351562 93.308594 96.308594 93.359375 96.265625 C 93.703125 95.957031 94.035156 95.640625 94.359375 95.308594 C 94.539062 95.128906 94.722656 94.953125 94.921875 94.785156 C 95.132812 94.605469 95.3125 94.40625 95.496094 94.191406 C 95.625 94.042969 95.765625 93.902344 95.90625 93.761719 C 96.121094 93.550781 96.324219 93.335938 96.519531 93.105469 C 96.628906 92.980469 96.738281 92.855469 96.847656 92.734375 C 97.289062 92.230469 97.710938 91.714844 98.121094 91.183594 C 98.214844 91.0625 98.3125 90.941406 98.410156 90.824219 C 98.933594 90.179688 99.398438 89.503906 99.855469 88.8125 C 99.902344 88.746094 99.902344 88.746094 99.945312 88.679688 C 102.046875 85.519531 103.71875 82.1875 104.964844 78.605469 C 105.015625 78.457031 105.070312 78.308594 105.125 78.160156 C 105.300781 77.675781 105.453125 77.191406 105.585938 76.691406 C 105.601562 76.621094 105.621094 76.546875 105.640625 76.472656 C 105.683594 76.320312 105.722656 76.171875 105.761719 76.019531 C 105.800781 75.867188 105.839844 75.71875 105.878906 75.570312 C 106.4375 73.460938 106.808594 71.3125 107.035156 69.144531 C 107.042969 69.070312 107.050781 68.996094 107.058594 68.921875 C 107.1875 67.59375 107.199219 66.261719 107.195312 64.929688 C 107.195312 64.851562 107.195312 64.773438 107.195312 64.691406 C 107.195312 62.625 107.015625 60.609375 106.730469 58.566406 C 106.71875 58.488281 106.707031 58.414062 106.699219 58.335938 C 105.945312 53.078125 103.972656 47.921875 96.597656 37.070312 C 96.480469 36.941406 96.363281 36.808594 96.25 36.675781 C 95.683594 36.03125 95.089844 35.414062 94.484375 34.808594 C 94.4375 34.757812 94.390625 34.710938 94.339844 34.660156 C 94.078125 34.398438 93.808594 34.148438 93.523438 33.902344 C 93.355469 33.757812 93.191406 33.605469 93.027344 33.449219 C 92.730469 33.175781 92.425781 32.914062 92.109375 32.664062 C 91.960938 32.539062 91.808594 32.417969 91.660156 32.292969 C 91.050781 31.777344 90.421875 31.300781 89.769531 30.839844 C 89.648438 30.753906 89.527344 30.664062 89.40625 30.578125 C 86.128906 28.1875 82.433594 26.332031 78.597656 25.03125 C 78.390625 24.960938 78.183594 24.886719 77.976562 24.816406 C 77.214844 24.554688 76.453125 24.332031 75.671875 24.148438 C 75.464844 24.097656 75.261719 24.042969 75.054688 23.984375 C 73.132812 23.472656 71.140625 23.140625 69.15625 22.96875 C 68.960938 22.949219 68.761719 22.929688 68.5625 22.910156 C 67.476562 22.808594 66.398438 22.792969 65.308594 22.796875 C 65.0625 22.796875 64.816406 22.796875 64.570312 22.796875 C 63.34375 22.792969 62.128906 22.832031 60.90625 22.945312 Z M 60.90625 22.945312 "/>
<path style=" stroke:none;fill-rule:nonzero;fill:rgb(46.27451%,29.803923%,21.568628%);fill-opacity:1;" d="M 69.941406 58.109375 C 70.171875 58.234375 70.402344 58.378906 70.589844 58.566406 C 70.644531 59.210938 70.371094 59.800781 70.136719 60.386719 C 70.09375 60.492188 70.050781 60.59375 70.007812 60.699219 C 69.632812 61.652344 69.632812 61.652344 69.433594 62.109375 C 69.199219 62.644531 68.988281 63.191406 68.777344 63.734375 C 68.609375 64.164062 68.4375 64.59375 68.257812 65.019531 C 67.507812 66.828125 67.066406 68.796875 66.785156 70.730469 C 66.765625 70.851562 66.742188 70.96875 66.71875 71.089844 C 66.683594 71.273438 66.679688 71.445312 66.679688 71.628906 C 66.675781 71.695312 66.675781 71.761719 66.675781 71.828125 C 66.695312 72.101562 66.757812 72.28125 66.949219 72.476562 C 67.253906 72.460938 67.46875 72.300781 67.707031 72.128906 C 67.746094 72.101562 67.785156 72.070312 67.828125 72.042969 C 68.238281 71.734375 68.574219 71.375 68.898438 70.980469 C 68.941406 70.929688 68.941406 70.929688 68.984375 70.875 C 69.167969 70.652344 69.347656 70.425781 69.519531 70.195312 C 69.582031 70.113281 69.644531 70.03125 69.707031 69.949219 C 70.929688 68.363281 72.039062 66.65625 73.058594 64.933594 C 73.089844 64.882812 73.121094 64.832031 73.152344 64.777344 C 73.507812 64.179688 73.847656 63.578125 74.160156 62.960938 C 74.269531 62.75 74.375 62.574219 74.535156 62.398438 C 74.714844 62.164062 74.734375 62.019531 74.757812 61.730469 C 74.851562 60.855469 74.851562 60.855469 75.09375 60.535156 C 75.316406 60.367188 75.59375 60.414062 75.855469 60.449219 C 76.09375 60.542969 76.203125 60.625 76.316406 60.855469 C 76.492188 61.320312 76.542969 61.722656 76.539062 62.214844 C 76.542969 62.292969 76.542969 62.367188 76.542969 62.445312 C 76.542969 62.691406 76.542969 62.941406 76.542969 63.1875 C 76.546875 63.359375 76.546875 63.53125 76.546875 63.703125 C 76.550781 64.109375 76.550781 64.515625 76.550781 64.921875 C 76.554688 65.382812 76.554688 65.847656 76.558594 66.308594 C 76.5625 67.257812 76.566406 68.210938 76.570312 69.160156 C 76.675781 69.179688 76.785156 69.203125 76.894531 69.226562 C 76.914062 69.1875 76.929688 69.152344 76.949219 69.113281 C 77.820312 67.429688 79.28125 65.898438 80.507812 64.460938 C 80.601562 64.351562 80.695312 64.238281 80.785156 64.128906 C 81.132812 63.722656 81.480469 63.320312 81.84375 62.929688 C 81.882812 62.886719 81.921875 62.84375 81.960938 62.800781 C 82.171875 62.578125 82.378906 62.394531 82.636719 62.226562 C 83.015625 61.945312 83.15625 61.523438 83.328125 61.097656 C 83.359375 61.015625 83.359375 61.015625 83.394531 60.929688 C 83.414062 60.878906 83.433594 60.828125 83.453125 60.777344 C 83.539062 60.617188 83.628906 60.546875 83.785156 60.449219 C 84.191406 60.378906 84.550781 60.433594 84.914062 60.621094 C 85.066406 60.746094 85.132812 60.851562 85.214844 61.035156 C 85.222656 61.222656 85.21875 61.394531 85.203125 61.578125 C 85.199219 61.625 85.195312 61.675781 85.195312 61.722656 C 85.171875 62.027344 85.109375 62.300781 85.019531 62.59375 C 84.988281 62.753906 84.957031 62.917969 84.929688 63.078125 C 84.867188 63.433594 84.789062 63.777344 84.699219 64.125 C 84.539062 64.738281 84.4375 65.363281 84.335938 65.984375 C 84.316406 66.109375 84.292969 66.234375 84.273438 66.355469 C 84.1875 66.867188 84.109375 67.375 84.035156 67.886719 C 84.023438 67.96875 84.011719 68.046875 84 68.128906 C 83.925781 68.648438 83.898438 69.152344 83.914062 69.679688 C 84.433594 69.566406 84.703125 69.027344 84.976562 68.605469 C 85.515625 67.757812 86 66.886719 86.441406 65.988281 C 86.753906 65.355469 87.097656 64.746094 87.453125 64.136719 C 87.558594 63.953125 87.660156 63.773438 87.761719 63.59375 C 88.753906 61.832031 88.753906 61.832031 89.308594 61.554688 C 89.769531 61.484375 90.171875 61.683594 90.546875 61.945312 C 90.710938 62.238281 90.699219 62.535156 90.695312 62.863281 C 90.695312 62.921875 90.695312 62.980469 90.695312 63.042969 C 90.683594 63.832031 90.570312 64.605469 90.464844 65.386719 C 90.441406 65.546875 90.421875 65.703125 90.402344 65.863281 C 90.316406 66.519531 90.226562 67.179688 90.132812 67.835938 C 90.011719 68.671875 89.917969 69.484375 89.960938 70.328125 C 90.066406 70.351562 90.175781 70.371094 90.285156 70.394531 C 90.304688 70.359375 90.320312 70.320312 90.339844 70.28125 C 90.414062 70.140625 90.492188 70.007812 90.578125 69.875 C 90.625 69.800781 90.625 69.800781 90.675781 69.722656 C 90.726562 69.644531 90.726562 69.644531 90.777344 69.5625 C 91.089844 69.066406 91.398438 68.566406 91.699219 68.0625 C 91.789062 67.910156 91.878906 67.757812 91.96875 67.605469 C 92.613281 66.519531 93.253906 65.433594 93.863281 64.328125 C 93.886719 64.289062 93.910156 64.25 93.929688 64.207031 C 94.035156 64.019531 94.140625 63.828125 94.242188 63.640625 C 94.964844 62.328125 94.964844 62.328125 95.296875 62.230469 C 95.539062 62.203125 95.710938 62.191406 95.945312 62.269531 C 96.070312 62.398438 96.070312 62.398438 96.089844 62.609375 C 96.066406 62.886719 96 63.046875 95.871094 63.292969 C 95.847656 63.335938 95.824219 63.378906 95.800781 63.425781 C 95.71875 63.582031 95.636719 63.738281 95.550781 63.894531 C 95.515625 63.960938 95.480469 64.023438 95.445312 64.089844 C 94.980469 64.941406 94.5 65.785156 94.007812 66.621094 C 93.578125 67.355469 93.164062 68.101562 92.753906 68.847656 C 92.664062 69.011719 92.574219 69.171875 92.488281 69.332031 C 92.441406 69.417969 92.394531 69.5 92.347656 69.582031 C 92.152344 69.9375 91.957031 70.292969 91.761719 70.644531 C 91.664062 70.824219 91.566406 71.003906 91.46875 71.179688 C 90.714844 72.546875 90.714844 72.546875 89.960938 72.800781 C 89.238281 72.855469 88.71875 72.820312 88.125 72.363281 C 87.660156 71.949219 87.445312 71.394531 87.359375 70.785156 C 87.347656 70.496094 87.347656 70.207031 87.347656 69.917969 C 87.347656 69.78125 87.347656 69.640625 87.34375 69.503906 C 87.34375 68.992188 87.375 68.5 87.460938 67.992188 C 87.5 67.726562 87.5 67.476562 87.488281 67.210938 C 87.277344 67.300781 87.183594 67.382812 87.066406 67.582031 C 87.039062 67.632812 87.007812 67.683594 86.980469 67.734375 C 86.933594 67.816406 86.933594 67.816406 86.882812 67.902344 C 86.816406 68.019531 86.746094 68.136719 86.675781 68.257812 C 86.640625 68.320312 86.601562 68.382812 86.566406 68.445312 C 86.371094 68.777344 86.167969 69.101562 85.960938 69.425781 C 85.921875 69.488281 85.878906 69.554688 85.839844 69.621094 C 85.757812 69.753906 85.675781 69.882812 85.59375 70.011719 C 85.480469 70.191406 85.371094 70.371094 85.257812 70.546875 C 85.074219 70.84375 84.886719 71.140625 84.695312 71.433594 C 84.671875 71.472656 84.644531 71.511719 84.621094 71.550781 C 84.308594 72.027344 84.007812 72.355469 83.460938 72.539062 C 82.761719 72.605469 82.261719 72.445312 81.703125 72.019531 C 81.21875 71.519531 81.101562 70.871094 81.097656 70.199219 C 81.125 68.800781 81.472656 67.398438 81.769531 66.039062 C 81.804688 65.871094 81.84375 65.699219 81.878906 65.53125 C 81.894531 65.453125 81.914062 65.375 81.929688 65.296875 C 81.941406 65.242188 81.953125 65.1875 81.964844 65.128906 C 81.472656 65.644531 81.007812 66.167969 80.574219 66.730469 C 80.417969 66.933594 80.257812 67.125 80.09375 67.320312 C 79.5 68.027344 78.953125 68.777344 78.460938 69.558594 C 78.269531 69.863281 78.058594 70.152344 77.839844 70.4375 C 76.792969 71.6875 76.792969 71.6875 76.359375 73.1875 C 76.355469 73.296875 76.355469 73.40625 76.351562 73.511719 C 76.351562 73.570312 76.351562 73.625 76.351562 73.683594 C 76.328125 74.921875 76.28125 76.160156 76.164062 77.390625 C 76.101562 78.039062 76.089844 78.6875 76.066406 79.335938 C 76.023438 80.5625 75.960938 81.777344 75.8125 82.992188 C 75.789062 83.195312 75.769531 83.402344 75.75 83.605469 C 75.5625 85.460938 75.148438 87.308594 74.359375 89 C 74.335938 89.054688 74.308594 89.109375 74.28125 89.167969 C 74.09375 89.558594 73.855469 89.882812 73.578125 90.21875 C 73.519531 90.296875 73.460938 90.378906 73.402344 90.457031 C 72.957031 90.964844 72.328125 91.261719 71.664062 91.34375 C 71.140625 91.371094 70.628906 91.21875 70.210938 90.894531 C 69.222656 89.9375 68.972656 88.128906 68.9375 86.820312 C 68.921875 84.101562 69.839844 81.414062 70.980469 78.976562 C 71.027344 78.867188 71.078125 78.757812 71.128906 78.652344 C 71.464844 77.910156 71.851562 77.199219 72.246094 76.488281 C 72.34375 76.3125 72.441406 76.136719 72.535156 75.957031 C 72.789062 75.488281 73.039062 75.03125 73.34375 74.59375 C 73.875 73.8125 73.949219 73.082031 73.941406 72.164062 C 73.941406 71.832031 73.945312 71.496094 73.949219 71.164062 C 73.949219 71.09375 73.953125 71.023438 73.953125 70.949219 C 73.96875 70.039062 74.035156 69.128906 74.101562 68.222656 C 74.105469 68.140625 74.113281 68.058594 74.117188 67.972656 C 74.144531 67.589844 74.171875 67.207031 74.203125 66.824219 C 74.238281 66.347656 74.265625 65.867188 74.296875 65.390625 C 74.261719 65.449219 74.226562 65.507812 74.191406 65.566406 C 73.789062 66.246094 73.363281 66.910156 72.9375 67.574219 C 72.769531 67.835938 72.597656 68.101562 72.429688 68.367188 C 71.734375 69.472656 71.011719 70.550781 70.214844 71.589844 C 70.148438 71.675781 70.082031 71.765625 70.019531 71.855469 C 69.425781 72.664062 68.503906 73.734375 67.46875 73.90625 C 66.632812 73.984375 66 73.851562 65.304688 73.34375 C 64.609375 72.75 64.273438 71.871094 64.15625 70.980469 C 64.128906 70.476562 64.183594 70.003906 64.273438 69.507812 C 64.285156 69.441406 64.296875 69.375 64.308594 69.304688 C 64.363281 68.992188 64.417969 68.679688 64.476562 68.371094 C 64.488281 68.320312 64.496094 68.269531 64.507812 68.21875 C 64.523438 68.125 64.542969 68.035156 64.558594 67.941406 C 64.605469 67.699219 64.613281 67.511719 64.546875 67.273438 C 64.308594 67.3125 64.203125 67.402344 64.039062 67.570312 C 63.992188 67.617188 63.945312 67.667969 63.898438 67.714844 C 63.742188 67.882812 63.589844 68.054688 63.441406 68.230469 C 62.992188 68.746094 62.527344 69.238281 62.027344 69.707031 C 61.96875 69.765625 61.96875 69.765625 61.90625 69.820312 C 61.253906 70.425781 60.773438 70.691406 59.855469 70.675781 C 59.167969 70.621094 58.613281 70.335938 58.109375 69.875 C 57.953125 69.691406 57.828125 69.503906 57.71875 69.289062 C 57.683594 69.222656 57.648438 69.152344 57.613281 69.085938 C 57.492188 68.792969 57.496094 68.511719 57.5 68.203125 C 57.5 68.140625 57.503906 68.082031 57.503906 68.019531 C 57.550781 65.953125 58.390625 64.207031 59.527344 62.515625 C 59.632812 62.355469 59.734375 62.1875 59.832031 62.023438 C 60.421875 61.101562 61.277344 60.332031 62.347656 60.042969 C 63.226562 59.875 64.097656 60.003906 64.867188 60.46875 C 65.496094 60.90625 65.816406 61.410156 66.171875 62.074219 C 66.453125 62.050781 66.453125 62.050781 66.6875 61.898438 C 66.722656 61.847656 66.761719 61.796875 66.800781 61.746094 C 66.84375 61.6875 66.886719 61.628906 66.933594 61.566406 C 67.160156 61.246094 67.382812 60.925781 67.605469 60.597656 C 67.832031 60.265625 68.066406 59.933594 68.300781 59.601562 C 68.480469 59.347656 68.65625 59.097656 68.835938 58.839844 C 69.398438 58.039062 69.398438 58.039062 69.941406 58.109375 Z M 69.941406 58.109375 "/>
<path style=" stroke:none;fill-rule:nonzero;fill:rgb(46.666667%,29.803923%,21.568628%);fill-opacity:1;" d="M 58.109375 44.523438 C 58.636719 44.773438 58.996094 45.296875 59.214844 45.824219 C 59.84375 47.707031 58.707031 50.566406 58.144531 52.367188 C 58.011719 52.792969 57.890625 53.222656 57.777344 53.65625 C 57.648438 54.132812 57.507812 54.601562 57.347656 55.066406 C 57.269531 55.300781 57.199219 55.53125 57.132812 55.765625 C 56.972656 56.3125 56.804688 56.855469 56.636719 57.398438 C 56.621094 57.441406 56.609375 57.488281 56.59375 57.53125 C 56.476562 57.902344 56.363281 58.269531 56.246094 58.640625 C 55.644531 60.53125 55.644531 60.53125 55.117188 62.445312 C 55.015625 62.839844 54.910156 63.230469 54.796875 63.621094 C 54.609375 64.257812 54.472656 64.90625 54.324219 65.554688 C 54.277344 65.773438 54.226562 65.992188 54.175781 66.207031 C 53.917969 67.316406 53.722656 68.425781 53.558594 69.550781 C 53.542969 69.675781 53.542969 69.675781 53.523438 69.804688 C 53.285156 71.476562 53.160156 73.136719 53.152344 74.824219 C 53.152344 74.875 53.152344 74.929688 53.152344 74.980469 C 53.148438 75.71875 53.15625 76.453125 53.425781 77.152344 C 53.445312 77.207031 53.46875 77.261719 53.488281 77.320312 C 53.566406 77.496094 53.640625 77.648438 53.753906 77.804688 C 53.957031 77.878906 54.132812 77.855469 54.339844 77.804688 C 54.90625 77.523438 55.316406 76.921875 55.703125 76.441406 C 55.75 76.382812 55.75 76.382812 55.796875 76.328125 C 56.355469 75.644531 56.726562 74.886719 57.105469 74.097656 C 57.976562 72.304688 57.976562 72.304688 58.433594 71.890625 C 58.648438 71.820312 58.808594 71.8125 59.019531 71.890625 C 59.136719 71.96875 59.136719 71.96875 59.214844 72.085938 C 59.207031 72.441406 59.039062 72.753906 58.890625 73.070312 C 58.863281 73.128906 58.839844 73.1875 58.8125 73.246094 C 58.585938 73.734375 58.355469 74.222656 58.121094 74.710938 C 58.027344 74.90625 57.9375 75.101562 57.851562 75.296875 C 57.238281 76.648438 56.328125 78.289062 54.859375 78.84375 C 54.308594 78.992188 53.710938 78.9375 53.171875 78.78125 C 53.125 78.769531 53.082031 78.757812 53.039062 78.742188 C 52.390625 78.539062 51.933594 78.0625 51.609375 77.480469 C 51.125 76.460938 50.886719 75.523438 50.882812 74.394531 C 50.882812 74.316406 50.882812 74.234375 50.878906 74.15625 C 50.878906 73.988281 50.878906 73.820312 50.878906 73.65625 C 50.878906 73.40625 50.875 73.15625 50.875 72.910156 C 50.871094 71.800781 50.945312 70.714844 51.089844 69.613281 C 51.101562 69.53125 51.101562 69.53125 51.113281 69.441406 C 51.15625 69.109375 51.210938 68.777344 51.265625 68.445312 C 51.273438 68.394531 51.28125 68.347656 51.289062 68.296875 C 51.480469 67.144531 51.730469 66.007812 52 64.871094 C 52.023438 64.765625 52.050781 64.660156 52.074219 64.554688 C 52.332031 63.464844 52.589844 62.378906 52.914062 61.304688 C 52.972656 61.101562 53.035156 60.898438 53.09375 60.695312 C 53.785156 58.347656 54.539062 56.019531 55.367188 53.714844 C 55.957031 52.054688 56.5 50.378906 57.015625 48.691406 C 57.105469 48.398438 57.195312 48.105469 57.3125 47.816406 C 57.394531 47.578125 57.425781 47.378906 57.441406 47.125 C 57.445312 47.015625 57.445312 47.015625 57.453125 46.902344 C 57.453125 46.847656 57.457031 46.792969 57.460938 46.734375 C 56.640625 47.089844 56.15625 48.082031 55.703125 48.816406 C 55.679688 48.859375 55.652344 48.902344 55.625 48.945312 C 54.847656 50.21875 54.15625 51.546875 53.527344 52.898438 C 53.441406 53.082031 53.355469 53.265625 53.265625 53.445312 C 52.574219 54.902344 51.925781 56.371094 51.285156 57.851562 C 51.261719 57.902344 51.242188 57.953125 51.21875 58.003906 C 50.761719 59.054688 50.316406 60.109375 49.875 61.171875 C 49.433594 62.238281 48.972656 63.296875 48.488281 64.351562 C 48.4375 64.464844 48.4375 64.464844 48.382812 64.582031 C 48.175781 65.039062 47.960938 65.492188 47.75 65.949219 C 47.679688 66.097656 47.609375 66.246094 47.542969 66.394531 C 46.5 68.632812 46.5 68.632812 45.953125 68.898438 C 45.484375 69.027344 45.128906 68.882812 44.710938 68.660156 C 44.171875 68.226562 43.867188 67.746094 43.78125 67.050781 C 43.769531 66.800781 43.761719 66.546875 43.765625 66.296875 C 43.765625 66.25 43.765625 66.203125 43.765625 66.15625 C 43.769531 65.195312 43.941406 64.289062 44.164062 63.355469 C 44.261719 62.953125 44.339844 62.550781 44.417969 62.144531 C 44.570312 61.375 44.746094 60.613281 44.929688 59.851562 C 44.980469 59.644531 45.03125 59.4375 45.078125 59.230469 C 45.242188 58.558594 45.40625 57.886719 45.585938 57.21875 C 45.726562 56.707031 45.84375 56.238281 45.824219 55.703125 C 45.542969 55.847656 45.375 56.03125 45.199219 56.289062 C 45.15625 56.351562 45.15625 56.351562 45.113281 56.410156 C 43.113281 59.335938 41.613281 63.070312 40.757812 66.503906 C 40.636719 66.984375 40.507812 67.464844 40.367188 67.941406 C 40.214844 68.464844 40.078125 68.996094 39.941406 69.527344 C 39.800781 70.078125 39.648438 70.625 39.472656 71.167969 C 39.339844 71.578125 39.21875 71.996094 39.101562 72.414062 C 39.082031 72.480469 39.0625 72.550781 39.042969 72.617188 C 38.945312 72.984375 38.847656 73.347656 38.75 73.710938 C 38.730469 73.785156 38.710938 73.863281 38.691406 73.9375 C 38.65625 74.082031 38.617188 74.226562 38.582031 74.371094 C 38.46875 74.808594 38.308594 75.195312 38.089844 75.59375 C 37.890625 75.601562 37.695312 75.605469 37.496094 75.609375 C 37.441406 75.613281 37.386719 75.617188 37.328125 75.617188 C 36.960938 75.625 36.753906 75.582031 36.464844 75.335938 C 36.050781 74.910156 35.851562 74.449219 35.847656 73.851562 C 35.847656 73.792969 35.847656 73.730469 35.851562 73.667969 C 35.851562 73.601562 35.851562 73.539062 35.851562 73.46875 C 35.851562 73.261719 35.851562 73.050781 35.855469 72.839844 C 35.855469 72.695312 35.859375 72.550781 35.859375 72.402344 C 35.867188 71.40625 35.902344 70.414062 36.011719 69.421875 C 36.019531 69.328125 36.027344 69.238281 36.039062 69.148438 C 36.144531 68.15625 36.253906 67.167969 36.417969 66.1875 C 36.460938 65.941406 36.496094 65.699219 36.527344 65.453125 C 36.757812 63.757812 37.089844 62.089844 37.484375 60.425781 C 37.5625 60.085938 37.640625 59.746094 37.710938 59.40625 C 37.824219 58.894531 37.964844 58.394531 38.105469 57.890625 C 38.359375 57 38.597656 56.109375 38.796875 55.207031 C 38.941406 54.5625 39.101562 53.921875 39.261719 53.285156 C 39.273438 53.230469 39.289062 53.175781 39.300781 53.117188 C 39.46875 52.441406 39.648438 51.765625 39.835938 51.09375 C 39.886719 50.910156 39.9375 50.726562 39.984375 50.542969 C 40.128906 49.996094 40.328125 49.492188 40.566406 48.980469 C 40.597656 48.921875 40.625 48.863281 40.652344 48.800781 C 40.859375 48.375 40.859375 48.375 41.078125 48.230469 C 41.445312 48.199219 41.675781 48.214844 41.988281 48.425781 C 42.242188 48.667969 42.34375 48.84375 42.378906 49.191406 C 42.382812 49.441406 42.316406 49.664062 42.25 49.898438 C 42.082031 50.554688 41.953125 51.214844 41.832031 51.878906 C 41.6875 52.652344 41.535156 53.417969 41.363281 54.183594 C 41.265625 54.605469 41.175781 55.027344 41.085938 55.449219 C 41.070312 55.527344 41.070312 55.527344 41.054688 55.609375 C 41.03125 55.714844 41.007812 55.820312 40.988281 55.925781 C 40.804688 56.804688 40.613281 57.675781 40.398438 58.546875 C 40.25 59.140625 40.117188 59.734375 39.988281 60.332031 C 39.898438 60.742188 39.800781 61.148438 39.695312 61.554688 C 39.324219 62.992188 39.105469 64.449219 38.921875 65.917969 C 38.855469 66.429688 38.773438 66.921875 38.648438 67.425781 C 38.601562 67.632812 38.589844 67.828125 38.597656 68.042969 C 38.597656 68.109375 38.601562 68.171875 38.601562 68.238281 C 38.605469 68.285156 38.609375 68.332031 38.609375 68.378906 C 38.695312 68.402344 38.78125 68.421875 38.871094 68.445312 C 38.882812 68.402344 38.894531 68.355469 38.90625 68.3125 C 40.179688 63.621094 41.828125 58.496094 44.734375 54.550781 C 44.765625 54.507812 44.796875 54.46875 44.828125 54.425781 C 45.066406 54.113281 45.339844 53.800781 45.695312 53.625 C 46.3125 53.566406 46.78125 53.660156 47.273438 54.035156 C 47.71875 54.476562 47.855469 55.015625 47.863281 55.628906 C 47.863281 55.683594 47.863281 55.734375 47.863281 55.789062 C 47.863281 55.847656 47.863281 55.902344 47.863281 55.960938 C 47.851562 56.507812 47.765625 57.027344 47.652344 57.558594 C 47.589844 57.855469 47.53125 58.148438 47.472656 58.441406 C 47.460938 58.503906 47.449219 58.566406 47.433594 58.628906 C 47.285156 59.382812 47.15625 60.140625 47.023438 60.898438 C 46.832031 61.992188 46.632812 63.082031 46.410156 64.171875 C 46.402344 64.21875 46.394531 64.261719 46.382812 64.308594 C 46.359375 64.425781 46.335938 64.546875 46.3125 64.664062 C 46.28125 64.867188 46.273438 65.054688 46.28125 65.261719 C 46.761719 65.097656 46.992188 64.375 47.210938 63.941406 C 47.289062 63.789062 47.363281 63.636719 47.4375 63.484375 C 47.464844 63.433594 47.488281 63.378906 47.515625 63.324219 C 48.128906 62.089844 48.675781 60.835938 49.203125 59.566406 C 49.542969 58.746094 49.894531 57.933594 50.246094 57.121094 C 50.289062 57.019531 50.332031 56.921875 50.378906 56.820312 C 50.398438 56.769531 50.421875 56.722656 50.441406 56.671875 C 50.589844 56.328125 50.734375 55.988281 50.878906 55.644531 C 51.421875 54.371094 51.988281 53.109375 52.589844 51.859375 C 52.648438 51.746094 52.703125 51.632812 52.757812 51.515625 C 53.203125 50.59375 53.695312 49.707031 54.21875 48.824219 C 54.347656 48.609375 54.46875 48.394531 54.589844 48.179688 C 56.746094 44.378906 56.746094 44.378906 58.109375 44.523438 Z M 58.109375 44.523438 "/>
<path style=" stroke:none;fill-rule:nonzero;fill:rgb(46.27451%,29.411766%,21.176471%);fill-opacity:1;" d="M 64.9375 25.132812 C 65 25.132812 65.058594 25.132812 65.121094 25.132812 C 66.476562 25.144531 67.667969 25.8125 68.644531 26.710938 C 69.816406 27.953125 70.054688 29.707031 70.011719 31.339844 C 69.929688 33.1875 68.792969 34.683594 67.664062 36.074219 C 67.617188 36.136719 67.566406 36.199219 67.515625 36.261719 C 66.984375 36.917969 66.410156 37.53125 65.828125 38.144531 C 65.4375 38.558594 65.070312 38.953125 64.792969 39.453125 C 64.769531 39.492188 64.75 39.53125 64.726562 39.570312 C 64.449219 40.066406 64.289062 40.550781 64.15625 41.105469 C 64.136719 41.175781 64.121094 41.246094 64.105469 41.316406 C 63.929688 42.074219 63.839844 42.839844 63.765625 43.613281 C 62.648438 42.550781 62.136719 40.421875 61.621094 39 C 61.59375 38.925781 61.5625 38.847656 61.535156 38.769531 C 60.378906 35.597656 59.476562 31.179688 60.894531 27.945312 C 61.109375 27.492188 61.351562 27.09375 61.683594 26.714844 C 61.714844 26.675781 61.746094 26.636719 61.773438 26.597656 C 62.511719 25.652344 63.761719 25.113281 64.9375 25.132812 Z M 64.9375 25.132812 "/>
<path style=" stroke:none;fill-rule:nonzero;fill:rgb(46.27451%,29.411766%,21.176471%);fill-opacity:1;" d="M 75.148438 35.214844 C 75.21875 35.210938 75.285156 35.210938 75.359375 35.210938 C 76.832031 35.203125 78.363281 35.921875 79.429688 36.921875 C 79.628906 37.144531 79.796875 37.378906 79.949219 37.636719 C 79.992188 37.707031 79.992188 37.707031 80.039062 37.777344 C 80.296875 38.257812 80.28125 38.808594 80.164062 39.328125 C 80.03125 39.730469 79.839844 40.050781 79.558594 40.363281 C 79.527344 40.40625 79.492188 40.445312 79.457031 40.484375 C 78.707031 41.289062 77.5625 41.597656 76.503906 41.730469 C 76.390625 41.746094 76.390625 41.746094 76.277344 41.761719 C 75.707031 41.839844 75.148438 41.878906 74.570312 41.875 C 74.433594 41.875 74.292969 41.875 74.152344 41.878906 C 73.753906 41.878906 73.355469 41.878906 72.957031 41.878906 C 70.441406 41.832031 70.441406 41.832031 68.261719 42.917969 C 68.109375 43.085938 68.109375 43.085938 68.054688 43.289062 C 68.011719 43.289062 67.96875 43.289062 67.925781 43.289062 C 67.757812 41.3125 68.84375 39.144531 70.078125 37.664062 C 71.390625 36.160156 73.136719 35.222656 75.148438 35.214844 Z M 75.148438 35.214844 "/>
<path style=" stroke:none;fill-rule:nonzero;fill:rgb(46.27451%,29.411766%,21.176471%);fill-opacity:1;" d="M 54.925781 32.628906 C 54.996094 32.660156 55.0625 32.691406 55.136719 32.722656 C 56.367188 33.328125 57.046875 34.355469 57.484375 35.625 C 57.878906 36.835938 57.933594 38.046875 57.949219 39.308594 C 57.957031 40.6875 57.957031 40.6875 58.289062 42.015625 C 58.304688 42.058594 58.320312 42.101562 58.339844 42.144531 C 58.480469 42.492188 58.660156 42.800781 58.890625 43.09375 C 56.300781 42.734375 53.226562 40.378906 51.351562 38.609375 C 51.296875 38.5625 51.242188 38.511719 51.1875 38.460938 C 50.496094 37.808594 49.855469 36.90625 49.777344 35.929688 C 49.75 34.820312 49.851562 34.105469 50.632812 33.273438 C 51.691406 32.246094 53.597656 32.035156 54.925781 32.628906 Z M 54.925781 32.628906 "/>
<path style=" stroke:none;fill-rule:nonzero;fill:rgb(92.941177%,89.803922%,85.882354%);fill-opacity:1;" d="M 73.449219 77.285156 C 73.703125 77.40625 73.703125 77.40625 73.773438 77.480469 C 73.78125 77.578125 73.78125 77.679688 73.777344 77.777344 C 73.777344 77.84375 73.773438 77.90625 73.773438 77.972656 C 73.773438 78.078125 73.773438 78.078125 73.769531 78.1875 C 73.769531 78.257812 73.765625 78.332031 73.765625 78.40625 C 73.761719 78.644531 73.753906 78.878906 73.75 79.117188 C 73.746094 79.277344 73.742188 79.441406 73.742188 79.601562 C 73.722656 80.457031 73.703125 81.308594 73.675781 82.164062 C 73.675781 82.242188 73.671875 82.316406 73.671875 82.394531 C 73.667969 82.464844 73.664062 82.535156 73.664062 82.605469 C 73.660156 82.664062 73.660156 82.71875 73.65625 82.78125 C 73.644531 82.945312 73.613281 83.101562 73.578125 83.265625 C 73.570312 83.363281 73.5625 83.457031 73.554688 83.554688 C 73.503906 84.300781 73.417969 85.035156 73.296875 85.773438 C 73.28125 85.851562 73.269531 85.929688 73.257812 86.011719 C 73.0625 87.164062 72.71875 89.0625 71.921875 89.980469 C 71.761719 90.089844 71.761719 90.089844 71.59375 90.097656 C 71.144531 89.890625 70.949219 89.304688 70.773438 88.871094 C 69.601562 85.609375 71.042969 81.820312 72.429688 78.859375 C 72.703125 78.292969 73 77.734375 73.449219 77.285156 Z M 73.449219 77.285156 "/>
<path style=" stroke:none;fill-rule:nonzero;fill:rgb(93.333334%,89.803922%,85.882354%);fill-opacity:1;" d="M 64.351562 61.101562 C 64.679688 61.328125 64.785156 61.65625 64.933594 62.011719 C 65.058594 62.300781 65.171875 62.46875 65.46875 62.59375 C 65.511719 62.609375 65.558594 62.625 65.605469 62.640625 C 65.714844 62.726562 65.714844 62.726562 65.785156 62.933594 C 65.777344 63.269531 65.652344 63.398438 65.433594 63.644531 C 65.363281 63.730469 65.289062 63.816406 65.214844 63.902344 C 65.179688 63.945312 65.144531 63.988281 65.105469 64.03125 C 64.953125 64.210938 64.8125 64.398438 64.671875 64.585938 C 64.371094 64.980469 64.050781 65.363281 63.726562 65.738281 C 63.636719 65.839844 63.550781 65.945312 63.464844 66.050781 C 63.078125 66.519531 62.664062 66.964844 62.234375 67.398438 C 62.144531 67.492188 62.050781 67.585938 61.960938 67.675781 C 61.554688 68.085938 61.132812 68.394531 60.644531 68.703125 C 60.613281 68.738281 60.613281 68.738281 60.578125 68.769531 C 60.390625 68.78125 60.390625 68.78125 60.191406 68.769531 C 60.015625 68.597656 60.039062 68.511719 60.035156 68.269531 C 60.046875 67.757812 60.167969 67.304688 60.320312 66.820312 C 60.335938 66.769531 60.351562 66.71875 60.367188 66.667969 C 60.917969 64.832031 61.859375 62.242188 63.570312 61.164062 C 63.835938 61.078125 64.074219 61.058594 64.351562 61.101562 Z M 64.351562 61.101562 "/>
<path style=" stroke:none;fill-rule:nonzero;fill:rgb(92.941177%,89.803922%,85.882354%);fill-opacity:1;" d="M 69.894531 93.488281 C 70.367188 93.816406 70.804688 94.320312 70.914062 94.898438 C 70.992188 95.613281 70.875 96.175781 70.464844 96.769531 C 70.085938 97.234375 69.566406 97.589844 68.964844 97.695312 C 68.140625 97.753906 67.46875 97.652344 66.820312 97.109375 C 66.378906 96.671875 66.160156 96.183594 66.144531 95.558594 C 66.148438 95.09375 66.171875 94.714844 66.429688 94.316406 C 66.457031 94.269531 66.484375 94.226562 66.511719 94.179688 C 67.257812 93.070312 68.773438 92.859375 69.894531 93.488281 Z M 69.894531 93.488281 "/>
<path style=" stroke:none;fill-rule:nonzero;fill:rgb(47.058824%,30.588236%,22.352941%);fill-opacity:1;" d="M 71.371094 93.273438 C 71.703125 93.269531 72.035156 93.265625 72.367188 93.261719 C 72.480469 93.257812 72.59375 93.257812 72.707031 93.253906 C 72.871094 93.253906 73.035156 93.25 73.199219 93.25 C 73.25 93.25 73.296875 93.246094 73.347656 93.246094 C 73.714844 93.246094 73.988281 93.332031 74.296875 93.535156 C 74.5625 93.824219 74.703125 94.039062 74.707031 94.4375 C 74.707031 94.503906 74.707031 94.570312 74.707031 94.640625 C 74.675781 94.90625 74.578125 95.074219 74.386719 95.261719 C 74.289062 95.335938 74.195312 95.410156 74.101562 95.484375 C 74.195312 95.828125 74.355469 96.097656 74.546875 96.394531 C 74.574219 96.441406 74.601562 96.484375 74.632812 96.53125 C 74.6875 96.617188 74.746094 96.707031 74.800781 96.792969 C 74.875 96.90625 74.945312 97.019531 75.015625 97.132812 C 75.132812 97.296875 75.207031 97.371094 75.382812 97.460938 C 75.453125 97.496094 75.523438 97.527344 75.59375 97.566406 C 75.59375 97.609375 75.59375 97.652344 75.59375 97.695312 C 75.214844 97.726562 74.929688 97.664062 74.621094 97.433594 C 74.339844 97.15625 74.152344 96.851562 73.960938 96.507812 C 73.6875 95.96875 73.6875 95.96875 73.210938 95.636719 C 73 95.605469 72.816406 95.605469 72.605469 95.613281 C 72.605469 95.882812 72.613281 96.148438 72.617188 96.414062 C 72.617188 96.492188 72.617188 96.566406 72.617188 96.644531 C 72.621094 96.71875 72.621094 96.789062 72.625 96.867188 C 72.625 96.933594 72.625 97 72.628906 97.070312 C 72.65625 97.253906 72.65625 97.253906 72.824219 97.359375 C 72.992188 97.433594 73.140625 97.472656 73.320312 97.5 C 73.320312 97.542969 73.320312 97.585938 73.320312 97.628906 C 72.699219 97.628906 72.074219 97.628906 71.433594 97.628906 C 71.433594 97.585938 71.433594 97.542969 71.433594 97.5 C 71.507812 97.480469 71.582031 97.460938 71.660156 97.441406 C 71.734375 97.417969 71.8125 97.394531 71.890625 97.371094 C 71.976562 97.199219 71.960938 97.074219 71.960938 96.886719 C 71.960938 96.773438 71.960938 96.773438 71.960938 96.660156 C 71.960938 96.578125 71.960938 96.5 71.960938 96.417969 C 71.960938 96.335938 71.960938 96.253906 71.960938 96.167969 C 71.960938 95.949219 71.960938 95.730469 71.960938 95.511719 C 71.957031 95.289062 71.957031 95.066406 71.957031 94.84375 C 71.957031 94.410156 71.957031 93.972656 71.953125 93.535156 C 71.664062 93.46875 71.664062 93.46875 71.371094 93.40625 C 71.371094 93.363281 71.371094 93.320312 71.371094 93.273438 Z M 71.371094 93.273438 "/>
<path style=" stroke:none;fill-rule:nonzero;fill:rgb(46.666667%,30.19608%,21.960784%);fill-opacity:1;" d="M 75.984375 53.429688 C 76.621094 53.714844 77.199219 54.402344 77.546875 54.988281 C 77.65625 55.492188 77.476562 55.984375 77.210938 56.410156 C 76.976562 56.71875 76.707031 56.90625 76.324219 56.96875 C 75.820312 56.996094 75.457031 56.882812 75.074219 56.550781 C 74.664062 56.046875 74.640625 55.558594 74.683594 54.925781 C 74.785156 54.402344 74.957031 53.945312 75.335938 53.558594 C 75.585938 53.394531 75.6875 53.390625 75.984375 53.429688 Z M 75.984375 53.429688 "/>
<path style=" stroke:none;fill-rule:nonzero;fill:rgb(48.235294%,31.764707%,23.529412%);fill-opacity:1;" d="M 49.140625 93.273438 C 49.355469 93.273438 49.570312 93.273438 49.789062 93.273438 C 50.011719 93.777344 50.199219 94.285156 50.378906 94.804688 C 50.414062 94.90625 50.414062 94.90625 50.449219 95.011719 C 50.546875 95.296875 50.644531 95.578125 50.742188 95.863281 C 50.8125 96.074219 50.886719 96.285156 50.957031 96.496094 C 50.980469 96.558594 51 96.625 51.023438 96.691406 C 51.140625 97.023438 51.226562 97.25 51.546875 97.433594 C 51.640625 97.46875 51.640625 97.46875 51.738281 97.5 C 51.738281 97.542969 51.738281 97.585938 51.738281 97.628906 C 51.117188 97.628906 50.496094 97.628906 49.855469 97.628906 C 49.855469 97.585938 49.855469 97.542969 49.855469 97.5 C 50.046875 97.457031 50.242188 97.414062 50.441406 97.371094 C 50.507812 97.101562 50.503906 97.046875 50.410156 96.800781 C 50.390625 96.742188 50.371094 96.683594 50.347656 96.625 C 50.328125 96.566406 50.304688 96.503906 50.28125 96.445312 C 50.257812 96.382812 50.238281 96.320312 50.214844 96.257812 C 50.160156 96.109375 50.105469 95.960938 50.050781 95.808594 C 49.621094 95.808594 49.191406 95.808594 48.75 95.808594 C 48.671875 96.019531 48.59375 96.230469 48.519531 96.445312 C 48.496094 96.503906 48.472656 96.5625 48.449219 96.625 C 48.429688 96.683594 48.410156 96.742188 48.386719 96.800781 C 48.367188 96.851562 48.347656 96.90625 48.328125 96.960938 C 48.277344 97.128906 48.277344 97.128906 48.359375 97.371094 C 48.648438 97.433594 48.648438 97.433594 48.945312 97.5 C 48.945312 97.542969 48.945312 97.585938 48.945312 97.628906 C 48.410156 97.628906 47.871094 97.628906 47.320312 97.628906 C 47.320312 97.585938 47.320312 97.542969 47.320312 97.5 C 47.390625 97.480469 47.390625 97.480469 47.464844 97.460938 C 47.859375 97.261719 47.964844 96.84375 48.097656 96.453125 C 48.132812 96.351562 48.132812 96.351562 48.167969 96.246094 C 48.203125 96.140625 48.203125 96.140625 48.238281 96.035156 C 48.316406 95.808594 48.390625 95.582031 48.464844 95.359375 C 48.515625 95.207031 48.566406 95.058594 48.617188 94.90625 C 48.894531 94.09375 48.894531 94.09375 49.140625 93.273438 Z M 49.140625 93.273438 "/>
<path style=" stroke:none;fill-rule:nonzero;fill:rgb(47.843137%,31.764707%,23.529412%);fill-opacity:1;" d="M 61.035156 93.273438 C 61.25 93.273438 61.464844 93.273438 61.683594 93.273438 C 61.875 93.691406 62.039062 94.105469 62.1875 94.539062 C 62.234375 94.667969 62.28125 94.796875 62.324219 94.925781 C 62.394531 95.125 62.464844 95.328125 62.535156 95.527344 C 62.605469 95.722656 62.671875 95.917969 62.742188 96.113281 C 62.761719 96.175781 62.78125 96.234375 62.804688 96.296875 C 62.980469 96.90625 62.980469 96.90625 63.363281 97.378906 C 63.5 97.441406 63.5 97.441406 63.699219 97.5 C 63.699219 97.542969 63.699219 97.585938 63.699219 97.628906 C 63.054688 97.628906 62.414062 97.628906 61.75 97.628906 C 61.75 97.585938 61.75 97.542969 61.75 97.5 C 61.941406 97.457031 62.136719 97.414062 62.335938 97.371094 C 62.402344 97.125 62.398438 96.980469 62.308594 96.742188 C 62.289062 96.695312 62.269531 96.644531 62.25 96.59375 C 62.226562 96.53125 62.203125 96.46875 62.175781 96.40625 C 62.101562 96.210938 62.023438 96.011719 61.945312 95.808594 C 61.515625 95.808594 61.085938 95.808594 60.644531 95.808594 C 60.570312 96.023438 60.492188 96.234375 60.417969 96.449219 C 60.394531 96.507812 60.375 96.570312 60.351562 96.628906 C 60.332031 96.6875 60.3125 96.746094 60.289062 96.804688 C 60.269531 96.859375 60.25 96.914062 60.230469 96.96875 C 60.179688 97.117188 60.179688 97.117188 60.191406 97.304688 C 60.414062 97.453125 60.574219 97.46875 60.839844 97.5 C 60.839844 97.542969 60.839844 97.585938 60.839844 97.628906 C 60.304688 97.628906 59.765625 97.628906 59.214844 97.628906 C 59.214844 97.585938 59.214844 97.542969 59.214844 97.5 C 59.285156 97.476562 59.355469 97.453125 59.429688 97.429688 C 59.632812 97.34375 59.667969 97.3125 59.78125 97.105469 C 59.8125 97.023438 59.839844 96.941406 59.863281 96.859375 C 59.878906 96.8125 59.894531 96.769531 59.910156 96.722656 C 59.945312 96.621094 59.976562 96.523438 60.007812 96.421875 C 60.0625 96.261719 60.117188 96.097656 60.175781 95.933594 C 60.277344 95.644531 60.375 95.355469 60.476562 95.066406 C 60.535156 94.886719 60.597656 94.707031 60.660156 94.523438 C 60.699219 94.410156 60.738281 94.292969 60.777344 94.179688 C 60.796875 94.125 60.816406 94.070312 60.832031 94.015625 C 60.917969 93.769531 60.992188 93.53125 61.035156 93.273438 Z M 61.035156 93.273438 "/>
<path style=" stroke:none;fill-rule:nonzero;fill:rgb(47.843137%,31.37255%,23.529412%);fill-opacity:1;" d="M 69.894531 93.488281 C 70.367188 93.816406 70.804688 94.320312 70.914062 94.898438 C 70.992188 95.613281 70.875 96.175781 70.464844 96.769531 C 70.085938 97.234375 69.566406 97.589844 68.964844 97.695312 C 68.140625 97.753906 67.46875 97.652344 66.820312 97.109375 C 66.378906 96.671875 66.160156 96.183594 66.144531 95.558594 C 66.148438 95.09375 66.171875 94.714844 66.429688 94.316406 C 66.457031 94.269531 66.484375 94.226562 66.511719 94.179688 C 67.257812 93.070312 68.773438 92.859375 69.894531 93.488281 Z M 67.179688 93.976562 C 66.792969 94.574219 66.734375 95.179688 66.820312 95.875 C 66.996094 96.550781 67.339844 97.019531 67.9375 97.375 C 68.296875 97.558594 68.683594 97.550781 69.070312 97.460938 C 69.582031 97.285156 69.855469 96.96875 70.125 96.515625 C 70.351562 95.945312 70.375 95.179688 70.15625 94.609375 C 69.90625 94.082031 69.605469 93.714844 69.074219 93.464844 C 68.382812 93.230469 67.640625 93.410156 67.179688 93.976562 Z M 67.179688 93.976562 "/>
<path style=" stroke:none;fill-rule:nonzero;fill:rgb(49.411765%,33.725491%,25.882354%);fill-opacity:1;" d="M 75.855469 93.273438 C 76.289062 93.273438 76.722656 93.273438 77.15625 93.269531 C 77.304688 93.269531 77.453125 93.269531 77.601562 93.269531 C 77.8125 93.269531 78.023438 93.269531 78.234375 93.269531 C 78.300781 93.269531 78.367188 93.269531 78.4375 93.269531 C 78.496094 93.269531 78.558594 93.269531 78.621094 93.269531 C 78.675781 93.265625 78.730469 93.265625 78.785156 93.265625 C 78.910156 93.273438 78.910156 93.273438 78.976562 93.339844 C 78.980469 93.503906 78.980469 93.667969 78.980469 93.832031 C 78.980469 93.878906 78.976562 93.925781 78.976562 93.972656 C 78.976562 94.085938 78.976562 94.199219 78.976562 94.316406 C 78.933594 94.316406 78.890625 94.316406 78.84375 94.316406 C 78.832031 94.273438 78.816406 94.230469 78.804688 94.1875 C 78.789062 94.136719 78.769531 94.082031 78.75 94.027344 C 78.734375 93.972656 78.71875 93.917969 78.699219 93.863281 C 78.660156 93.734375 78.660156 93.734375 78.585938 93.664062 C 78.480469 93.65625 78.371094 93.648438 78.265625 93.644531 C 78.207031 93.640625 78.148438 93.640625 78.089844 93.636719 C 78.015625 93.632812 77.941406 93.632812 77.867188 93.628906 C 77.632812 93.617188 77.398438 93.609375 77.15625 93.601562 C 77.15625 94.136719 77.15625 94.671875 77.15625 95.226562 C 77.796875 95.191406 77.796875 95.191406 78.453125 95.160156 C 78.519531 95.011719 78.582031 94.859375 78.648438 94.703125 C 78.691406 94.703125 78.734375 94.703125 78.78125 94.703125 C 78.78125 95.175781 78.78125 95.648438 78.78125 96.136719 C 78.738281 96.136719 78.695312 96.136719 78.648438 96.136719 C 78.632812 96.0625 78.613281 95.988281 78.59375 95.910156 C 78.570312 95.835938 78.542969 95.757812 78.519531 95.679688 C 78.371094 95.605469 78.273438 95.601562 78.105469 95.59375 C 78.058594 95.59375 78.007812 95.589844 77.957031 95.585938 C 77.894531 95.585938 77.828125 95.582031 77.765625 95.578125 C 77.5625 95.570312 77.363281 95.558594 77.15625 95.550781 C 77.175781 96.109375 77.199219 96.664062 77.21875 97.238281 C 77.472656 97.246094 77.722656 97.257812 77.984375 97.265625 C 78.0625 97.269531 78.140625 97.269531 78.222656 97.273438 C 78.414062 97.277344 78.589844 97.277344 78.78125 97.238281 C 78.964844 97.066406 78.964844 97.066406 79.039062 96.851562 C 79.066406 96.789062 79.09375 96.726562 79.121094 96.664062 C 79.136719 96.617188 79.152344 96.570312 79.171875 96.523438 C 79.191406 96.523438 79.214844 96.523438 79.234375 96.523438 C 79.238281 96.648438 79.238281 96.769531 79.238281 96.894531 C 79.238281 96.964844 79.242188 97.03125 79.242188 97.101562 C 79.234375 97.304688 79.234375 97.304688 79.171875 97.628906 C 78.011719 97.628906 76.851562 97.628906 75.660156 97.628906 C 75.660156 97.585938 75.660156 97.542969 75.660156 97.5 C 75.710938 97.492188 75.761719 97.484375 75.8125 97.472656 C 75.914062 97.457031 75.914062 97.457031 76.011719 97.4375 C 76.078125 97.429688 76.144531 97.417969 76.210938 97.40625 C 76.371094 97.386719 76.371094 97.386719 76.441406 97.304688 C 76.445312 97.191406 76.449219 97.078125 76.449219 96.964844 C 76.449219 96.894531 76.449219 96.820312 76.449219 96.746094 C 76.449219 96.667969 76.449219 96.589844 76.449219 96.507812 C 76.449219 96.425781 76.453125 96.347656 76.453125 96.261719 C 76.453125 96.09375 76.453125 95.921875 76.453125 95.753906 C 76.453125 95.578125 76.453125 95.402344 76.453125 95.226562 C 76.453125 94.976562 76.453125 94.722656 76.453125 94.472656 C 76.457031 94.394531 76.457031 94.3125 76.457031 94.234375 C 76.457031 94.160156 76.457031 94.085938 76.457031 94.011719 C 76.457031 93.917969 76.457031 93.917969 76.457031 93.820312 C 76.453125 93.652344 76.453125 93.652344 76.308594 93.535156 C 76.160156 93.488281 76.007812 93.445312 75.855469 93.40625 C 75.855469 93.363281 75.855469 93.320312 75.855469 93.273438 Z M 75.855469 93.273438 "/>
<path style=" stroke:none;fill-rule:nonzero;fill:rgb(49.411765%,33.333334%,25.490198%);fill-opacity:1;" d="M 63.828125 93.273438 C 64.386719 93.273438 64.945312 93.273438 65.519531 93.273438 C 65.519531 93.316406 65.519531 93.359375 65.519531 93.40625 C 65.441406 93.433594 65.441406 93.433594 65.363281 93.464844 C 65.203125 93.519531 65.203125 93.519531 65.128906 93.601562 C 65.125 93.734375 65.121094 93.867188 65.121094 94 C 65.121094 94.085938 65.121094 94.171875 65.121094 94.257812 C 65.121094 94.328125 65.121094 94.328125 65.121094 94.398438 C 65.121094 94.59375 65.121094 94.789062 65.117188 94.984375 C 65.117188 95.347656 65.113281 95.707031 65.113281 96.070312 C 65.113281 96.324219 65.113281 96.574219 65.109375 96.828125 C 65.109375 96.921875 65.109375 97.019531 65.109375 97.113281 C 65.113281 97.921875 64.988281 98.6875 64.402344 99.285156 C 64.089844 99.546875 63.777344 99.613281 63.378906 99.601562 C 63.195312 99.574219 63.066406 99.5 62.921875 99.386719 C 62.976562 99.066406 62.976562 99.066406 63.050781 98.996094 C 63.402344 98.964844 63.402344 98.964844 63.5625 99.09375 C 63.777344 99.242188 63.960938 99.203125 64.21875 99.191406 C 64.339844 98.882812 64.367188 98.605469 64.367188 98.28125 C 64.367188 98.230469 64.367188 98.179688 64.367188 98.128906 C 64.371094 97.960938 64.371094 97.796875 64.371094 97.628906 C 64.371094 97.511719 64.371094 97.398438 64.371094 97.28125 C 64.371094 97.039062 64.371094 96.796875 64.371094 96.554688 C 64.371094 96.246094 64.371094 95.933594 64.371094 95.625 C 64.375 95.386719 64.375 95.148438 64.375 94.910156 C 64.375 94.792969 64.375 94.679688 64.375 94.566406 C 64.375 94.40625 64.375 94.246094 64.375 94.085938 C 64.375 94.039062 64.375 93.992188 64.375 93.941406 C 64.375 93.796875 64.375 93.796875 64.351562 93.601562 C 64.160156 93.472656 64.050781 93.441406 63.828125 93.40625 C 63.828125 93.363281 63.828125 93.320312 63.828125 93.273438 Z M 63.828125 93.273438 "/>
<path style=" stroke:none;fill-rule:nonzero;fill:rgb(47.843137%,31.37255%,23.529412%);fill-opacity:1;" d="M 55.898438 93.273438 C 56.886719 93.273438 57.875 93.273438 58.890625 93.273438 C 58.890625 93.554688 58.890625 93.832031 58.890625 94.121094 C 58.847656 94.121094 58.804688 94.121094 58.761719 94.121094 C 58.742188 94.070312 58.722656 94.019531 58.703125 93.964844 C 58.640625 93.789062 58.640625 93.789062 58.5 93.664062 C 58.335938 93.640625 58.335938 93.640625 58.144531 93.636719 C 58.042969 93.632812 58.042969 93.632812 57.933594 93.628906 C 57.859375 93.628906 57.789062 93.625 57.710938 93.625 C 57.601562 93.621094 57.601562 93.621094 57.488281 93.617188 C 57.304688 93.609375 57.121094 93.605469 56.941406 93.601562 C 56.960938 94.09375 56.984375 94.585938 57.003906 95.09375 C 57.238281 95.097656 57.472656 95.101562 57.710938 95.101562 C 57.820312 95.105469 57.820312 95.105469 57.933594 95.105469 C 57.992188 95.105469 58.050781 95.105469 58.109375 95.109375 C 58.167969 95.109375 58.226562 95.109375 58.289062 95.109375 C 58.449219 95.109375 58.449219 95.109375 58.566406 94.964844 C 58.605469 94.832031 58.605469 94.832031 58.628906 94.703125 C 58.671875 94.703125 58.714844 94.703125 58.761719 94.703125 C 58.761719 95.089844 58.761719 95.476562 58.761719 95.875 C 58.71875 95.875 58.675781 95.875 58.628906 95.875 C 58.597656 95.683594 58.597656 95.683594 58.566406 95.484375 C 58.050781 95.484375 57.535156 95.484375 57.003906 95.484375 C 57 95.761719 56.996094 96.039062 56.992188 96.316406 C 56.992188 96.398438 56.988281 96.476562 56.988281 96.558594 C 56.988281 96.632812 56.988281 96.707031 56.984375 96.785156 C 56.984375 96.855469 56.984375 96.925781 56.984375 96.996094 C 56.992188 97.175781 56.992188 97.175781 57.089844 97.292969 C 57.246094 97.402344 57.410156 97.449219 57.589844 97.5 C 57.589844 97.542969 57.589844 97.585938 57.589844 97.628906 C 57.03125 97.628906 56.472656 97.628906 55.898438 97.628906 C 55.898438 97.585938 55.898438 97.542969 55.898438 97.5 C 55.964844 97.472656 56.027344 97.441406 56.09375 97.414062 C 56.207031 97.347656 56.207031 97.347656 56.289062 97.238281 C 56.347656 96.96875 56.335938 96.695312 56.328125 96.417969 C 56.328125 96.339844 56.328125 96.257812 56.328125 96.175781 C 56.324219 95.960938 56.320312 95.75 56.316406 95.535156 C 56.3125 95.316406 56.3125 95.097656 56.308594 94.882812 C 56.304688 94.453125 56.296875 94.027344 56.289062 93.601562 C 56.160156 93.535156 56.03125 93.472656 55.898438 93.40625 C 55.898438 93.363281 55.898438 93.320312 55.898438 93.273438 Z M 55.898438 93.273438 "/>
<path style=" stroke:none;fill-rule:nonzero;fill:rgb(47.843137%,31.37255%,23.137255%);fill-opacity:1;" d="M 51.933594 93.273438 C 52.644531 93.273438 53.351562 93.273438 54.078125 93.273438 C 54.078125 93.316406 54.078125 93.359375 54.078125 93.40625 C 54.027344 93.414062 53.976562 93.421875 53.925781 93.429688 C 53.859375 93.441406 53.792969 93.453125 53.726562 93.464844 C 53.660156 93.476562 53.59375 93.488281 53.527344 93.5 C 53.371094 93.519531 53.371094 93.519531 53.300781 93.601562 C 53.292969 93.714844 53.292969 93.828125 53.292969 93.941406 C 53.292969 94.050781 53.292969 94.050781 53.292969 94.164062 C 53.292969 94.242188 53.292969 94.320312 53.292969 94.402344 C 53.292969 94.523438 53.292969 94.523438 53.292969 94.648438 C 53.292969 94.863281 53.292969 95.078125 53.296875 95.292969 C 53.296875 95.511719 53.296875 95.730469 53.296875 95.949219 C 53.296875 96.378906 53.296875 96.808594 53.300781 97.238281 C 53.554688 97.246094 53.804688 97.253906 54.058594 97.257812 C 54.132812 97.257812 54.203125 97.261719 54.277344 97.261719 C 54.691406 97.273438 54.691406 97.273438 55.066406 97.117188 C 55.125 97.046875 55.125 97.046875 55.183594 96.980469 C 55.21875 96.945312 55.253906 96.90625 55.289062 96.871094 C 55.3125 96.835938 55.339844 96.804688 55.367188 96.769531 C 55.414062 96.710938 55.460938 96.652344 55.511719 96.589844 C 55.53125 96.632812 55.554688 96.675781 55.574219 96.71875 C 55.425781 97.019531 55.273438 97.320312 55.121094 97.628906 C 54.070312 97.628906 53.019531 97.628906 51.933594 97.628906 C 51.933594 97.585938 51.933594 97.542969 51.933594 97.5 C 52.066406 97.472656 52.199219 97.445312 52.328125 97.417969 C 52.480469 97.375 52.480469 97.375 52.585938 97.175781 C 52.605469 97.015625 52.605469 97.015625 52.605469 96.832031 C 52.605469 96.765625 52.605469 96.695312 52.609375 96.621094 C 52.609375 96.546875 52.609375 96.472656 52.609375 96.394531 C 52.609375 96.316406 52.609375 96.242188 52.609375 96.160156 C 52.613281 95.996094 52.613281 95.835938 52.613281 95.671875 C 52.613281 95.421875 52.617188 95.171875 52.621094 94.921875 C 52.621094 94.761719 52.621094 94.601562 52.621094 94.445312 C 52.621094 94.371094 52.625 94.292969 52.625 94.21875 C 52.625 94.148438 52.625 94.078125 52.625 94.007812 C 52.625 93.945312 52.625 93.882812 52.625 93.820312 C 52.597656 93.648438 52.597656 93.648438 52.429688 93.550781 C 52.265625 93.472656 52.117188 93.429688 51.933594 93.40625 C 51.933594 93.363281 51.933594 93.320312 51.933594 93.273438 Z M 51.933594 93.273438 "/>
<path style=" stroke:none;fill-rule:nonzero;fill:rgb(48.235294%,32.156864%,23.921569%);fill-opacity:1;" d="M 82.160156 93.339844 C 82.242188 93.503906 82.230469 93.621094 82.230469 93.804688 C 82.226562 93.863281 82.226562 93.921875 82.226562 93.980469 C 82.226562 94.027344 82.226562 94.074219 82.226562 94.121094 C 82.105469 94.003906 82.011719 93.898438 81.914062 93.761719 C 81.722656 93.542969 81.542969 93.429688 81.25 93.386719 C 80.957031 93.375 80.765625 93.417969 80.535156 93.601562 C 80.433594 93.800781 80.453125 93.960938 80.46875 94.183594 C 80.675781 94.589844 81.011719 94.839844 81.375 95.101562 C 82.242188 95.726562 82.242188 95.726562 82.421875 96.265625 C 82.445312 96.644531 82.417969 96.898438 82.226562 97.238281 C 81.859375 97.605469 81.515625 97.714844 81.007812 97.714844 C 80.597656 97.710938 80.269531 97.640625 79.886719 97.5 C 79.863281 97.199219 79.84375 96.898438 79.820312 96.589844 C 79.863281 96.589844 79.90625 96.589844 79.949219 96.589844 C 80.011719 96.691406 80.074219 96.796875 80.128906 96.902344 C 80.296875 97.1875 80.398438 97.347656 80.730469 97.433594 C 81.074219 97.472656 81.347656 97.496094 81.648438 97.3125 C 81.851562 97.082031 81.859375 96.910156 81.851562 96.609375 C 81.808594 96.238281 81.53125 96.011719 81.257812 95.785156 C 81.09375 95.660156 80.925781 95.542969 80.757812 95.425781 C 80.414062 95.175781 80.089844 94.925781 79.949219 94.511719 C 79.914062 94.214844 79.882812 93.925781 80.019531 93.652344 C 80.578125 92.960938 81.402344 93.070312 82.160156 93.339844 Z M 82.160156 93.339844 "/>
<path style=" stroke:none;fill-rule:nonzero;fill:rgb(92.54902%,89.019608%,84.705883%);fill-opacity:1;" d="M 72.605469 93.40625 C 73.519531 93.40625 73.519531 93.40625 73.839844 93.664062 C 74.085938 93.980469 74.140625 94.21875 74.121094 94.617188 C 74.078125 94.925781 73.96875 95.105469 73.738281 95.308594 C 73.316406 95.601562 73.332031 95.484375 72.605469 95.484375 C 72.605469 94.796875 72.605469 94.113281 72.605469 93.40625 Z M 72.605469 93.40625 "/>
<path style=" stroke:none;fill-rule:nonzero;fill:rgb(91.37255%,87.450981%,83.137256%);fill-opacity:1;" d="M 61.230469 93.988281 C 61.273438 93.988281 61.316406 93.988281 61.359375 93.988281 C 61.4375 94.191406 61.511719 94.394531 61.585938 94.597656 C 61.609375 94.65625 61.632812 94.714844 61.652344 94.773438 C 61.671875 94.828125 61.695312 94.886719 61.714844 94.941406 C 61.734375 94.992188 61.753906 95.042969 61.773438 95.097656 C 61.816406 95.226562 61.816406 95.226562 61.816406 95.355469 C 61.492188 95.355469 61.171875 95.355469 60.839844 95.355469 C 60.867188 94.863281 61.042969 94.445312 61.230469 93.988281 Z M 61.230469 93.988281 "/>
<path style=" stroke:none;fill-rule:nonzero;fill:rgb(91.37255%,87.843138%,83.92157%);fill-opacity:1;" d="M 49.335938 93.925781 C 49.558594 94.039062 49.589844 94.304688 49.667969 94.53125 C 49.6875 94.582031 49.703125 94.628906 49.722656 94.683594 C 49.808594 94.925781 49.855469 95.089844 49.855469 95.355469 C 49.535156 95.355469 49.210938 95.355469 48.878906 95.355469 C 49.007812 94.867188 49.15625 94.394531 49.335938 93.925781 Z M 49.335938 93.925781 "/>
</g>
</svg>
