<?xml version="1.0" encoding="UTF-8"?>
<svg version="1.1" xmlns="http://www.w3.org/2000/svg" width="2000" height="2000">
<path d="M0 0 C660 0 1320 0 2000 0 C2000 660 2000 1320 2000 2000 C1340 2000 680 2000 0 2000 C0 1340 0 680 0 0 Z " fill="#FEFEFE" transform="translate(0,0)"/>
<path d="M0 0 C1.44754141 0.1254126 2.89513477 0.25022676 4.34277344 0.37451172 C38.30354205 3.32795943 71.92510458 8.70333078 105 17 C106.58047986 17.38643774 108.16119377 17.77192003 109.7421875 18.15625 C113.50207555 19.07739101 117.25472051 20.02071134 121 21 C121.74483643 21.19352051 122.48967285 21.38704102 123.25708008 21.58642578 C179.65757695 36.57157346 234.30871603 59.10498765 285 88 C285.83305664 88.46841309 286.66611328 88.93682617 287.52441406 89.41943359 C300.0358727 96.47662574 312.05479728 104.22179826 324 112.1875 C324.69251862 112.6490448 325.38503723 113.1105896 326.09854126 113.58612061 C338.74035972 122.02851767 351.23166601 130.66419643 363.1875 140.0625 C363.9508667 140.65973877 364.7142334 141.25697754 365.50073242 141.87231445 C371.40159139 146.50133416 377.24512335 151.1900809 383 156 C383.51369141 156.42877441 384.02738281 156.85754883 384.55664062 157.29931641 C390.97315717 162.66353946 397.30789688 168.09768692 403.48828125 173.734375 C405.58368675 175.62447639 407.6992316 177.48394191 409.828125 179.3359375 C419.92349226 188.15482493 429.56874136 197.47824891 439.0625 206.9375 C439.75206787 207.62247559 440.44163574 208.30745117 441.15209961 209.01318359 C445.04616396 212.919084 448.75157823 216.93345964 452.35424805 221.10913086 C454.7915349 223.90942558 457.33560303 226.60517723 459.875 229.3125 C464.35742274 234.13101711 468.6143573 239.07182933 472.734375 244.20703125 C474.75887274 246.7027483 476.83266253 249.14705763 478.9309082 251.58081055 C485.68368619 259.43379374 491.87705269 267.65105385 498 276 C498.76135254 277.02988037 498.76135254 277.02988037 499.53808594 278.08056641 C521.0396713 307.18570924 540.34652522 337.8720575 557 370 C557.59522461 371.14662109 558.19044922 372.29324219 558.80371094 373.47460938 C582.89616702 420.06369418 601.52425654 469.02652689 614 520 C614.34756348 521.40886475 614.34756348 521.40886475 614.70214844 522.84619141 C616.18723045 528.885743 617.60390223 534.93931888 619 541 C619.19813293 541.8553685 619.39626587 542.710737 619.60040283 543.59202576 C622.7691006 557.36956195 625.28537332 571.14645035 627.25805664 585.14428711 C627.68906304 588.19857637 628.13361884 591.25066945 628.58007812 594.30273438 C635.82444651 644.38924089 637.51329248 695.57201603 633 746 C632.88785156 747.32862061 632.88785156 747.32862061 632.7734375 748.68408203 C632.3617457 753.51669577 631.8686475 758.33509428 631.31835938 763.15380859 C631.08599419 765.23119609 630.86488208 767.30985119 630.65039062 769.38916016 C626.35972627 810.91821733 617.8541909 852.27044792 605 892 C604.5818825 893.31023286 604.16426627 894.62062576 603.74707031 895.93115234 C593.56914653 927.83263649 581.60281992 958.8443967 567 989 C566.45375977 990.1348584 565.90751953 991.2697168 565.34472656 992.43896484 C557.74634118 1008.15804333 549.56083242 1023.38701524 540.578125 1038.35644531 C539.11508086 1040.80722531 537.6764711 1043.26998722 536.25 1045.7421875 C531.23463475 1054.4254777 525.94163909 1062.85108558 520.27978516 1071.12744141 C518.98526958 1073.02155328 517.70112913 1074.92240038 516.41796875 1076.82421875 C506.72032362 1091.135185 496.55211049 1105.08463764 485.55004883 1118.42260742 C482.34875945 1122.3085173 479.28814082 1126.2510113 476.3125 1130.3125 C471.9238814 1136.24720075 467.01755432 1141.59712431 462 1147 C460.80605361 1148.34848642 459.61791863 1149.70215612 458.4375 1151.0625 C457.29229305 1152.37554658 456.14637435 1153.68797251 455 1155 C454.42588379 1155.6609668 453.85176758 1156.32193359 453.26025391 1157.00292969 C446.50543031 1164.6495841 439.31151087 1171.84032497 432.08862305 1179.04174805 C429.93487478 1181.19011866 427.78654774 1183.34380694 425.63867188 1185.49804688 C424.24771646 1186.88834168 422.85645097 1188.27832636 421.46484375 1189.66796875 C420.83440659 1190.30043015 420.20396942 1190.93289154 419.5544281 1191.58451843 C415.74852169 1195.37079044 411.82775572 1198.97202482 407.76107788 1202.47703552 C405.3549634 1204.55782191 403.02396319 1206.71658766 400.6875 1208.875 C396.27781527 1212.8925787 391.76577023 1216.72665604 387.12109375 1220.46875 C384.77711049 1222.35804498 382.46463263 1224.28147352 380.16015625 1226.21875 C370.81855303 1234.0482904 361.21908603 1241.34380149 351.27050781 1248.38232422 C348.98711644 1250.00917919 346.72182915 1251.65845148 344.4609375 1253.31640625 C291.95736175 1291.77826218 233.27683972 1321.39886969 172 1343 C170.76830078 1343.43973145 169.53660156 1343.87946289 168.26757812 1344.33251953 C123.94420205 1360.14817039 76.90663785 1371.9842869 30 1377 C28.85273437 1377.1232666 27.70546875 1377.2465332 26.5234375 1377.37353516 C-30.06214718 1383.3117998 -87.4988746 1384.69133587 -144 1377 C-145.32272598 1376.82400874 -146.64548119 1376.64823708 -147.96826172 1376.47265625 C-237.99988857 1364.43472259 -326.87879664 1335.20322751 -417 1281 C-418.45288346 1280.11679005 -419.90598056 1279.23393135 -421.359375 1278.3515625 C-444.60952959 1264.13635171 -466.76707295 1248.06508268 -488 1231 C-488.928125 1230.25492188 -489.85625 1229.50984375 -490.8125 1228.7421875 C-501.52985881 1220.04991102 -511.97843578 1211.06182842 -522.0859375 1201.66796875 C-524.25894563 1199.67847203 -526.45190059 1197.74406202 -528.68383789 1195.82324219 C-532.94836772 1192.09602879 -536.97486132 1188.16984384 -540.97265625 1184.16015625 C-541.69940048 1183.43436874 -542.42614471 1182.70858124 -543.1749115 1181.96080017 C-544.69962296 1180.43676444 -546.2230915 1178.91148431 -547.74536133 1177.38500977 C-550.05633891 1175.06867537 -552.37260771 1172.75772922 -554.68945312 1170.44726562 C-556.1800082 1168.95604966 -557.670253 1167.46452347 -559.16015625 1165.97265625 C-559.84263931 1165.29219742 -560.52512238 1164.61173859 -561.22828674 1163.91065979 C-565.68382333 1159.43365999 -569.88746945 1154.79256032 -574 1150 C-575.06932301 1148.77387593 -576.13949895 1147.5484946 -577.2109375 1146.32421875 C-598.50286093 1121.88309288 -618.36130151 1096.20769242 -636 1069 C-636.556875 1068.14535156 -637.11375 1067.29070312 -637.6875 1066.41015625 C-646.27620629 1053.20118609 -654.38518496 1039.79282858 -662 1026 C-662.57331055 1024.96697754 -663.14662109 1023.93395508 -663.73730469 1022.86962891 C-683.56831008 986.9958623 -699.4906981 949.8678405 -712.91113281 911.140625 C-713.90735666 908.26721164 -714.91768117 905.39913001 -715.9296875 902.53125 C-720.40894357 889.66010524 -723.86489153 876.5789181 -727.15917969 863.36035156 C-727.97012438 860.1193984 -728.7985847 856.88346597 -729.6328125 853.6484375 C-734.34504354 835.28008495 -738.01787865 816.92686748 -740.68847656 798.15527344 C-741.09712622 795.32803269 -741.5483977 792.50816354 -742 789.6875 C-742.33543655 787.45864885 -742.66852973 785.22944446 -743 783 C-743.10812012 782.31486328 -743.21624023 781.62972656 -743.32763672 780.92382812 C-755.21350721 704.68469174 -751.61631885 623.30208528 -735 548 C-734.58693604 546.10556152 -734.58693604 546.10556152 -734.16552734 544.17285156 C-717.55679177 468.48251606 -688.53379837 396.04675175 -648 330 C-647.44151367 329.08976074 -646.88302734 328.17952148 -646.30761719 327.24169922 C-623.52871277 290.30086432 -597.0596238 255.45148017 -567.51586914 223.65942383 C-566.41330515 222.45244566 -565.32588407 221.2315811 -564.24780273 220.00268555 C-557.36754487 212.19903546 -550.026011 204.87446547 -542.66137695 197.53100586 C-540.43520138 195.31020693 -538.21444368 193.08409034 -535.99414062 190.85742188 C-534.55761229 189.42155416 -533.12077389 187.98599657 -531.68359375 186.55078125 C-531.03128281 185.89644608 -530.37897186 185.2421109 -529.70689392 184.56794739 C-525.84043843 180.72080582 -521.86352536 177.05529223 -517.73202515 173.49391174 C-515.51208134 171.57915887 -513.35113426 169.60296337 -511.1875 167.625 C-505.93824117 162.89428498 -500.50441004 158.42916306 -495 154 C-493.87864698 153.08625558 -492.75756489 152.17217861 -491.63671875 151.2578125 C-469.56383541 133.33113334 -446.2490548 116.84387925 -422 102 C-421.03932617 101.4107373 -420.07865234 100.82147461 -419.08886719 100.21435547 C-340.74535992 52.30726334 -255.14881703 20.31630734 -119 0 C-117.16526123 -0.17789062 -117.16526123 -0.17789062 -115.29345703 -0.359375 C-77.23804154 -3.82599276 -38.03323553 -3.48502171 0 0 Z " fill="#EEE6DC" transform="translate(1057,310)"/>
<path d="M0 0 C3.6169892 0.00461093 7.23364037 -0.00224 10.85058594 -0.02050781 C31.12438476 -0.12181292 51.26911293 0.25500966 71.49511719 1.73364258 C72.37392925 1.79787603 73.25274132 1.86210949 74.15818405 1.92828941 C85.40798782 2.76881736 96.57493778 3.87410642 107.71386719 5.69848633 C110.93261626 6.21270509 114.07968515 6.57793859 117.32714844 6.81567383 C123.8474032 7.34814456 130.24300365 8.57747474 136.66699219 9.77514648 C140.11470243 10.41551817 143.56474976 11.04266931 147.01464844 11.67114258 C168.74746044 15.64898218 190.1990642 20.09599852 211.39648438 26.38208008 C214.36307094 27.25283745 217.33469576 28.10423006 220.3086853 28.9493103 C281.38488197 46.31799244 340.83995765 71.02660201 395.57714844 103.31567383 C396.45967285 103.83210449 397.34219727 104.34853516 398.25146484 104.88061523 C423.23342884 119.55587464 447.54791663 135.73167159 470.57714844 153.31567383 C472.08721663 154.45676014 473.59763923 155.59737756 475.10839844 156.73754883 C483.06965498 162.76538198 490.92206204 168.90104669 498.57714844 175.31567383 C499.09229004 175.74589844 499.60743164 176.17612305 500.13818359 176.61938477 C506.64302444 182.05713069 513.05145732 187.57808671 519.32714844 193.28051758 C521.32704219 195.08944926 523.34984276 196.86459184 525.38964844 198.62817383 C536.13368066 208.01839278 546.34690796 217.92342287 556.41796875 228.02612305 C558.46728355 230.08084891 560.52196106 232.13010486 562.57714844 234.17895508 C563.90819869 235.51066548 565.23893905 236.84268571 566.56933594 238.17504883 C567.17051239 238.77420105 567.77168884 239.37335327 568.39108276 239.99066162 C572.64870262 244.27149448 576.63290538 248.746438 580.57714844 253.31567383 C581.96892246 254.86100611 583.36417158 256.40322419 584.76464844 257.94067383 C598.76694042 273.46962115 611.86670372 289.71984977 624.57714844 306.31567383 C625.11936035 307.02095215 625.66157227 307.72623047 626.22021484 308.45288086 C649.96539255 339.49532162 670.94294358 373.07104943 689.15429688 407.62133789 C690.48346297 410.13826944 691.82803484 412.64617455 693.17871094 415.15161133 C710.79461356 447.96880809 725.29749499 482.17898771 737.57714844 517.31567383 C737.96708984 518.42507324 738.35703125 519.53447266 738.75878906 520.67749023 C748.42907765 548.36631059 756.49237811 576.62367724 762.57714844 605.31567383 C762.89111572 606.76852783 762.89111572 606.76852783 763.21142578 608.25073242 C770.75460881 643.36028705 776.63099293 679.42030421 778.67089844 715.29223633 C778.73464283 716.3983086 778.73464283 716.3983086 778.79967499 717.52672577 C779.77206914 734.82484349 779.88441726 752.11159826 779.83789062 769.43286133 C779.82646078 773.72007285 779.83330515 778.00703676 779.84478188 782.29424 C779.92446374 817.55362198 777.65027759 852.12026334 772.10058594 886.96166992 C771.59066034 890.22909433 771.10990266 893.49935706 770.63964844 896.77270508 C768.3184464 912.79058481 765.18564631 928.54003381 761.57714844 944.31567383 C761.16891846 946.11705811 761.16891846 946.11705811 760.75244141 947.95483398 C757.0778458 964.0599143 752.83581905 979.87962233 747.76953125 995.60180664 C746.67244582 999.01885489 745.59254629 1002.44074208 744.51722717 1005.8646698 C738.28471022 1025.6799913 731.54580202 1045.11871926 723.57714844 1064.31567383 C723.12436523 1065.42040039 722.67158203 1066.52512695 722.20507812 1067.66333008 C705.93032468 1107.25490788 686.09855628 1144.94942771 663.57714844 1181.31567383 C662.60501807 1182.90113566 661.63356192 1184.48701129 660.66308594 1186.07348633 C654.94819428 1195.37393357 648.85411934 1204.38649393 642.57714844 1213.31567383 C642.15965332 1213.91089844 641.7421582 1214.50612305 641.31201172 1215.11938477 C628.93393262 1232.72660081 616.01339755 1250.01447414 601.91040039 1266.28149414 C598.95189209 1269.69519438 596.08011703 1273.15681175 593.26464844 1276.69067383 C588.79563064 1282.20545813 583.95832711 1287.34390092 579.06811523 1292.4831543 C578.46008057 1293.12269043 577.8520459 1293.76222656 577.22558594 1294.42114258 C576.6911084 1294.97954834 576.15663086 1295.5379541 575.60595703 1296.11328125 C573.80394739 1298.06947006 572.06372201 1300.0618991 570.32543945 1302.07446289 C566.69288822 1306.2383573 562.86819218 1310.16943011 558.95605469 1314.06958008 C558.25246323 1314.77412827 557.54887177 1315.47867645 556.82395935 1316.20457458 C555.34700196 1317.6822075 553.86880101 1319.15859839 552.3894043 1320.63378906 C550.14549759 1322.87233864 547.90698139 1325.11617856 545.66894531 1327.3605957 C544.22330226 1328.80557787 542.77734898 1330.25024975 541.33105469 1331.69458008 C540.34317711 1332.685494 540.34317711 1332.685494 539.33534241 1333.69642639 C535.45797036 1337.55462612 531.47275676 1341.23295391 527.32806396 1344.8028717 C524.9246164 1346.87946565 522.5976098 1349.03549646 520.26464844 1351.19067383 C515.77566787 1355.28447591 511.16471368 1359.1703705 506.43652344 1362.98364258 C503.93917419 1365.02041512 501.48502181 1367.09882083 499.04223633 1369.20043945 C491.49667679 1375.67898527 483.65330575 1381.72424089 475.71044922 1387.70581055 C473.66903602 1389.24633225 471.63584853 1390.7970828 469.60449219 1392.35083008 C433.17736065 1420.10309848 393.42040308 1443.70492768 352.57714844 1464.31567383 C350.950271 1465.13720947 350.950271 1465.13720947 349.29052734 1465.9753418 C308.2366422 1486.56396212 264.56361154 1504.15115794 220.13964844 1515.82739258 C216.41076683 1516.81009186 212.70921132 1517.855572 209.01464844 1518.96020508 C177.82639276 1528.21522442 145.70785128 1533.40059644 113.56085205 1538.02789307 C110.7611686 1538.43405003 107.96408987 1538.85696359 105.16699219 1539.28051758 C74.68232287 1543.85498261 44.35741375 1544.50460421 13.58618164 1544.50097656 C9.97122158 1544.50089559 6.35638903 1544.50780726 2.74145508 1544.52148438 C-19.73947627 1544.6051248 -42.00976848 1544.2089297 -64.42285156 1542.31567383 C-65.75478043 1542.20565536 -65.75478043 1542.20565536 -67.11361694 1542.09341431 C-72.01824014 1541.67933906 -76.90711688 1541.18278071 -81.79785156 1540.62817383 C-82.5186792 1540.54708374 -83.23950684 1540.46599365 -83.98217773 1540.38244629 C-137.82775851 1534.24773726 -191.15657237 1521.80001808 -242.42285156 1504.31567383 C-243.40044434 1503.98245117 -244.37803711 1503.64922852 -245.38525391 1503.3059082 C-291.38179631 1487.45125701 -336.45668495 1466.86896761 -378.42285156 1442.31567383 C-379.70168213 1441.56785645 -379.70168213 1441.56785645 -381.00634766 1440.80493164 C-401.39153324 1428.83036183 -421.19271879 1416.06713629 -440.42285156 1402.31567383 C-441.21208008 1401.75460937 -442.00130859 1401.19354492 -442.81445312 1400.61547852 C-467.36002024 1383.16107813 -490.86514661 1364.1224255 -512.86132812 1343.53588867 C-515.57569272 1340.99807547 -518.32933082 1338.52483546 -521.14550781 1336.10009766 C-525.24190242 1332.52116484 -529.11881569 1328.76472775 -532.95800781 1324.91333008 C-533.64035995 1324.23193466 -534.3227121 1323.55053925 -535.02574158 1322.84849548 C-536.45629593 1321.41861642 -537.88560924 1319.98749472 -539.3137207 1318.55517578 C-541.4798423 1316.38369672 -543.6512533 1314.21761058 -545.82324219 1312.05200195 C-547.22265143 1310.65193181 -548.6217504 1309.25155144 -550.02050781 1307.85083008 C-550.65924332 1307.2141188 -551.29797882 1306.57740753 -551.95606995 1305.92140198 C-555.7534142 1302.10457283 -559.36741745 1298.17550486 -562.8809967 1294.09564209 C-565.12483128 1291.50528521 -567.46199096 1289.01089204 -569.79785156 1286.50317383 C-574.0668035 1281.88267834 -578.10316451 1277.12460631 -582.04785156 1272.22192383 C-584.26063772 1269.51417234 -586.52419007 1266.86384412 -588.81518555 1264.22265625 C-594.96732462 1257.12762337 -600.80660158 1249.84215922 -606.42285156 1242.31567383 C-607.19967285 1241.27781738 -607.19967285 1241.27781738 -607.9921875 1240.21899414 C-662.48636979 1167.27377523 -703.96722398 1087.14530495 -761.67285156 851.12817383 C-761.75593567 850.34087891 -761.83901978 849.55358398 -761.92462158 848.74243164 C-763.6728266 832.00465374 -764.59052671 815.43518692 -764.62597656 798.61254883 C-764.62880394 797.68809212 -764.63163132 796.76363541 -764.63454437 795.81116486 C-764.64944189 790.90136952 -764.65872614 785.99160275 -764.66308594 781.08178711 C-764.66743419 777.10675698 -764.68119679 773.13194835 -764.70410156 769.15698242 C-764.84588945 744.0225135 -764.09678917 719.31167119 -761.42285156 694.31567383 C-761.21514275 692.24616151 -761.00879445 690.1765119 -760.80419922 688.10668945 C-760.28592718 682.9622973 -759.71453872 677.82563714 -759.11035156 672.69067383 C-759.00613892 671.80021362 -758.90192627 670.90975342 -758.79455566 669.99230957 C-749.6814888 592.93683207 -726.70708064 516.87362574 -658.09716797 379.13793945 C-656.53949697 376.51229397 -654.99995731 373.8769913 -653.46582031 371.23754883 C-640.03075916 348.27776781 -624.51651113 326.47993846 -608.42285156 305.31567383 C-608.02066406 304.78586914 -607.61847656 304.25606445 -607.20410156 303.71020508 C-593.12920368 285.19291755 -578.00087805 267.57781129 -562.42285156 250.31567383 C-561.86380127 249.67428467 -561.30475098 249.03289551 -560.72875977 248.37207031 C-553.7017211 240.3961404 -546.18124589 232.92274484 -538.65698242 225.41943359 C-536.35837947 223.12620634 -534.06519126 220.82766143 -531.77246094 218.52856445 C-530.29035969 217.04712382 -528.80794836 215.56599333 -527.32519531 214.08520508 C-526.65101059 213.40899612 -525.97682587 212.73278717 -525.2822113 212.03608704 C-521.36931575 208.14213632 -517.35205953 204.42539355 -513.16854858 200.82325745 C-510.76646731 198.74882051 -508.4415146 196.59418991 -506.11035156 194.44067383 C-501.64896811 190.37149991 -497.06340439 186.51589566 -492.36425781 182.72583008 C-489.6461565 180.49864746 -486.98222029 178.22339662 -484.32788086 175.92138672 C-477.81929114 170.27870456 -471.1654322 164.88986927 -464.27539062 159.7175293 C-462.27745712 158.20565078 -460.29942058 156.66976468 -458.32128906 155.13208008 C-442.60356396 143.01788958 -426.02709305 132.16305314 -409.42285156 121.31567383 C-408.80766663 120.91316406 -408.19248169 120.5106543 -407.55865479 120.09594727 C-399.52262773 114.84784174 -391.3793618 109.83501043 -383.04785156 105.06567383 C-381.9342627 104.42654053 -380.82067383 103.78740723 -379.67333984 103.12890625 C-304.36514703 60.09793477 -223.49863137 28.84366515 -138.08178711 13.00708008 C-134.23092629 12.27940691 -130.38912457 11.51383396 -126.54785156 10.73754883 C-121.28828792 9.68024727 -116.0343434 8.65419841 -110.73535156 7.81567383 C-109.97988037 7.69530762 -109.22440918 7.57494141 -108.44604492 7.45092773 C-99.58949427 6.10100884 -90.67809392 5.21148186 -81.76586914 4.31762695 C-80.6123999 4.2009668 -79.45893066 4.08430664 -78.27050781 3.96411133 C-77.23933838 3.86275879 -76.20816895 3.76140625 -75.14575195 3.65698242 C-72.55576827 3.39679655 -72.55576827 3.39679655 -70.62257385 2.82710266 C-65.46759577 1.62858572 -60.06108608 1.6068867 -54.79003906 1.27270508 C-53.74826822 1.20633315 -53.74826822 1.20633315 -52.68545151 1.13862038 C-35.13218906 0.05294715 -17.58135391 -0.02431806 0 0 Z M-134.23095703 94.64916992 C-136.3488549 95.0914111 -138.46767061 95.52928056 -140.58740234 95.96264648 C-183.75610373 104.82948053 -226.08997484 118.59061192 -266.42285156 136.31567383 C-267.43879395 136.76088379 -268.45473633 137.20609375 -269.50146484 137.66479492 C-294.21881037 148.57532773 -318.41448595 160.6029185 -341.54492188 174.57739258 C-344.47354493 176.34629283 -347.41236509 178.09730306 -350.35253906 179.84692383 C-362.69582206 187.23188986 -374.66249688 195.0369848 -386.42285156 203.31567383 C-387.60633609 204.1400494 -388.78992232 204.96427899 -389.97363281 205.78833008 C-404.55495566 216.00969723 -418.80350064 226.84342305 -432.42285156 238.31567383 C-433.46304074 239.18176995 -434.50341605 240.04764256 -435.54394531 240.91333008 C-442.01134576 246.31704487 -448.30254349 251.87281953 -454.47363281 257.61254883 C-456.6438945 259.62438923 -458.86581839 261.56443004 -461.10888672 263.49462891 C-465.37276141 267.22102866 -469.39843957 271.14655884 -473.39550781 275.15551758 C-474.12225204 275.88130508 -474.84899628 276.60709259 -475.59776306 277.35487366 C-477.12247452 278.87890939 -478.64594307 280.40418952 -480.16821289 281.93066406 C-482.47919048 284.24699846 -484.79545927 286.5579446 -487.11230469 288.8684082 C-488.60285977 290.35962417 -490.09310457 291.85115035 -491.58300781 293.34301758 C-492.60673241 294.36370583 -492.60673241 294.36370583 -493.65113831 295.40501404 C-497.56314699 299.33586765 -501.29930897 303.36933852 -504.91773987 307.57244873 C-506.99115407 309.97388358 -509.14512243 312.29786266 -511.29785156 314.62817383 C-515.31665749 319.03920556 -519.1515048 323.5530274 -522.89550781 328.19848633 C-524.77333072 330.52805325 -526.68309273 332.82824779 -528.60644531 335.12036133 C-557.44729707 369.5782345 -582.20068085 407.74865127 -603.42285156 447.31567383 C-603.92574707 448.24379883 -604.42864258 449.17192383 -604.94677734 450.12817383 C-620.41080219 478.77653737 -633.60585121 508.60823404 -644.42285156 539.31567383 C-644.66370483 539.99911865 -644.90455811 540.68256348 -645.15270996 541.38671875 C-655.70865525 571.44542704 -664.52075096 601.77259124 -670.76416016 633.03491211 C-671.39841329 636.19395345 -672.0587146 639.34656014 -672.72363281 642.49926758 C-676.67408205 661.61786534 -679.24924239 680.92475345 -681.42285156 700.31567383 C-681.50855408 701.07734863 -681.59425659 701.83902344 -681.68255615 702.6237793 C-688.3305468 762.67518123 -687.41698192 827.45437387 -675.13232422 886.81738281 C-674.34218272 890.71343842 -673.67934887 894.61847992 -673.04199219 898.54174805 C-671.00770111 911.02594384 -668.16934405 923.24315186 -665.11035156 935.51098633 C-664.3262392 938.70980836 -663.60180981 941.91922006 -662.88574219 945.13378906 C-660.89542913 953.97787532 -658.29929502 962.55970102 -655.45849609 971.16479492 C-654.69469578 973.48860606 -653.93791446 975.81405396 -653.18798828 978.14233398 C-643.68447864 1007.63045357 -633.09055947 1036.50770901 -619.75683594 1064.50366211 C-618.40262105 1067.35831934 -617.07495861 1070.22422873 -615.75097656 1073.09301758 C-609.75324692 1085.98938607 -603.05360936 1098.35421727 -595.93798828 1110.66430664 C-594.11578261 1113.85301976 -592.36422213 1117.0765268 -590.6159668 1120.30615234 C-585.20972198 1130.26129806 -579.13695051 1139.72105582 -572.86376953 1149.14916992 C-571.64807692 1150.97703441 -570.44250452 1152.81162379 -569.23925781 1154.64770508 C-559.31411657 1169.73144365 -548.63466895 1184.16854286 -537.42285156 1198.31567383 C-536.648125 1199.29536133 -535.87339844 1200.27504883 -535.07519531 1201.28442383 C-533.20236624 1203.63756096 -531.31628442 1205.97909711 -529.42285156 1208.31567383 C-528.75511719 1209.14583008 -528.08738281 1209.97598633 -527.39941406 1210.83129883 C-523.09379428 1216.1472626 -518.69796422 1221.38133753 -514.23535156 1226.56567383 C-513.76782471 1227.11247803 -513.30029785 1227.65928223 -512.81860352 1228.22265625 C-502.26564529 1240.40944376 -490.97383198 1251.93124987 -479.56152344 1263.30737305 C-477.52452735 1265.33893583 -475.49303205 1267.37589219 -473.46191406 1269.41333008 C-472.13931839 1270.7352659 -470.81641307 1272.056892 -469.49316406 1273.37817383 C-468.90028595 1273.97307617 -468.30740784 1274.56797852 -467.69656372 1275.1809082 C-463.98206825 1278.87503547 -460.14216206 1282.37705246 -456.17643738 1285.80020142 C-453.95071574 1287.72369995 -451.78144092 1289.70589512 -449.61035156 1291.69067383 C-445.36844306 1295.51481861 -441.01734059 1299.16456838 -436.57519531 1302.75317383 C-434.23425276 1304.64588295 -431.92035945 1306.56817558 -429.61425781 1308.50317383 C-419.19413283 1317.22265927 -408.45100796 1325.38244047 -397.42285156 1333.31567383 C-396.37194336 1334.07678467 -396.37194336 1334.07678467 -395.29980469 1334.85327148 C-376.04129598 1348.78310321 -356.01096557 1361.45224932 -335.42285156 1373.31567383 C-334.73771484 1373.71415527 -334.05257813 1374.11263672 -333.34667969 1374.52319336 C-281.60810187 1404.58929116 -225.36960652 1427.41851816 -167.42285156 1442.31567383 C-166.19099121 1442.63487793 -164.95913086 1442.95408203 -163.68994141 1443.28295898 C-133.83323799 1450.97838257 -103.8511474 1456.39937184 -73.21948242 1459.87670898 C-70.60273872 1460.17925578 -67.99074777 1460.49454203 -65.37817383 1460.82885742 C-54.72044486 1462.17604818 -44.08965084 1462.94310882 -33.36035156 1463.44067383 C-32.48057648 1463.48203461 -31.60080139 1463.52339539 -30.69436646 1463.56600952 C50.08486737 1467.27608465 132.46403032 1459.70254356 209.57714844 1434.31567383 C210.34234802 1434.06390381 211.10754761 1433.81213379 211.89593506 1433.55273438 C248.38973293 1421.52361404 283.94841297 1408.15088359 318.18066406 1390.54711914 C319.99790173 1389.61332261 321.81729898 1388.6837273 323.63769531 1387.75610352 C342.3801945 1378.23989721 342.3801945 1378.23989721 360.50439453 1367.61352539 C362.99266775 1366.05549707 365.49789329 1364.52628846 368.00292969 1362.99536133 C394.11206378 1346.95939324 419.23243307 1329.30148527 442.8359375 1309.75268555 C445.35872564 1307.67064251 447.90806614 1305.62160588 450.45214844 1303.56567383 C454.83833158 1299.97518508 459.06630255 1296.23728662 463.25683594 1292.42114258 C465.27869028 1290.58649697 467.32393366 1288.78798597 469.38964844 1287.00317383 C480.1338424 1277.61317087 490.3469291 1267.70790358 500.41796875 1257.60522461 C502.46728355 1255.55049875 504.52196106 1253.5012428 506.57714844 1251.45239258 C507.90819869 1250.12068217 509.23893905 1248.78866195 510.56933594 1247.45629883 C511.17051239 1246.85714661 511.77168884 1246.25799438 512.39108276 1245.64068604 C516.64835402 1241.36020368 520.64199771 1236.89249587 524.57714844 1232.31567383 C525.55051799 1231.1979733 526.52437489 1230.08069673 527.49902344 1228.96411133 C533.46420271 1222.07649237 539.21744287 1215.06418498 544.80371094 1207.86645508 C546.66819029 1205.46671533 548.55866532 1203.09169823 550.47558594 1200.73364258 C562.30337793 1186.17756023 573.11951155 1170.87909814 583.57714844 1155.31567383 C584.30272949 1154.23938721 584.30272949 1154.23938721 585.04296875 1153.14135742 C601.33400978 1128.86275685 615.52203536 1103.45207002 628.57714844 1077.31567383 C629.10115234 1076.27556152 629.62515625 1075.23544922 630.16503906 1074.16381836 C648.3712713 1037.88573879 663.13959285 999.32522502 673.79882812 960.15698242 C674.61185148 957.18898813 675.45631355 954.23105513 676.30371094 951.27270508 C681.14414906 934.13115355 684.79507076 916.78819238 688.18777466 899.31311035 C688.57203363 897.34191213 688.96406603 895.37223441 689.35620117 893.40258789 C691.36496966 883.08718615 692.83208076 872.74129578 694.13964844 862.31567383 C694.30164734 861.03808197 694.30164734 861.03808197 694.46691895 859.73468018 C696.20853979 845.95860749 697.77485704 832.1829641 698.57714844 818.31567383 C698.61844879 817.61054657 698.65974915 816.90541931 698.70230103 816.17892456 C699.51292238 801.9925955 699.77847387 787.83610841 699.76464844 773.62817383 C699.76437653 772.56595612 699.76410461 771.5037384 699.76382446 770.40933228 C699.74189699 751.64555302 699.15482601 733.01325171 697.57714844 714.31567383 C697.43237061 712.58389893 697.43237061 712.58389893 697.28466797 710.81713867 C694.8004719 682.44672217 690.86078093 653.71088752 684.21142578 626.00610352 C683.53557471 623.13932952 682.90663978 620.26480622 682.28417969 617.38598633 C671.29100377 567.12023028 653.92182305 518.62420238 631.57714844 472.31567383 C631.29162109 471.72270508 631.00609375 471.12973633 630.71191406 470.51879883 C622.58671101 453.66389184 613.99790153 437.21995222 604.31542969 421.19360352 C602.54652944 418.26498047 600.7955192 415.3261603 599.04589844 412.38598633 C591.66210485 400.0436286 583.88401935 388.05551208 575.57714844 376.31567383 C575.04766602 375.56479492 574.51818359 374.81391602 573.97265625 374.0402832 C563.30163532 358.95165421 552.12403112 344.26100101 540.07324219 330.24536133 C537.76719783 327.5387365 535.54266591 324.78391643 533.32714844 322.00317383 C528.23571371 315.73961025 522.67335578 309.93584445 517.12402344 304.08129883 C514.46403579 301.27184258 511.87367842 298.41640412 509.32714844 295.50317383 C504.74077453 290.36433041 499.87597478 285.50481363 495.01464844 280.62817383 C494.2105957 279.81952881 493.40654297 279.01088379 492.578125 278.17773438 C488.3174932 273.92802951 483.98177786 269.83716186 479.41967773 265.91308594 C476.63182355 263.49610834 473.95534815 260.96453148 471.26464844 258.44067383 C466.48744574 253.9958163 461.58563395 249.78770977 456.49121094 245.70629883 C454.36029234 243.95814577 452.2846108 242.19149548 450.22558594 240.36254883 C441.22072075 232.36734603 431.81211973 225.15471797 422.04321289 218.1184082 C419.33897986 216.14156861 416.6789976 214.11153695 414.01464844 212.08129883 C407.31101022 207.04199382 400.38297649 202.3683456 393.39672852 197.73168945 C391.27435264 196.32211885 389.1570029 194.90523076 387.04003906 193.48754883 C323.0267707 150.7769136 250.78287083 119.09339748 176.00488281 100.91040039 C173.27112971 100.24070786 170.54154572 99.55509877 167.81152344 98.87036133 C154.84701732 95.64990492 141.90387376 92.94621742 128.71533203 90.83081055 C125.37856079 90.28307542 122.05065775 89.69401702 118.72167969 89.10083008 C103.48928442 86.44284865 88.28149688 84.52408588 72.88964844 83.06567383 C71.59019791 82.94131958 71.59019791 82.94131958 70.26449585 82.81445312 C48.77669245 80.78294395 27.40824884 80.10822195 5.82714844 80.12817383 C4.61515778 80.12877808 3.40316711 80.12938232 2.15444946 80.13000488 C-44.00256068 80.19232325 -89.04992656 85.2142466 -134.23095703 94.64916992 Z " fill="#EEE6DC" transform="translate(992.4228515625,227.684326171875)"/>
<path d="M0 0 C1.44754141 0.1254126 2.89513477 0.25022676 4.34277344 0.37451172 C38.30354205 3.32795943 71.92510458 8.70333078 105 17 C106.58047986 17.38643774 108.16119377 17.77192003 109.7421875 18.15625 C113.50207555 19.07739101 117.25472051 20.02071134 121 21 C121.74483643 21.19352051 122.48967285 21.38704102 123.25708008 21.58642578 C179.65757695 36.57157346 234.30871603 59.10498765 285 88 C285.83305664 88.46841309 286.66611328 88.93682617 287.52441406 89.41943359 C300.0358727 96.47662574 312.05479728 104.22179826 324 112.1875 C324.69251862 112.6490448 325.38503723 113.1105896 326.09854126 113.58612061 C338.74035972 122.02851767 351.23166601 130.66419643 363.1875 140.0625 C363.9508667 140.65973877 364.7142334 141.25697754 365.50073242 141.87231445 C371.40159139 146.50133416 377.24512335 151.1900809 383 156 C383.51369141 156.42877441 384.02738281 156.85754883 384.55664062 157.29931641 C390.97315717 162.66353946 397.30789688 168.09768692 403.48828125 173.734375 C405.58368675 175.62447639 407.6992316 177.48394191 409.828125 179.3359375 C419.92349226 188.15482493 429.56874136 197.47824891 439.0625 206.9375 C439.75206787 207.62247559 440.44163574 208.30745117 441.15209961 209.01318359 C445.04616396 212.919084 448.75157823 216.93345964 452.35424805 221.10913086 C454.7915349 223.90942558 457.33560303 226.60517723 459.875 229.3125 C464.35742274 234.13101711 468.6143573 239.07182933 472.734375 244.20703125 C474.75887274 246.7027483 476.83266253 249.14705763 478.9309082 251.58081055 C485.68368619 259.43379374 491.87705269 267.65105385 498 276 C498.76135254 277.02988037 498.76135254 277.02988037 499.53808594 278.08056641 C521.0396713 307.18570924 540.34652522 337.8720575 557 370 C557.59522461 371.14662109 558.19044922 372.29324219 558.80371094 373.47460938 C582.89616702 420.06369418 601.52425654 469.02652689 614 520 C614.34756348 521.40886475 614.34756348 521.40886475 614.70214844 522.84619141 C616.18723045 528.885743 617.60390223 534.93931888 619 541 C619.19813293 541.8553685 619.39626587 542.710737 619.60040283 543.59202576 C622.7691006 557.36956195 625.28537332 571.14645035 627.25805664 585.14428711 C627.68906304 588.19857637 628.13361884 591.25066945 628.58007812 594.30273438 C635.82444651 644.38924089 637.51329248 695.57201603 633 746 C632.88785156 747.32862061 632.88785156 747.32862061 632.7734375 748.68408203 C632.3617457 753.51669577 631.8686475 758.33509428 631.31835938 763.15380859 C631.08599419 765.23119609 630.86488208 767.30985119 630.65039062 769.38916016 C626.35972627 810.91821733 617.8541909 852.27044792 605 892 C604.5818825 893.31023286 604.16426627 894.62062576 603.74707031 895.93115234 C593.56914653 927.83263649 581.60281992 958.8443967 567 989 C566.45375977 990.1348584 565.90751953 991.2697168 565.34472656 992.43896484 C557.74634118 1008.15804333 549.56083242 1023.38701524 540.578125 1038.35644531 C539.11508086 1040.80722531 537.6764711 1043.26998722 536.25 1045.7421875 C531.23463475 1054.4254777 525.94163909 1062.85108558 520.27978516 1071.12744141 C518.98526958 1073.02155328 517.70112913 1074.92240038 516.41796875 1076.82421875 C506.72032362 1091.135185 496.55211049 1105.08463764 485.55004883 1118.42260742 C482.34875945 1122.3085173 479.28814082 1126.2510113 476.3125 1130.3125 C471.9238814 1136.24720075 467.01755432 1141.59712431 462 1147 C460.80605361 1148.34848642 459.61791863 1149.70215612 458.4375 1151.0625 C457.29229305 1152.37554658 456.14637435 1153.68797251 455 1155 C454.42588379 1155.6609668 453.85176758 1156.32193359 453.26025391 1157.00292969 C446.50543031 1164.6495841 439.31151087 1171.84032497 432.08862305 1179.04174805 C429.93487478 1181.19011866 427.78654774 1183.34380694 425.63867188 1185.49804688 C424.24771646 1186.88834168 422.85645097 1188.27832636 421.46484375 1189.66796875 C420.83440659 1190.30043015 420.20396942 1190.93289154 419.5544281 1191.58451843 C415.74852169 1195.37079044 411.82775572 1198.97202482 407.76107788 1202.47703552 C405.3549634 1204.55782191 403.02396319 1206.71658766 400.6875 1208.875 C396.27781527 1212.8925787 391.76577023 1216.72665604 387.12109375 1220.46875 C384.77711049 1222.35804498 382.46463263 1224.28147352 380.16015625 1226.21875 C370.81855303 1234.0482904 361.21908603 1241.34380149 351.27050781 1248.38232422 C348.98711644 1250.00917919 346.72182915 1251.65845148 344.4609375 1253.31640625 C291.95736175 1291.77826218 233.27683972 1321.39886969 172 1343 C170.76830078 1343.43973145 169.53660156 1343.87946289 168.26757812 1344.33251953 C123.94420205 1360.14817039 76.90663785 1371.9842869 30 1377 C28.85273437 1377.1232666 27.70546875 1377.2465332 26.5234375 1377.37353516 C-30.06214718 1383.3117998 -87.4988746 1384.69133587 -144 1377 C-145.32272598 1376.82400874 -146.64548119 1376.64823708 -147.96826172 1376.47265625 C-237.99988857 1364.43472259 -326.87879664 1335.20322751 -417 1281 C-418.45288346 1280.11679005 -419.90598056 1279.23393135 -421.359375 1278.3515625 C-444.60952959 1264.13635171 -466.76707295 1248.06508268 -488 1231 C-488.928125 1230.25492188 -489.85625 1229.50984375 -490.8125 1228.7421875 C-501.52985881 1220.04991102 -511.97843578 1211.06182842 -522.0859375 1201.66796875 C-524.25894563 1199.67847203 -526.45190059 1197.74406202 -528.68383789 1195.82324219 C-532.94836772 1192.09602879 -536.97486132 1188.16984384 -540.97265625 1184.16015625 C-541.69940048 1183.43436874 -542.42614471 1182.70858124 -543.1749115 1181.96080017 C-544.69962296 1180.43676444 -546.2230915 1178.91148431 -547.74536133 1177.38500977 C-550.05633891 1175.06867537 -552.37260771 1172.75772922 -554.68945312 1170.44726562 C-556.1800082 1168.95604966 -557.670253 1167.46452347 -559.16015625 1165.97265625 C-559.84263931 1165.29219742 -560.52512238 1164.61173859 -561.22828674 1163.91065979 C-565.68382333 1159.43365999 -569.88746945 1154.79256032 -574 1150 C-575.06932301 1148.77387593 -576.13949895 1147.5484946 -577.2109375 1146.32421875 C-598.50286093 1121.88309288 -618.36130151 1096.20769242 -636 1069 C-636.556875 1068.14535156 -637.11375 1067.29070312 -637.6875 1066.41015625 C-646.27620629 1053.20118609 -654.38518496 1039.79282858 -662 1026 C-662.57331055 1024.96697754 -663.14662109 1023.93395508 -663.73730469 1022.86962891 C-683.56831008 986.9958623 -699.4906981 949.8678405 -712.91113281 911.140625 C-713.90735666 908.26721164 -714.91768117 905.39913001 -715.9296875 902.53125 C-720.40894357 889.66010524 -723.86489153 876.5789181 -727.15917969 863.36035156 C-727.97012438 860.1193984 -728.7985847 856.88346597 -729.6328125 853.6484375 C-734.34504354 835.28008495 -738.01787865 816.92686748 -740.68847656 798.15527344 C-741.09712622 795.32803269 -741.5483977 792.50816354 -742 789.6875 C-742.33543655 787.45864885 -742.66852973 785.22944446 -743 783 C-743.10812012 782.31486328 -743.21624023 781.62972656 -743.32763672 780.92382812 C-755.21350721 704.68469174 -751.61631885 623.30208528 -735 548 C-734.58693604 546.10556152 -734.58693604 546.10556152 -734.16552734 544.17285156 C-717.55679177 468.48251606 -688.53379837 396.04675175 -648 330 C-647.44151367 329.08976074 -646.88302734 328.17952148 -646.30761719 327.24169922 C-623.52871277 290.30086432 -597.0596238 255.45148017 -567.51586914 223.65942383 C-566.41330515 222.45244566 -565.32588407 221.2315811 -564.24780273 220.00268555 C-557.36754487 212.19903546 -550.026011 204.87446547 -542.66137695 197.53100586 C-540.43520138 195.31020693 -538.21444368 193.08409034 -535.99414062 190.85742188 C-534.55761229 189.42155416 -533.12077389 187.98599657 -531.68359375 186.55078125 C-531.03128281 185.89644608 -530.37897186 185.2421109 -529.70689392 184.56794739 C-525.84043843 180.72080582 -521.86352536 177.05529223 -517.73202515 173.49391174 C-515.51208134 171.57915887 -513.35113426 169.60296337 -511.1875 167.625 C-505.93824117 162.89428498 -500.50441004 158.42916306 -495 154 C-493.87864698 153.08625558 -492.75756489 152.17217861 -491.63671875 151.2578125 C-469.56383541 133.33113334 -446.2490548 116.84387925 -422 102 C-421.03932617 101.4107373 -420.07865234 100.82147461 -419.08886719 100.21435547 C-340.74535992 52.30726334 -255.14881703 20.31630734 -119 0 C-117.16526123 -0.17789062 -117.16526123 -0.17789062 -115.29345703 -0.359375 C-77.23804154 -3.82599276 -38.03323553 -3.48502171 0 0 Z M-120 43 C-120.82384186 43.07561157 -121.64768372 43.15122314 -122.49649048 43.22912598 C-127.09069594 43.663655 -131.67020616 44.18097967 -136.25 44.75 C-136.91913422 44.83203674 -137.58826843 44.91407349 -138.27767944 44.99859619 C-153.9926404 46.94385093 -169.48730538 49.85229399 -185 53 C-186.18368164 53.23444824 -187.36736328 53.46889648 -188.58691406 53.71044922 C-238.32146826 63.58903953 -285.88000909 80.02688196 -332 101 C-332.84852539 101.38365723 -333.69705078 101.76731445 -334.57128906 102.16259766 C-347.73004211 108.14073256 -360.40523017 114.91817771 -373 122 C-374.24595947 122.70044434 -374.24595947 122.70044434 -375.51708984 123.41503906 C-387.58537855 130.23298012 -399.36631365 137.46629122 -411 145 C-411.7513623 145.48581543 -412.50272461 145.97163086 -413.27685547 146.47216797 C-425.18512329 154.20517851 -436.6580037 162.46170157 -448 171 C-448.62277832 171.46680176 -449.24555664 171.93360352 -449.88720703 172.41455078 C-457.08346241 177.81930776 -464.02634989 183.4788636 -470.859375 189.33203125 C-473.81916681 191.86208756 -476.84128796 194.30893935 -479.875 196.75 C-483.58155656 199.76459448 -487.00817909 202.8855602 -490.32421875 206.3203125 C-492.14344456 208.14377893 -494.04767911 209.82018279 -496 211.5 C-498.60647609 213.7455794 -501.08934521 216.04551512 -503.5 218.5 C-505.85033101 220.89277491 -508.264224 223.13191112 -510.8125 225.3125 C-517.07721537 230.72735088 -522.92021363 236.57605831 -528.34765625 242.828125 C-531.91176761 246.9333766 -535.62806717 250.87472417 -539.375 254.8125 C-544.42092325 260.15571491 -549.2694706 265.56951612 -553.84765625 271.32421875 C-555.78897533 273.73765535 -557.79187833 276.08378931 -559.82275391 278.421875 C-566.76956078 286.45481948 -573.01338516 294.96701661 -579.23583984 303.56689453 C-580.94591559 305.92540753 -582.66840862 308.27430896 -584.39453125 310.62109375 C-591.12114502 319.79807434 -597.52248476 329.12526736 -603.58447266 338.75439453 C-604.54561669 340.27916218 -605.51161252 341.80088009 -606.48193359 343.31982422 C-643.39801717 401.11535245 -670.49738124 464.48633373 -687 531 C-687.22929199 531.91604004 -687.45858398 532.83208008 -687.69482422 533.77587891 C-689.20509978 539.8341304 -690.62773749 545.90908046 -692 552 C-692.2357373 553.03688965 -692.47147461 554.0737793 -692.71435547 555.14208984 C-697.15452665 574.89319612 -700.33939446 594.70322932 -702.73571777 614.79382324 C-702.98616252 616.88448737 -703.24508143 618.97395854 -703.50488281 621.06347656 C-708.95287077 666.6212889 -707.65050133 714.43783202 -703 760 C-702.89316895 761.08909668 -702.78633789 762.17819336 -702.67626953 763.30029297 C-702.00229427 769.90613586 -701.05876399 776.44579141 -700 783 C-699.76018973 784.5086161 -699.52044931 786.01724331 -699.28076172 787.52587891 C-695.97238014 808.22985846 -692.34671073 828.71216091 -687 849 C-686.57400286 850.67539601 -686.14948257 852.35116835 -685.7265625 854.02734375 C-684.53763228 858.69996228 -683.28474639 863.35289453 -682 868 C-681.80535156 868.71172363 -681.61070312 869.42344727 -681.41015625 870.15673828 C-673.98573685 896.98533879 -664.2955914 923.57487784 -653 949 C-652.57541504 949.9605127 -652.15083008 950.92102539 -651.71337891 951.91064453 C-641.2874601 975.37571688 -629.8806842 998.1970784 -616.66259766 1020.21728516 C-615.09208314 1022.84587906 -613.54770839 1025.48784179 -612.01171875 1028.13671875 C-592.39983062 1061.7500055 -568.26832336 1093.60444963 -541.71484375 1122.06640625 C-539.53138514 1124.42579822 -537.4044351 1126.81021426 -535.3125 1129.25 C-532.11940575 1132.94808483 -528.66819875 1136.34761443 -525.19140625 1139.77734375 C-523.1852981 1141.8120595 -521.29886484 1143.89585437 -519.4375 1146.0625 C-514.05245112 1152.31610515 -508.17794667 1157.92196149 -501.921875 1163.29296875 C-500.0900398 1164.92002562 -498.38871889 1166.61302329 -496.6875 1168.375 C-493.00937574 1172.11984761 -488.9655713 1175.33508145 -484.87890625 1178.62109375 C-482.05594403 1180.95377216 -479.36963388 1183.38247205 -476.6875 1185.875 C-471.04466573 1191.0495822 -465.11641275 1195.76717958 -459.04638672 1200.42041016 C-456.88311357 1202.09022372 -454.74036799 1203.78436763 -452.59765625 1205.48046875 C-430.68195688 1222.67232106 -407.17339083 1238.17373301 -383 1252 C-382.08508789 1252.52932129 -381.17017578 1253.05864258 -380.22753906 1253.60400391 C-326.28652675 1284.75139802 -268.67579662 1307.80926411 -208 1322 C-206.95335175 1322.24553619 -206.95335175 1322.24553619 -205.88555908 1322.49603271 C-162.97804187 1332.53003107 -118.89213411 1339.14514208 -74.75 1339.16796875 C-73.23852511 1339.17120013 -71.72705049 1339.17456542 -70.21557617 1339.17805481 C-67.0693286 1339.18398342 -63.92310822 1339.18590138 -60.77685547 1339.18530273 C-57.60654969 1339.18522175 -54.43638928 1339.19213038 -51.26611328 1339.20581055 C-32.73271376 1339.28451702 -14.45115974 1338.9807297 4 1337 C5.40317355 1336.86073657 6.80648386 1336.72284046 8.20996094 1336.58666992 C11.60149342 1336.24836972 14.98809005 1335.88144654 18.375 1335.5 C19.47070312 1335.38269531 20.56640625 1335.26539063 21.6953125 1335.14453125 C27.24409513 1334.52726237 32.66703099 1333.72673427 38.12744141 1332.57128906 C41.81078325 1331.83875295 45.51217527 1331.23348654 49.21875 1330.6328125 C49.9614917 1330.51213409 50.7042334 1330.39145569 51.46948242 1330.26712036 C53.01728809 1330.01579313 54.56511985 1329.76462652 56.11297607 1329.51361084 C72.77198664 1326.80150058 89.17016612 1323.86931777 105.37597656 1319.05224609 C108.91303758 1318.0252498 112.4626647 1317.08230455 116.02734375 1316.15625 C123.55301664 1314.16996297 130.97061856 1311.90092084 138.375 1309.5 C139.02730591 1309.28857361 139.67961182 1309.07714722 140.35168457 1308.85931396 C165.83346716 1300.5758595 190.70878937 1291.36027283 215 1280 C216.03495605 1279.52095215 217.06991211 1279.0419043 218.13623047 1278.54833984 C276.3638717 1251.53268906 329.05127142 1215.54605493 377 1173 C377.75410156 1172.33871094 378.50820312 1171.67742187 379.28515625 1170.99609375 C384.60921684 1166.27953294 389.67595178 1161.37208054 394.66772461 1156.31079102 C397.45572011 1153.49751985 400.29082881 1150.8099458 403.3125 1148.25 C406.60235861 1145.44752785 409.36163787 1142.3944683 412.15234375 1139.1015625 C414.1780441 1136.79748895 416.31422567 1134.65248842 418.5 1132.5 C421.79163337 1129.24150388 424.92395491 1125.9220526 427.9375 1122.40625 C429.59112433 1120.47702161 431.25896476 1118.56367641 432.9375 1116.65625 C439.74049854 1108.90518378 446.2700028 1101.00862338 452.56347656 1092.83984375 C454.02621413 1090.96642596 455.52049261 1089.12252427 457.0234375 1087.28125 C465.03091306 1077.37283248 472.19913143 1066.97355778 479.25 1056.375 C479.93952255 1055.33948502 479.93952255 1055.33948502 480.64297485 1054.28305054 C512.93530677 1005.68692529 538.64675504 954.44723016 557.84033203 899.29785156 C558.639905 897.02403438 559.45430038 894.75539361 560.28076172 892.49121094 C563.00376292 885.02422308 565.36873009 877.56437886 567.375 869.875 C567.66753662 868.76592285 567.96007324 867.6568457 568.26147461 866.51416016 C568.87397425 864.18093724 569.48290972 861.84677594 570.08837891 859.51171875 C570.68701437 857.20567361 571.29069785 854.90093185 571.89990234 852.59765625 C580.47387869 820.15811754 586.22970334 787.12339754 589.6875 753.75 C589.80697998 752.6161084 589.92645996 751.4822168 590.04956055 750.31396484 C592.04055636 729.91382667 592.20816527 709.41783993 592.1875 688.9375 C592.18656342 687.72778534 592.18562683 686.51807068 592.18466187 685.271698 C592.13145219 653.47826084 589.37520565 622.47293301 585 591 C584.83773926 589.83243164 584.67547852 588.66486328 584.50830078 587.46191406 C572.89871773 506.56685249 542.58733155 427.25967809 429.14453125 260.32421875 C427.30467937 258.33020806 425.51791393 256.30744822 423.75 254.25 C415.08417705 244.31747903 405.92737477 234.83414978 396.625 225.5 C395.88854248 224.7589502 395.15208496 224.01790039 394.39331055 223.25439453 C390.33481267 219.20732904 386.1815501 215.33602962 381.83984375 211.59472656 C379.22989975 209.33249803 376.71487522 206.97917048 374.1875 204.625 C369.61836664 200.40850096 364.93377247 196.39241956 360.0859375 192.49609375 C357.75812556 190.61321802 355.4554198 188.71149369 353.1640625 186.78515625 C343.75826185 178.90094718 334.09303377 171.54443231 324.06787109 164.46679688 C322.18683333 163.13252593 320.31908056 161.78246048 318.45703125 160.421875 C268.04013731 123.67623847 211.20196102 95.09508218 152.18457031 75.08056641 C149.00033732 74.00011446 145.82425534 72.89787848 142.6484375 71.79296875 C130.94437679 67.76121209 119.2318506 64.36669113 107.18554688 61.52929688 C103.99957966 60.75771768 100.84596378 59.87657805 97.6875 59 C68.12289439 51.12030767 37.44117644 46.02125666 6.97192383 43.34863281 C3.92201011 43.08092879 0.87730754 42.78955681 -2.16918945 42.48730469 C-18.87226973 40.90928188 -35.49582128 40.68852746 -52.25512695 40.73925781 C-56.0429001 40.75062062 -59.8303911 40.74388491 -63.61815453 40.73237991 C-82.50072373 40.68374888 -101.18220655 41.26506719 -120 43 Z " fill="#D8A790" transform="translate(1057,310)"/>
<path d="M0 0 C3.55443382 1.92054086 7.12750869 4.12750869 10 7 C10.86180081 16.9107093 6.65497266 26.00513229 3 35 C2.3552299 36.61917891 1.71196987 38.23896004 1.0703125 39.859375 C-4.75407058 54.5143699 -4.75407058 54.5143699 -7.8125 61.5 C-11.39603932 69.75388975 -14.61869771 78.14996377 -17.88842773 86.53198242 C-20.47702387 93.15859381 -23.11861767 99.75413052 -25.875 106.3125 C-37.42750001 134.12543636 -44.21555942 164.42042089 -48.55932617 194.14916992 C-48.84584003 196.00270027 -49.17254792 197.85061334 -49.54541016 199.6887207 C-50.09646956 202.49048192 -50.16929723 205.14580624 -50.1875 208 C-50.20167969 209.010625 -50.21585938 210.02125 -50.23046875 211.0625 C-49.90246821 215.24311708 -48.97666171 218.02333829 -46 221 C-41.35002966 220.77818163 -38.02857628 218.33491661 -34.375 215.6875 C-33.76035889 215.2430957 -33.14571777 214.79869141 -32.51245117 214.34082031 C-26.18419258 209.61287702 -21.00779499 204.08568097 -16 198 C-15.3498291 197.21181885 -15.3498291 197.21181885 -14.68652344 196.40771484 C-11.87057158 192.96124822 -9.14270285 189.45345487 -6.45117188 185.90917969 C-5.49661368 184.65335111 -4.53710079 183.40127058 -3.57226562 182.15332031 C15.24455182 157.77184991 32.30105805 131.48373133 48 105 C48.4738916 104.20335937 48.9477832 103.40671875 49.43603516 102.5859375 C54.87843404 93.40291428 60.12974945 84.14652841 64.92089844 74.60449219 C66.58269782 71.36293773 68.20920655 68.65833782 70.6875 65.9765625 C73.47007818 62.39493315 73.76215849 60.16719716 74.125 55.6875 C75.54004589 42.23795164 75.54004589 42.23795164 79.296875 37.29296875 C82.69509936 34.71312411 86.95841068 35.47036895 91 36 C94.68105274 37.43152051 96.34817594 38.68671296 98.11215591 42.24075794 C100.83284686 49.36848294 101.58148591 55.58029331 101.54589844 63.17260742 C101.55623611 64.33488861 101.56657379 65.4971698 101.57722473 66.69467163 C101.60648828 70.49841486 101.60814848 74.30162216 101.609375 78.10546875 C101.62436776 80.75778379 101.64090452 83.4100445 101.65948486 86.06233215 C101.69986404 92.30579873 101.72034268 98.54916135 101.73345876 104.79273826 C101.74939055 111.90782362 101.7878317 119.02273361 101.82805204 126.13771665 C101.91020298 140.75840818 101.96444957 155.37912173 102 170 C103.65 170.33 105.3 170.66 107 171 C107.26554687 170.44183594 107.53109375 169.88367187 107.8046875 169.30859375 C121.23423528 143.37113382 143.69499155 119.84254355 162.55859375 97.69580078 C164.00199616 95.99765154 165.43881423 94.29409807 166.875 92.58984375 C172.17152313 86.32629115 177.57109823 80.16201309 183.125 74.125 C183.71667969 73.48087158 184.30835938 72.83674316 184.91796875 72.1730957 C188.16435446 68.71524404 191.33959947 65.94262174 195.3125 63.3125 C201.1699769 59.00865371 203.34529425 52.52779576 205.95825195 45.96801758 C206.47005005 44.69027466 206.47005005 44.69027466 206.9921875 43.38671875 C207.28464355 42.61545654 207.57709961 41.84419434 207.87841797 41.04956055 C209.22865203 38.58216505 210.61955392 37.46797035 213 36 C219.23094468 34.92603283 224.7589834 35.76151052 230.34375 38.63671875 C232.7029423 40.57860109 233.75885058 42.18545501 235 45 C235.10603533 47.90594113 235.06096331 50.50386837 234.8125 53.375 C234.76802734 54.10460937 234.72355469 54.83421875 234.67773438 55.5859375 C234.33736936 60.2922192 233.36942499 64.46797842 232 69 C231.51428428 71.47394766 231.05719612 73.95364346 230.625 76.4375 C229.65024725 81.88286635 228.47556773 87.20946694 227.0625 92.5625 C224.59409765 101.98309336 223.04831448 111.56551747 221.46728516 121.16772461 C221.15381067 123.06773376 220.83571859 124.96698642 220.51318359 126.86547852 C219.18401159 134.70681073 217.99451009 142.5636124 216.875 150.4375 C216.69324219 151.65759766 216.51148438 152.87769531 216.32421875 154.13476562 C215.19130365 162.14609384 214.77136067 169.91209557 215 178 C222.97322992 176.26177005 227.14552333 167.96400271 231.33837891 161.48803711 C239.60182131 148.44429699 247.0580785 135.03758159 253.875 121.1875 C258.66846918 111.44946725 263.98799671 102.06750502 269.44580078 92.68945312 C271.0443346 89.92328151 272.61720061 87.14386069 274.18359375 84.359375 C289.42904302 57.28547849 289.42904302 57.28547849 298 53 C305.05271762 51.92676036 311.26754485 54.98989101 317 59 C319.5246897 63.52076742 319.35456256 68.08985456 319.328125 73.12890625 C319.32476135 74.04362198 319.32139771 74.95833771 319.31793213 75.90077209 C319.12524987 88.01411809 317.38650684 99.95197102 315.75 111.9375 C315.42695615 114.3861344 315.10527045 116.83494835 314.78491211 119.28393555 C313.45510379 129.40208631 312.07969061 139.5134509 310.64453125 149.6171875 C308.82322463 162.50179269 307.36452472 174.97275674 308 188 C309.65 188.33 311.3 188.66 313 189 C313.27835693 188.42290283 313.55671387 187.84580566 313.84350586 187.2512207 C314.96234878 185.07329151 316.18438279 183.04199502 317.50390625 180.98046875 C318.23661743 179.83034302 318.23661743 179.83034302 318.98413086 178.65698242 C319.76542358 177.43458862 319.76542358 177.43458862 320.5625 176.1875 C325.40981717 168.55440156 330.15417677 160.87447119 334.76025391 153.09375 C336.14298371 150.75852141 337.53059591 148.42622293 338.91796875 146.09375 C348.83153898 129.3996356 358.68039917 112.65730883 368.07421875 95.6640625 C368.40983826 95.05723129 368.74545776 94.45040009 369.09124756 93.82518005 C370.70165849 90.91031869 372.3056584 87.99226903 373.90185547 85.06958008 C384.99576463 64.88889361 384.99576463 64.88889361 390.0859375 63.3828125 C393.81822591 62.96245237 396.44978346 62.82033746 400.0625 64 C402 66 402 66 402.3125 69.203125 C401.96089125 73.47517137 400.92109179 75.95969723 398.9375 79.75 C398.59025879 80.41773438 398.24301758 81.08546875 397.88525391 81.7734375 C396.6120813 84.19465781 395.30927291 86.59810609 394 89 C393.46358887 89.98677734 392.92717773 90.97355469 392.37451172 91.99023438 C385.21812592 105.10329996 377.83388469 118.07007092 370.26660156 130.95043945 C363.64313719 142.25578403 357.31482543 153.72247683 350.99267578 165.19824219 C349.61949214 167.69064142 348.24523822 170.18244997 346.87103271 172.67428589 C346.16675265 173.95137472 345.46252879 175.22849456 344.75836182 176.50564575 C341.75075491 181.96046143 338.74017748 187.41363311 335.72851562 192.86621094 C334.21568533 195.60896371 332.70865791 198.35480135 331.203125 201.1015625 C319.62935367 222.12354878 319.62935367 222.12354878 308 226 C296.89090287 226.88267514 288.89329558 226.28282653 279.79296875 219.30859375 C272.5904565 212.90784539 269.30815492 204.40209946 268 195 C267.80964133 190.54912633 267.81418831 186.0988779 267.81469727 181.64453125 C267.81253447 179.5336415 267.79441348 177.42329591 267.77539062 175.3125 C267.74360115 167.39564406 268.24299914 159.84191109 269.55688477 152.00732422 C270.15446508 147.95167997 270.14106718 144.09094832 270 140 C266.70231845 141.37145141 265.27895276 142.64026061 263.51171875 145.7265625 C263.06054688 146.4987915 262.609375 147.27102051 262.14453125 148.06665039 C261.42330078 149.33303345 261.42330078 149.33303345 260.6875 150.625 C259.62064883 152.45048237 258.55153742 154.27464522 257.48046875 156.09765625 C256.91634277 157.06074707 256.3522168 158.02383789 255.77099609 159.01611328 C252.76354505 164.08325785 249.63317224 169.07244004 246.5 174.0625 C245.86787598 175.06966064 245.23575195 176.07682129 244.58447266 177.11450195 C243.32771742 179.11520593 242.07024259 181.11545809 240.81201172 183.11523438 C239.08834331 185.85935535 237.37304282 188.60851501 235.66015625 191.359375 C232.80884208 195.92934398 229.9270762 200.47816423 227 205 C226.61763184 205.59184082 226.23526367 206.18368164 225.84130859 206.79345703 C221.0277756 214.14111594 216.44961671 219.1834611 208 222 C197.24541639 222.98502943 189.54965216 220.56136096 181 214 C173.52158268 206.30162923 171.70713282 196.35419641 171.68310547 185.97705078 C172.08780222 164.46816807 177.44294423 142.92007919 182 122 C182.56323484 119.38324516 183.12337851 116.76584195 183.68359375 114.1484375 C183.9355249 112.97200684 184.18745605 111.79557617 184.44702148 110.58349609 C184.62950439 109.73094238 184.8119873 108.87838867 185 108 C177.43070292 115.91827898 170.27552067 123.96531667 163.6015625 132.65234375 C161.22147056 135.74505389 158.72205945 138.71950612 156.1875 141.6875 C147.05460948 152.58007165 138.66180654 164.11094433 131.11206055 176.15283203 C128.15161775 180.84974777 124.89245661 185.25215706 121.52734375 189.6640625 C105.45206711 208.9143422 105.45206711 208.9143422 98.75390625 231.98828125 C98.72226041 233.64746582 98.69034815 235.30664533 98.65820312 236.96582031 C98.64281494 237.83839478 98.62742676 238.71096924 98.61157227 239.60998535 C98.26565856 258.66019293 97.56925802 277.67188535 95.74560547 296.64697266 C94.80792913 306.59645932 94.58588834 316.57716528 94.24172974 326.56057739 C93.57796285 345.4075657 92.63839055 364.08743324 90.37353516 382.81787109 C90.00525178 385.95526035 89.68941074 389.09395056 89.38671875 392.23828125 C86.51598046 420.76694998 80.11217013 449.18714386 68 475.25 C67.60901123 476.0958667 67.21802246 476.9417334 66.81518555 477.81323242 C63.89495894 483.83039678 60.2309467 488.8417051 56 494 C55.08232218 495.20756558 54.16546744 496.41575785 53.25 497.625 C46.42325919 505.43217699 36.71063229 510.02087209 26.5390625 511.3125 C18.46371111 511.72008871 10.6050368 509.35071135 4.1875 504.375 C-11.0575436 489.63812452 -14.87467766 461.85375844 -15.421875 441.72265625 C-15.66218056 399.84941197 -1.56399116 358.51421152 16 321 C16.75798398 319.3379108 17.51456298 317.67517994 18.26953125 316.01171875 C23.48465273 304.63550421 29.40443195 293.68270565 35.48144531 282.74755859 C36.98094898 280.03446948 38.45864511 277.31064153 39.9296875 274.58203125 C43.82122318 267.38682734 47.65168196 260.31194465 52.375 253.625 C60.54861169 241.56529641 61.65516227 230.33384309 61.57592773 216.22537231 C61.55226527 211.09228378 61.61898175 205.96063815 61.69140625 200.828125 C61.70644196 199.73427994 61.72147766 198.64043488 61.73696899 197.51344299 C61.98570367 183.50178758 62.99736672 169.53687239 64 155.5625 C64.09008331 154.3016861 64.18016663 153.04087219 64.27297974 151.74185181 C64.69513329 145.85883392 65.12440506 139.97637884 65.55859375 134.09423828 C66.09811639 126.73293296 66.56786328 119.36835758 67 112 C66.4738208 112.89412598 65.9476416 113.78825195 65.40551758 114.70947266 C59.23501062 125.16257233 52.69090446 135.36627127 46.125 145.57421875 C43.50382229 149.64963662 40.89779153 153.73375661 38.3125 157.83203125 C27.59055908 174.82610744 16.46440803 191.42544202 4.23388672 207.37548828 C3.20998841 208.72353326 2.2127452 210.09177533 1.22265625 211.46484375 C-7.882499 223.9062391 -22.06929191 240.36431916 -38 243 C-50.89682587 244.2120565 -60.63119234 242.18118875 -71.3125 234.375 C-81.99510154 225.23563142 -87.20322331 211.68787496 -89 198 C-89.42605329 190.26724663 -88.56580551 182.97089819 -87.1875 175.375 C-87.00807861 174.33754639 -86.82865723 173.30009277 -86.64379883 172.23120117 C-85.80884994 167.42718765 -84.93547 162.63126784 -84.03125 157.83984375 C-83.88792236 157.06785645 -83.74459473 156.29586914 -83.59692383 155.50048828 C-83.33242177 154.0869716 -83.05940886 152.67500902 -82.77612305 151.26513672 C-82.07631445 147.54904334 -81.97324681 144.65300624 -83 141 C-86.64181523 141.57332346 -88.28427305 142.93129028 -90.8125 145.5625 C-91.51503906 146.29210938 -92.21757813 147.02171875 -92.94140625 147.7734375 C-95.34179293 150.36968116 -97.67059748 153.0180552 -99.984375 155.69140625 C-106.91169831 163.62560794 -114.06644392 171.22983117 -121.75 178.4375 C-122.65202148 179.28755615 -122.65202148 179.28755615 -123.57226562 180.15478516 C-133.65221265 189.48286728 -141.00093213 193.55564849 -155.15234375 193.3046875 C-165.70330842 192.46917964 -174.23158113 188.1147655 -182 181 C-184.38617067 178.16581362 -186.30766308 175.29246317 -188 172 C-188.53882813 170.95457031 -189.07765625 169.90914062 -189.6328125 168.83203125 C-191.49543576 164.36137677 -191.45259349 160.03507941 -191.375 155.25 C-191.36412354 154.32896484 -191.35324707 153.40792969 -191.34204102 152.45898438 C-190.62010116 120.66093915 -177.65312654 93.78300629 -160.18554688 67.79833984 C-158.54433115 65.30880215 -157.0323518 62.74506813 -155.5 60.1875 C-146.4476914 46.00554986 -133.2912874 34.18076052 -116.8125 29.75 C-103.26135202 27.16210716 -89.89322129 29.13648873 -78.0625 36.3125 C-68.38756428 43.04535001 -63.46400535 50.76740815 -58 61 C-53.63422726 60.6147321 -53.63422726 60.6147321 -50.05078125 58.27734375 C-49.47714844 57.50519531 -48.90351562 56.73304688 -48.3125 55.9375 C-47.63316406 55.03 -46.95382812 54.1225 -46.25390625 53.1875 C-42.76753396 48.25703243 -39.3301685 43.29617504 -35.9375 38.30078125 C-32.42835627 33.14229267 -28.82365049 28.05275924 -25.21777344 22.96166992 C-22.46119855 19.06952773 -19.72027969 15.16766776 -17 11.25 C-8.36139062 -1.07888911 -8.36139062 -1.07888911 0 0 Z " fill="#764C37" transform="translate(1076,894)"/>
<path d="M0 0 C8.12101518 3.8216542 13.65154932 11.88090721 17 20 C26.65667741 48.97003224 9.17724363 92.95580876 0.55932617 120.6328125 C-1.48713246 127.21832213 -3.34791693 133.83708648 -5.125 140.5 C-7.08681941 147.83751355 -9.25407387 155.02204901 -11.73291016 162.203125 C-12.93733184 165.75682244 -13.99344391 169.34177854 -15.02734375 172.94921875 C-17.46928827 181.35493126 -20.07066472 189.70997691 -22.6875 198.0625 C-22.90026518 198.74185293 -23.11303036 199.42120586 -23.33224297 200.12114525 C-25.11130188 205.80009086 -26.89403965 211.47788028 -28.67687988 217.15563965 C-37.91152138 246.26375779 -37.91152138 246.26375779 -46.0625 275.6875 C-47.62152224 281.7584635 -49.20411326 287.80633935 -51 293.8125 C-53.84220647 303.60754214 -55.97513402 313.5847284 -58.21337891 323.53125 C-58.97485335 326.88911122 -59.7564518 330.24167778 -60.54296875 333.59375 C-64.49427932 350.61448825 -67.48070757 367.71170352 -70 385 C-70.28254639 386.93480225 -70.28254639 386.93480225 -70.57080078 388.90869141 C-74.25705509 414.61571948 -76.15320218 440.17029895 -76.25 466.125 C-76.25535767 466.93228546 -76.26071533 467.73957092 -76.26623535 468.57131958 C-76.32364913 479.91590513 -76.18678445 491.18785899 -72.0625 501.9375 C-71.74410156 502.79214844 -71.42570312 503.64679688 -71.09765625 504.52734375 C-69.90141279 507.22208435 -68.74234535 509.61419858 -67 512 C-63.92133761 513.16222596 -61.16275383 512.75663967 -58 512 C-49.29532309 507.63981949 -42.98269171 498.43846706 -37 491 C-36.29955566 490.14970215 -36.29955566 490.14970215 -35.58496094 489.28222656 C-27.00276446 478.78474245 -21.29779872 467.12858774 -15.43457031 454.9609375 C-2.06148375 427.35903248 -2.06148375 427.35903248 5 421 C8.25641174 419.90244946 10.76656274 419.8118092 14 421 C15.8203125 422.18359375 15.8203125 422.18359375 17 424 C16.86864544 429.49226243 14.27684273 434.2921218 12 439.1875 C11.59918213 440.06317627 11.19836426 440.93885254 10.78540039 441.84106445 C7.31576989 449.39349 3.76827501 456.90970861 0.1796875 464.40625 C-1.24618214 467.39138926 -2.63597662 470.38884948 -3.9921875 473.40625 C-13.38960887 494.20455604 -27.40882207 519.4479786 -50 528 C-58.45417083 530.25444555 -67.68384581 529.42874743 -76 527 C-76.66644531 526.81695313 -77.33289063 526.63390625 -78.01953125 526.4453125 C-87.97749598 523.26347762 -95.03815235 515.98620336 -100 507 C-107.47609181 491.33393983 -111.13836176 476.88107348 -111.203125 459.515625 C-111.20882507 458.30598083 -111.21452515 457.09633667 -111.22039795 455.85003662 C-111.22982549 453.28479884 -111.23637298 450.71954907 -111.24023438 448.15429688 C-111.2497954 444.33179727 -111.28077908 440.50987028 -111.3125 436.6875 C-111.38679267 419.60530034 -110.25284589 402.93062287 -108 386 C-107.8260672 384.68642517 -107.8260672 384.68642517 -107.64862061 383.34631348 C-106.95373544 378.21626276 -106.16243302 373.10645535 -105.3125 368 C-105.18783356 367.23961426 -105.06316711 366.47922852 -104.9347229 365.69580078 C-102.01023392 347.96649849 -98.13923791 330.47989916 -94 313 C-93.62025574 311.3881893 -93.24053608 309.7763728 -92.86083984 308.16455078 C-88.90241801 291.40417363 -84.91444602 274.65198596 -79.94628906 258.15722656 C-79.00968437 255.03231122 -78.08907564 251.90306139 -77.17092896 248.77268982 C-66.55836316 212.62693297 -54.90880626 176.8654669 -42.22427368 141.39437866 C-33.09337132 115.85132082 -24.76688144 90.07184173 -16.8515625 64.12817383 C-15.45675827 59.57318212 -14.06858393 55.06824881 -12.296875 50.64453125 C-10.9851529 46.95827608 -10.51526382 43.89306526 -10.3125 40 C-10.21388672 38.2984375 -10.21388672 38.2984375 -10.11328125 36.5625 C-10.07589844 35.716875 -10.03851562 34.87125 -10 34 C-22.57607386 39.4804824 -30.07756167 54.73103251 -37 66 C-37.40686035 66.66064453 -37.8137207 67.32128906 -38.23291016 68.00195312 C-50.21268012 87.59718882 -60.81601171 108.01917345 -70.51464844 128.82617188 C-71.83277186 131.64267491 -73.16389285 134.45261279 -74.50163269 137.25984192 C-85.15759545 159.62594181 -95.15459036 182.26712602 -105 205 C-105.33771423 205.77939941 -105.67542847 206.55879883 -106.02337646 207.36181641 C-113.03401098 223.54901454 -119.92574701 239.78149037 -126.67428589 256.0796814 C-133.48721885 272.52821371 -140.57728445 288.81571161 -148 305 C-148.80800049 306.7624707 -148.80800049 306.7624707 -149.63232422 308.56054688 C-152.86064201 315.58637829 -156.11920758 322.59744929 -159.40478516 329.59667969 C-160.47103118 331.87146841 -161.53318792 334.14817822 -162.59130859 336.42675781 C-178.59416835 370.87081954 -178.59416835 370.87081954 -187 375 C-194.26933504 376.95712867 -199.73745169 374.76177609 -206.125 371.3125 C-214.41230184 364.64662678 -219.0921433 357.26027448 -220.4296875 346.5637207 C-220.64911783 342.68306432 -220.71660093 338.82250225 -220.6875 334.9375 C-220.68712738 334.23012695 -220.68675476 333.52275391 -220.68637085 332.79394531 C-220.61975295 317.97713351 -217.97387426 304.08924315 -214.5408783 289.71452332 C-213.0770372 283.52524033 -211.85498447 277.29630542 -210.63671875 271.0546875 C-208.31127968 259.2263746 -205.61770545 247.50799256 -202.77050781 235.79541016 C-201.99532271 232.60575433 -201.2275738 229.41437648 -200.4609375 226.22265625 C-197.96858476 215.8823358 -195.41895832 205.56255173 -192.64819336 195.2928772 C-190.53713597 187.42941446 -188.70226582 180.18768989 -189 172 C-193.36621646 174.22167905 -195.89467848 177.03635916 -198.625 181 C-199.26949097 181.92522461 -199.26949097 181.92522461 -199.92700195 182.86914062 C-230.70959241 227.88262672 -253.82550798 285.3331108 -266.9375 338.125 C-268.82337095 345.53661327 -270.79743233 352.90775788 -272.9375 360.25 C-275.29106628 368.33530172 -277.42322635 376.46450118 -279.5 384.625 C-281.67222442 393.13243421 -284.0146073 401.52724443 -286.73266602 409.87524414 C-288.79041669 416.22908398 -290.64191773 422.62990352 -292.4375 429.0625 C-292.72866699 430.10365967 -293.01983398 431.14481934 -293.31982422 432.2175293 C-294.87125155 437.80719305 -296.37310601 443.40687807 -297.82421875 449.0234375 C-298.12593994 450.179646 -298.42766113 451.33585449 -298.73852539 452.52709961 C-299.31141525 454.73109255 -299.8750616 456.93751818 -300.42749023 459.14672852 C-302.1911191 465.9183521 -304.6133752 471.8754154 -308 478 C-311.04263267 478.10845027 -314.08136204 478.18752063 -317.125 478.25 C-317.9809375 478.28351563 -318.836875 478.31703125 -319.71875 478.3515625 C-325.36347839 478.43840448 -328.52718374 477.77994135 -333 474 C-339.38725675 467.46066571 -342.44216417 460.36135394 -342.50418091 451.19897461 C-342.48991058 450.25932861 -342.47564026 449.31968262 -342.4609375 448.3515625 C-342.46092743 447.34988037 -342.46091736 446.34819824 -342.46090698 445.31616211 C-342.45394325 442.0852408 -342.41623397 438.855652 -342.375 435.625 C-342.35860476 433.38590816 -342.34265629 431.14681301 -342.32714844 428.90771484 C-342.18741401 413.53061406 -341.65918156 398.29578387 -340 383 C-339.85330812 381.60257788 -339.70700998 380.20511439 -339.56103516 378.80761719 C-337.95927837 363.57739038 -336.25781544 348.36585573 -333.703125 333.26171875 C-333.06824257 329.5035964 -332.54055759 325.7368439 -332.03076172 321.95996094 C-328.48460753 295.90102416 -323.37884884 270.23302751 -317.32644653 244.65177917 C-316.0917444 239.42645918 -314.93866666 234.18699532 -313.8125 228.9375 C-312.09522375 221.07120707 -309.93242907 213.35363689 -307.73583984 205.61132812 C-303.87833496 191.92192127 -300.18578017 178.2126812 -297.125 164.32226562 C-294.91898322 154.42329224 -292.45665456 144.58907074 -290 134.75 C-289.79039642 133.90677185 -289.58079285 133.0635437 -289.36483765 132.19476318 C-286.77146523 121.77027634 -284.04811817 111.39381953 -281.1315918 101.05493164 C-280.33853909 98.23862781 -279.57757629 95.41586581 -278.83740234 92.58520508 C-276.63580141 84.17453306 -273.58963749 76.43040624 -269.875 68.5625 C-269.44292236 67.64364014 -269.01084473 66.72478027 -268.56567383 65.77807617 C-265.38725949 59.25817299 -265.38725949 59.25817299 -262 57 C-256.39476339 56.54055438 -252.80701708 56.79532194 -248 60 C-244.10056861 63.72612333 -242.56024717 66.43520427 -242.0246582 71.80639648 C-241.98187376 75.61251719 -242.98800644 79.04224655 -244 82.6875 C-246.59921281 92.75956563 -248.55458578 102.90143583 -250.4375 113.125 C-252.63795829 125.00679128 -254.9728121 136.82941325 -257.66210938 148.61230469 C-259.13842564 155.09298434 -260.55487852 161.58216096 -261.90625 168.08984375 C-262.15401436 169.28291641 -262.15401436 169.28291641 -262.40678406 170.50009155 C-262.74589074 172.13404079 -263.08493532 173.76800292 -263.42391968 175.40197754 C-266.22683741 188.89875344 -269.19386073 202.325602 -272.49365234 215.71118164 C-274.74172599 224.84165116 -276.79692647 234.00520798 -278.79907227 243.19238281 C-280.18401 249.4931799 -281.67673478 255.74983119 -283.29882812 261.99365234 C-289.02998868 284.08647012 -292.38389483 306.50505639 -295.21313477 329.1237793 C-296.21240665 336.98656294 -297.50960158 344.58038206 -299.40234375 352.29077148 C-300.11265405 355.51067074 -300.30649768 358.52023097 -300.1875 361.8125 C-300.16042969 362.80894531 -300.13335938 363.80539062 -300.10546875 364.83203125 C-300.07066406 365.54746094 -300.03585937 366.26289062 -300 367 C-298.68 367.33 -297.36 367.66 -296 368 C-295.81751709 367.32630371 -295.63503418 366.65260742 -295.44702148 365.95849609 C-275.84440545 293.80431939 -250.46545981 214.91671192 -205.75 154.25 C-205.27876709 153.60603271 -204.80753418 152.96206543 -204.32202148 152.29858398 C-200.67747197 147.49489614 -196.46708633 142.73354316 -191 140 C-181.51328742 139.09720832 -174.31566726 140.56759598 -166.6875 146.3125 C-159.87358257 153.12641743 -157.79023495 161.37854851 -157.64854431 170.84376526 C-157.65237625 171.65715866 -157.65620819 172.47055206 -157.66015625 173.30859375 C-157.66362564 174.17939072 -157.66709503 175.05018768 -157.67066956 175.94737244 C-157.82162053 184.35287117 -159.1665768 192.33590268 -160.90408325 200.54119873 C-161.85893365 205.0544907 -162.74734759 209.58119667 -163.6484375 214.10546875 C-163.84053299 215.06040222 -164.03262848 216.01533569 -164.23054504 216.99920654 C-166.54843853 228.58753268 -168.54408675 240.23156259 -170.5625 251.875 C-173.49115696 268.71564587 -176.55611385 285.51728807 -179.96899414 302.26708984 C-180.10760864 302.95766983 -180.24622314 303.64824982 -180.38903809 304.35975647 C-180.75500271 306.1818966 -181.12733841 308.00275404 -181.50024414 309.82348633 C-181.99070751 312.9409357 -182.09257789 315.85026788 -182 319 C-174.58289132 316.52763044 -171.01514166 305.37069954 -167.67185974 298.71853638 C-166.50539358 296.37730769 -165.34562905 294.03286298 -164.1875 291.6875 C-163.78582611 290.87788818 -163.38415222 290.06827637 -162.9703064 289.23413086 C-153.54825969 270.23939732 -145.11246016 250.96751584 -136.99926758 231.38500977 C-131.78114657 218.80202877 -126.41391585 206.28796014 -120.98217773 193.79589844 C-120.31097595 192.25197886 -119.63983325 190.7080336 -118.96875 189.1640625 C-118.63782852 188.40283081 -118.30690704 187.64159912 -117.96595764 186.8572998 C-115.68936885 181.6116669 -113.44536536 176.35295658 -111.21875 171.0859375 C-102.90885549 151.44995145 -94.16655004 132.06756954 -84.89910889 112.86395264 C-84.04917227 111.10193958 -83.20246492 109.33836989 -82.35595703 107.57470703 C-75.50394781 93.35130063 -67.91924922 79.70203913 -59.84716797 66.13867188 C-57.90852409 62.84456592 -56.01380704 59.52825427 -54.12890625 56.203125 C-20.98313829 -2.237769 -20.98313829 -2.237769 0 0 Z " fill="#774C37" transform="translate(894,685)"/>
<path d="M0 0 C0.92876953 -0.00322266 1.85753906 -0.00644531 2.81445312 -0.00976562 C23.65912961 0.15114065 41.99317539 10.40468555 57.03515625 24.2421875 C75.05875921 43.37430362 78.72155128 70.34496894 78.06494141 95.44921875 C76.79824539 123.90862653 59.31230938 146.91405056 41.9375 168.3125 C41.18210937 169.25867188 40.42671875 170.20484375 39.6484375 171.1796875 C31.48911951 181.30172803 22.64647104 190.74185174 13.69702148 200.16064453 C7.66697747 206.52729387 1.99485621 212.59771063 -2.25 220.3125 C-2.57935547 220.89 -2.90871094 221.4675 -3.24804688 222.0625 C-7.55925375 229.74210509 -10.01294151 237.16624502 -12.0625 245.6875 C-12.32305176 246.76572021 -12.58360352 247.84394043 -12.85205078 248.95483398 C-15.5495451 260.62288868 -16.93210638 272.40354287 -18.0625 284.3125 C-35.23536024 267.96525805 -43.08822228 235.20291788 -51.0625 213.3125 C-51.49401367 212.14138672 -51.92552734 210.97027344 -52.37011719 209.76367188 C-70.14262847 160.96639184 -84.02457466 93.01839203 -62.20898438 43.24755859 C-58.93786221 36.25029679 -55.20940029 30.1119977 -50.0625 24.3125 C-49.60617187 23.71566406 -49.14984375 23.11882812 -48.6796875 22.50390625 C-37.33556279 7.95101484 -18.12649818 -0.31579265 0 0 Z " fill="#764B36" transform="translate(999.0625,386.6875)"/>
<path d="M0 0 C1.06476563 -0.020625 2.12953125 -0.04125 3.2265625 -0.0625 C25.89653351 -0.1725484 49.43571086 10.87812497 65.875 26.25 C68.94664965 29.71232051 71.48979103 33.28832613 73.875 37.25 C74.55369141 38.34054687 74.55369141 38.34054687 75.24609375 39.453125 C79.18729232 46.81730227 78.99587529 55.31311109 77.1796875 63.3125 C75.14084336 69.48043184 72.15902359 74.39821425 67.875 79.25 C67.35035156 79.85585938 66.82570313 80.46171875 66.28515625 81.0859375 C54.77866073 93.48587855 37.16596109 98.18452563 20.875 100.25 C19.13367798 100.49867073 19.13367798 100.49867073 17.35717773 100.75236511 C8.57804545 101.95658145 0.01595175 102.5245112 -8.8616333 102.49382973 C-11.02040327 102.48805966 -13.17866955 102.49767454 -15.33740234 102.5110321 C-21.46275361 102.54742648 -27.58792142 102.56685076 -33.71337891 102.55541992 C-72.3977152 101.80801451 -72.3977152 101.80801451 -105.9375 118.5 C-108.26789871 121.10686693 -108.26789871 121.10686693 -109.125 124.25 C-109.785 124.25 -110.445 124.25 -111.125 124.25 C-113.71004514 93.80391279 -96.9955658 60.47009526 -77.98046875 37.6796875 C-57.80321631 14.56948943 -30.93708206 0.14662124 0 0 Z " fill="#764B36" transform="translate(1156.125,541.75)"/>
<path d="M0 0 C1.0725 0.474375 2.145 0.94875 3.25 1.4375 C22.21436842 10.74077507 32.65144471 26.56936071 39.37548828 46.07763672 C45.4314989 64.71916432 46.30737893 83.32197854 46.53173828 102.74804688 C46.63953328 123.94792196 46.63953328 123.94792196 51.75 144.375 C52.0073291 145.03564453 52.2646582 145.69628906 52.52978516 146.37695312 C54.69805329 151.72998821 57.44437845 156.46090867 61 161 C21.19194881 155.43976613 -26.11214377 119.21665793 -55 92 C-55.83144531 91.24460937 -56.66289063 90.48921875 -57.51953125 89.7109375 C-68.1369473 79.69696906 -77.97370063 65.79830705 -79.17700195 50.79272461 C-79.61566378 33.68141805 -78.04667643 22.69548332 -66.00390625 9.875 C-49.71895876 -5.90197665 -20.43542445 -9.13072156 0 0 Z " fill="#764B36" transform="translate(845,502)"/>
<path d="M0 0 C3.875 1.875 3.875 1.875 5 3 C5.06919152 4.52998167 5.0675819 6.06323054 5.03759766 7.59448242 C5.02068878 8.57965851 5.00377991 9.56483459 4.98635864 10.5798645 C4.95057205 12.2012886 4.95057205 12.2012886 4.9140625 13.85546875 C4.89318573 14.97283417 4.87230896 16.09019958 4.85079956 17.24142456 C4.78093382 20.89024569 4.70333563 24.53885159 4.625 28.1875 C4.57471822 30.67048847 4.52458794 33.15348002 4.47460938 35.63647461 C4.20425109 48.77980956 3.91223348 61.92277002 3.5 75.0625 C3.46471191 76.24030029 3.42942383 77.41810059 3.39306641 78.6315918 C3.35616699 79.69289307 3.31926758 80.75419434 3.28125 81.84765625 C3.25095703 82.73461182 3.22066406 83.62156738 3.18945312 84.53540039 C2.99300138 87.09104519 2.51548941 89.49135133 2 92 C1.85311099 93.48585152 1.73391187 94.97466635 1.640625 96.46484375 C0.83398505 107.92487756 -0.5093364 119.22767352 -2.375 130.5625 C-2.5719043 131.78509521 -2.76880859 133.00769043 -2.97167969 134.26733398 C-5.98477207 151.98302382 -11.25222024 181.20092766 -23.5 195.3125 C-26 197 -26 197 -28.5625 197.125 C-35.43958385 193.9509613 -38.47555893 184.91183936 -41.19238281 178.24755859 C-59.22719235 128.05757775 -37.00367608 69.77373802 -15.70068359 24.22167969 C-11.47993866 15.53697763 -6.89485135 6.89485135 0 0 Z " fill="#EDE5DB" transform="translate(1130,1189)"/>
<path d="M0 0 C5.05368824 3.48142968 6.7212527 8.532882 9 14 C10.90447213 18.4437683 12.65976302 21.08721272 17.1875 23 C17.88230469 23.226875 18.57710937 23.45375 19.29296875 23.6875 C21 25 21 25 22.0703125 28.1796875 C21.97478634 33.36994231 20.04373057 35.37013286 16.6875 39.125 C15.56640493 40.44681229 14.4466336 41.76974834 13.328125 43.09375 C12.76416016 43.74988281 12.20019531 44.40601563 11.61914062 45.08203125 C9.28283478 47.84952503 7.11182411 50.7298859 4.9375 53.625 C0.2949225 59.72006624 -4.61349761 65.56073982 -9.60986328 71.3671875 C-10.95609789 72.94843391 -12.27582841 74.5481858 -13.58984375 76.15625 C-19.56655833 83.40495444 -25.96566869 90.22343644 -32.55990601 96.91238403 C-33.95649414 98.33081374 -35.34424389 99.7579289 -36.73168945 101.18530273 C-43.02877688 107.49943542 -49.47732442 112.25272626 -57 117 C-57.495 117.495 -57.495 117.495 -58 118 C-60.9375 118.1875 -60.9375 118.1875 -64 118 C-66.65665452 115.34334548 -66.32932174 114.02614286 -66.375 110.3125 C-66.22893835 102.45094657 -64.34084934 95.45384612 -62 88 C-61.76925781 87.23187988 -61.53851562 86.46375977 -61.30078125 85.67236328 C-52.78455699 57.41449483 -38.33098512 17.54272761 -12 1 C-7.92459129 -0.35846957 -4.25724155 -0.63821081 0 0 Z " fill="#EEE5DB" transform="translate(990,940)"/>
<path d="M0 0 C7.28806281 5.04126117 14.04304139 12.82322237 15.71484375 21.71484375 C16.91199136 32.70438975 15.12074629 41.36674744 8.80078125 50.47265625 C2.94175277 57.61001822 -5.03129297 63.08588654 -14.28515625 64.71484375 C-26.96968259 65.63488668 -37.28234995 64.06811085 -47.27734375 55.703125 C-54.05962938 48.98681491 -57.44963133 41.48998109 -57.66552734 31.8671875 C-57.64653243 24.69747096 -57.24901015 18.87672255 -53.28515625 12.71484375 C-52.86105469 12.02003906 -52.43695312 11.32523438 -52 10.609375 C-40.53884526 -6.40676839 -17.25446994 -9.70379592 0 0 Z " fill="#EDE5DB" transform="translate(1075.28515625,1438.28515625)"/>
<path d="M0 0 C5.12282759 -0.09945752 10.24508354 -0.17174409 15.36865234 -0.21972656 C17.10866089 -0.23974522 18.84860299 -0.26696886 20.58837891 -0.30175781 C23.10075346 -0.35070952 25.61223275 -0.37306587 28.125 -0.390625 C28.89303955 -0.41127014 29.6610791 -0.43191528 30.45239258 -0.45318604 C36.06523856 -0.45547712 40.30773967 0.87679997 45 4 C49.12855939 8.45449829 51.28961264 11.75644649 51.3125 17.875 C51.32925781 18.90367188 51.34601563 19.93234375 51.36328125 20.9921875 C50.86458709 25.12116069 49.33842335 27.68111567 46.39453125 30.58203125 C44.9296875 31.72135417 43.46484375 32.86067708 42 34 C43.47236687 39.29390337 45.92998658 43.43222408 48.875 48 C49.30941406 48.68578125 49.74382812 49.3715625 50.19140625 50.078125 C51.04808133 51.42616626 51.91058121 52.77052625 52.77929688 54.11083984 C53.90032077 55.84573642 54.99449892 57.59790275 56.0859375 59.3515625 C57.89610566 61.85624416 59.0358732 63.0179366 61.75 64.375 C62.8225 64.91125 63.895 65.4475 65 66 C65 66.66 65 67.32 65 68 C59.1621821 68.48648483 54.75976554 67.54980645 50 64 C45.68864013 59.74028227 42.77733882 55.00375377 39.86425781 49.7277832 C35.63560908 41.42885241 35.63560908 41.42885241 28.33203125 36.3203125 C25.09950769 35.86204853 22.24584223 35.84636128 19 36 C19.02274586 40.10540451 19.09997934 44.20800559 19.1875 48.3125 C19.19330078 49.47974609 19.19910156 50.64699219 19.20507812 51.84960938 C19.23408203 52.96787109 19.26308594 54.08613281 19.29296875 55.23828125 C19.3086792 56.26993408 19.32438965 57.30158691 19.34057617 58.36450195 C19.76152598 61.20703091 19.76152598 61.20703091 22.3684082 62.81713867 C24.94167542 63.97378397 27.21442381 64.60206054 30 65 C30 65.66 30 66.32 30 67 C20.43 67 10.86 67 1 67 C1 66.34 1 65.68 1 65 C2.134375 64.71125 3.26875 64.4225 4.4375 64.125 C5.613125 63.75375 6.78875 63.3825 8 63 C9.30760893 60.38478215 9.11997548 58.46886599 9.11352539 55.54052734 C9.11341209 53.82897964 9.11341209 53.82897964 9.11329651 52.08285522 C9.10813522 50.84637238 9.10297394 49.60988953 9.09765625 48.3359375 C9.0962413 47.07359283 9.09482635 45.81124817 9.09336853 44.51065063 C9.08871078 41.15361701 9.07972408 37.796651 9.06866455 34.43963623 C9.0584377 31.01445094 9.05386818 27.58925866 9.04882812 24.1640625 C9.03778238 17.44268957 9.02103194 10.72134869 9 4 C4.545 3.01 4.545 3.01 0 2 C0 1.34 0 0.68 0 0 Z " fill="#784E39" transform="translate(1098,1435)"/>
<path d="M0 0 C9.78702662 4.35799676 18.70712509 14.94034226 24 24 C25.69654942 31.7342694 22.93608599 39.28201355 18.8671875 45.8203125 C15.22709281 50.61752339 11.111044 53.49028093 5.234375 54.453125 C-2.52764495 54.89098254 -8.11100795 53.12320737 -14 48 C-20.31030009 40.2793333 -20.70209386 32.7304276 -20 23 C-18.44522859 14.96849513 -15.80989749 7.90285585 -10 2 C-6.15543246 -0.56304503 -4.5779655 -0.59070523 0 0 Z " fill="#774D38" transform="translate(1169,822)"/>
<path d="M0 0 C3.3 0 6.6 0 10 0 C13.40561543 7.73020645 16.28604337 15.54673134 19.03125 23.53125 C19.57265625 25.09830688 19.57265625 25.09830688 20.125 26.69702148 C21.6374314 31.07809745 23.14771562 35.45967678 24.63427734 39.84960938 C25.73122956 43.08203158 26.84821949 46.30693825 27.96875 49.53125 C28.29911255 50.52290161 28.6294751 51.51455322 28.96984863 52.53625488 C30.77158438 57.66578917 32.07745596 61.15384583 37 64 C38.485 64.495 38.485 64.495 40 65 C40 65.66 40 66.32 40 67 C30.43 67 20.86 67 11 67 C11 66.34 11 65.68 11 65 C13.97 64.34 16.94 63.68 20 63 C21.03994977 58.84020092 20.95550771 58.03612635 19.56640625 54.234375 C19.24736328 53.34492187 18.92832031 52.45546875 18.59960938 51.5390625 C18.25736328 50.61867188 17.91511719 49.69828125 17.5625 48.75 C17.22412109 47.81414062 16.88574219 46.87828125 16.53710938 45.9140625 C15.70098323 43.60588328 14.85174132 41.30246281 14 39 C7.4 39 0.8 39 -6 39 C-7.20066056 42.24567593 -8.38581993 45.49563911 -9.5625 48.75 C-9.90474609 49.67039062 -10.24699219 50.59078125 -10.59960938 51.5390625 C-10.91865234 52.42851563 -11.23769531 53.31796875 -11.56640625 54.234375 C-11.86490479 55.05131836 -12.16340332 55.86826172 -12.47094727 56.70996094 C-13.24968905 59.28951887 -13.24968905 59.28951887 -12 63 C-7.545 63.99 -7.545 63.99 -3 65 C-3 65.66 -3 66.32 -3 67 C-11.25 67 -19.5 67 -28 67 C-28 66.34 -28 65.68 -28 65 C-26.88625 64.690625 -26.88625 64.690625 -25.75 64.375 C-19.72817958 61.36408979 -18.05627838 54.88664358 -16.00619507 48.8764801 C-15.48879257 47.3153373 -15.48879257 47.3153373 -14.9609375 45.72265625 C-14.41054306 44.09558998 -14.41054306 44.09558998 -13.84902954 42.43565369 C-12.6827501 38.98065684 -11.52892916 35.52163865 -10.375 32.0625 C-9.59191855 29.7399737 -8.80807229 27.41770511 -8.0234375 25.09570312 C-3.77132385 12.62274023 -3.77132385 12.62274023 0 0 Z " fill="#7B513C" transform="translate(756,1435)"/>
<path d="M0 0 C3.3 0 6.6 0 10 0 C12.93090977 6.38664368 15.44686624 12.80528976 17.75 19.44140625 C18.44784711 21.42645675 19.14576594 23.41148203 19.84375 25.39648438 C20.92488254 28.4853292 22.00427922 31.57476895 23.08203125 34.66479492 C24.13355263 37.67525283 25.19148488 40.68340163 26.25 43.69140625 C26.56678711 44.60620255 26.88357422 45.52099884 27.20996094 46.46351624 C29.94710688 55.87521998 29.94710688 55.87521998 35.796875 63.15504456 C37.93114741 64.12071612 37.93114741 64.12071612 41 65 C41 65.66 41 66.32 41 67 C31.1 67 21.2 67 11 67 C11 66.34 11 65.68 11 65 C13.97 64.34 16.94 63.68 20 63 C21.01187664 59.20766234 20.98208839 57.00643848 19.56640625 53.35546875 C19.27967041 52.59645264 18.99293457 51.83743652 18.69750977 51.05541992 C18.32295654 50.10900635 17.94840332 49.16259277 17.5625 48.1875 C16.386875 45.155625 15.21125 42.12375 14 39 C7.4 39 0.8 39 -6 39 C-7.17237387 42.26888939 -8.33809988 45.53988944 -9.5 48.8125 C-9.83386719 49.74126953 -10.16773438 50.67003906 -10.51171875 51.62695312 C-10.82753906 52.51962891 -11.14335938 53.41230469 -11.46875 54.33203125 C-11.76201172 55.15421143 -12.05527344 55.9763916 -12.35742188 56.82348633 C-13.14157525 59.10130654 -13.14157525 59.10130654 -13 62 C-9.55549263 64.29633824 -7.06187717 64.54016485 -3 65 C-3 65.66 -3 66.32 -3 67 C-11.25 67 -19.5 67 -28 67 C-28 66.34 -28 65.68 -28 65 C-26.90647217 64.64655518 -25.81294434 64.29311035 -24.6862793 63.92895508 C-21.5456883 62.56872835 -21.06073826 62.10646036 -19.26098633 58.9519043 C-18.82020364 57.6892683 -18.40808933 56.41639124 -18.01953125 55.13671875 C-17.78329544 54.43898849 -17.54705963 53.74125824 -17.30366516 53.02238464 C-16.78933359 51.49799189 -16.2862345 49.96977419 -15.79302979 48.43841553 C-14.97466153 45.92208903 -14.11202135 43.42497486 -13.23583984 40.92822266 C-11.674679 36.47660646 -10.14176763 32.01604885 -8.62084961 27.55053711 C-7.67519428 24.77640042 -6.72351535 22.00437617 -5.77148438 19.23242188 C-5.16370291 17.4532478 -4.55626788 15.67395533 -3.94921875 13.89453125 C-3.66696945 13.0737056 -3.38472015 12.25287994 -3.09391785 11.40718079 C-1.81093907 7.62570839 -0.64218384 3.95491874 0 0 Z " fill="#7A513C" transform="translate(939,1435)"/>
<path d="M0 0 C7.28806281 5.04126117 14.04304139 12.82322237 15.71484375 21.71484375 C16.91199136 32.70438975 15.12074629 41.36674744 8.80078125 50.47265625 C2.94175277 57.61001822 -5.03129297 63.08588654 -14.28515625 64.71484375 C-26.96968259 65.63488668 -37.28234995 64.06811085 -47.27734375 55.703125 C-54.05962938 48.98681491 -57.44963133 41.48998109 -57.66552734 31.8671875 C-57.64653243 24.69747096 -57.24901015 18.87672255 -53.28515625 12.71484375 C-52.86105469 12.02003906 -52.43695312 11.32523438 -52 10.609375 C-40.53884526 -6.40676839 -17.25446994 -9.70379592 0 0 Z M-41.72265625 7.52734375 C-47.69333184 16.69478333 -48.62129336 25.99045268 -47.28515625 36.71484375 C-44.58354428 47.12874971 -39.27213907 54.31628593 -30.1171875 59.76953125 C-24.59196031 62.62050136 -18.60890948 62.48907113 -12.65234375 61.1015625 C-4.81630824 58.38171531 -0.59926305 53.57168842 3.58984375 46.58984375 C7.0246223 37.81207633 7.37924621 26.02710343 4.02734375 17.21484375 C0.19155216 9.12749295 -4.44135925 3.49480748 -12.6171875 -0.39453125 C-23.24258991 -3.94151771 -34.676843 -1.22811536 -41.72265625 7.52734375 Z " fill="#7A503C" transform="translate(1075.28515625,1438.28515625)"/>
<path d="M0 0 C6.6752034 -0.02526945 13.35039457 -0.04283268 20.02563477 -0.05493164 C22.29842591 -0.05997325 24.5712138 -0.06680637 26.84399414 -0.07543945 C30.10303551 -0.08751261 33.36203417 -0.09322987 36.62109375 -0.09765625 C37.64400009 -0.10281754 38.66690643 -0.10797882 39.72080994 -0.11329651 C40.66170975 -0.11337204 41.60260956 -0.11344757 42.57202148 -0.11352539 C43.40475082 -0.115746 44.23748016 -0.11796661 45.09544373 -0.12025452 C47 0 47 0 48 1 C48.07313567 3.53049402 48.09247527 6.03304837 48.0625 8.5625 C48.05798828 9.27341797 48.05347656 9.98433594 48.04882812 10.71679688 C48.03700864 12.47790013 48.01907263 14.23896036 48 16 C47.34 16 46.68 16 46 16 C45.79503906 15.36191406 45.59007812 14.72382812 45.37890625 14.06640625 C45.10949219 13.24011719 44.84007812 12.41382813 44.5625 11.5625 C44.29566406 10.73878906 44.02882813 9.91507813 43.75390625 9.06640625 C43.17844506 7.03780412 43.17844506 7.03780412 42 6 C40.36743242 5.84285346 38.72864662 5.74914586 37.08984375 5.68359375 C36.199021 5.64548584 35.30819824 5.60737793 34.39038086 5.56811523 C33.25093018 5.52501221 32.11147949 5.48190918 30.9375 5.4375 C27.328125 5.293125 23.71875 5.14875 20 5 C20 13.25 20 21.5 20 30 C29.9 29.505 29.9 29.505 40 29 C40.99 26.69 41.98 24.38 43 22 C43.66 22 44.32 22 45 22 C45 29.26 45 36.52 45 44 C44.34 44 43.68 44 43 44 C42.71125 42.865625 42.4225 41.73125 42.125 40.5625 C41.75375 39.386875 41.3825 38.21125 41 37 C38.70691037 35.85345518 37.20090344 35.80270883 34.6484375 35.68359375 C33.88192871 35.64548584 33.11541992 35.60737793 32.32568359 35.56811523 C31.35195801 35.52501221 30.37823242 35.48190918 29.375 35.4375 C26.28125 35.293125 23.1875 35.14875 20 35 C20.33 43.58 20.66 52.16 21 61 C24.8775 61.12375 28.755 61.2475 32.75 61.375 C33.96655273 61.42962402 35.18310547 61.48424805 36.43652344 61.54052734 C39.38928207 61.58640214 42.094517 61.54594874 45 61 C47.82841745 58.34432527 47.82841745 58.34432527 49 55 C49.4125 54.05125 49.825 53.1025 50.25 52.125 C50.4975 51.42375 50.745 50.7225 51 50 C51.33 50 51.66 50 52 50 C52.02721176 51.89575251 52.04649136 53.79161979 52.0625 55.6875 C52.07410156 56.74324219 52.08570313 57.79898437 52.09765625 58.88671875 C52 62 52 62 51 67 C33.18 67 15.36 67 -3 67 C-3 66.34 -3 65.68 -3 65 C-2.21753906 64.86722656 -1.43507813 64.73445313 -0.62890625 64.59765625 C0.88896484 64.33275391 0.88896484 64.33275391 2.4375 64.0625 C3.44683594 63.88847656 4.45617188 63.71445313 5.49609375 63.53515625 C7.9287438 63.25248903 7.9287438 63.25248903 9 62 C9.10410433 60.26163709 9.13853527 58.51905223 9.14526367 56.77758789 C9.15164352 55.6629567 9.15802338 54.5483255 9.16459656 53.3999176 C9.16570938 52.18642136 9.1668222 50.97292511 9.16796875 49.72265625 C9.17129715 48.48583603 9.17462555 47.24901581 9.17805481 45.97471619 C9.1831293 43.35269545 9.18546298 40.73066822 9.18530273 38.10864258 C9.18522129 35.41293658 9.19218657 32.71739981 9.20581055 30.02172852 C9.22405346 26.15115102 9.22903586 22.28077233 9.23046875 18.41015625 C9.23765427 17.19868423 9.24483978 15.98721222 9.25224304 14.73902893 C9.24916641 13.62124557 9.24608978 12.50346222 9.24291992 11.35180664 C9.24505745 9.87074181 9.24505745 9.87074181 9.24723816 8.35975647 C9.23050073 5.81078395 9.23050073 5.81078395 7 4 C4.68234271 3.28072705 2.34904126 2.6090107 0 2 C0 1.34 0 0.68 0 0 Z " fill="#7E5642" transform="translate(1167,1435)"/>
<path d="M0 0 C8.58 0 17.16 0 26 0 C26 0.66 26 1.32 26 2 C24.7934375 2.4640625 24.7934375 2.4640625 23.5625 2.9375 C21.10919595 3.76335345 21.10919595 3.76335345 20 5 C19.90241667 7.04791115 19.8748376 9.09917946 19.87402344 11.14941406 C19.87021667 12.46878967 19.86640991 13.78816528 19.86248779 15.14752197 C19.862197 16.21384228 19.862197 16.21384228 19.86190033 17.30170441 C19.85848316 20.29748487 19.837101 23.2930487 19.81666946 26.28875351 C19.77873762 31.86635611 19.74736434 37.44373816 19.74951172 43.02148438 C19.75030653 46.90037013 19.72659908 50.77847633 19.6876297 54.6571579 C19.67727105 56.12565337 19.67556972 57.59424001 19.68328094 59.06275177 C19.74189556 71.48132619 17.83815758 83.25638644 8.8125 92.4765625 C4.01428988 96.50954083 -0.8253061 97.49191366 -6.91015625 97.3046875 C-9.76922207 96.88785174 -11.73473671 95.75375222 -14 94 C-13.125 89.125 -13.125 89.125 -12 88 C-6.6 87.52 -6.6 87.52 -4.125 89.5 C-0.83330721 91.82354785 2.03517868 91.19824107 6 91 C7.8575654 86.2741686 8.29185152 82.02686629 8.2746582 77.00683594 C8.27976913 76.22888672 8.28488007 75.4509375 8.29014587 74.64941406 C8.30397575 72.09432149 8.30309119 69.53950039 8.30078125 66.984375 C8.30466966 65.20412089 8.30900463 63.42386771 8.31376648 61.64361572 C8.32121283 57.92155948 8.32094734 54.19959814 8.31567383 50.47753906 C8.30985807 45.70004445 8.32686834 40.92293487 8.3500185 36.145504 C8.36471653 32.47387409 8.36563333 28.80233801 8.36250877 25.1306839 C8.36302321 23.36836225 8.36828374 21.60603551 8.37832069 19.84374237 C8.39060222 17.38743085 8.38394587 14.93188439 8.37231445 12.47558594 C8.37995819 11.74414368 8.38760193 11.01270142 8.39547729 10.25909424 C8.40721061 8.02890445 8.40721061 8.02890445 8 5 C5.08235 3.0549 3.37462715 2.54723683 0 2 C0 1.34 0 0.68 0 0 Z " fill="#7E5541" transform="translate(982,1435)"/>
<path d="M0 0 C15.18 0 30.36 0 46 0 C46 4.29 46 8.58 46 13 C45.34 13 44.68 13 44 13 C43.71125 12.21625 43.4225 11.4325 43.125 10.625 C42.15087746 7.90328368 42.15087746 7.90328368 40 6 C37.47962036 5.62864085 37.47962036 5.62864085 34.5546875 5.5859375 C32.94013672 5.52792969 32.94013672 5.52792969 31.29296875 5.46875 C30.16503906 5.4378125 29.03710938 5.406875 27.875 5.375 C26.17150391 5.31699219 26.17150391 5.31699219 24.43359375 5.2578125 C21.62267013 5.16332767 18.81135696 5.08056679 16 5 C16.33 12.59 16.66 20.18 17 28 C20.58875 28.04125 24.1775 28.0825 27.875 28.125 C29.57052002 28.15231201 29.57052002 28.15231201 31.30029297 28.18017578 C32.18861816 28.1851709 33.07694336 28.19016602 33.9921875 28.1953125 C34.90339355 28.20578613 35.81459961 28.21625977 36.75341797 28.22705078 C39.20290436 28.21870993 39.20290436 28.21870993 41 26 C41.6425235 23.93125966 41.6425235 23.93125966 42 22 C42.66 22 43.32 22 44 22 C44 27.94 44 33.88 44 40 C43.34 40 42.68 40 42 40 C41.505 37.03 41.505 37.03 41 34 C33.08 34 25.16 34 17 34 C16.91929836 38.2712088 16.85963796 42.5409033 16.8125 46.8125 C16.78736328 48.02744141 16.76222656 49.24238281 16.73632812 50.49414062 C16.72666016 51.65751953 16.71699219 52.82089844 16.70703125 54.01953125 C16.6913208 55.09307861 16.67561035 56.16662598 16.65942383 57.27270508 C16.77526703 59.99955183 16.77526703 59.99955183 18.3190918 61.79956055 C20.69672638 63.49757496 23.2124201 64.19469914 26 65 C26 65.66 26 66.32 26 67 C17.42 67 8.84 67 0 67 C0 66.34 0 65.68 0 65 C0.97791504 64.55946289 1.95583008 64.11892578 2.96337891 63.66503906 C4.70558099 62.65820575 4.70558099 62.65820575 6 61 C6.8925113 56.80041284 6.69589331 52.63538648 6.5859375 48.359375 C6.57744781 47.12205627 6.56895813 45.88473755 6.56021118 44.60992432 C6.53232003 41.32778093 6.47846466 38.04741491 6.4119873 34.76586914 C6.35049417 31.4143919 6.32369382 28.06283826 6.29296875 24.7109375 C6.22679468 18.13993008 6.12637399 11.57011038 6 5 C4.02 4.01 2.04 3.02 0 2 C0 1.34 0 0.68 0 0 Z " fill="#7A503C" transform="translate(860,1435)"/>
<path d="M0 0 C10.89 0 21.78 0 33 0 C33 0.66 33 1.32 33 2 C32.21753906 2.13277344 31.43507813 2.26554687 30.62890625 2.40234375 C29.61699219 2.57894531 28.60507812 2.75554687 27.5625 2.9375 C26.55316406 3.11152344 25.54382813 3.28554687 24.50390625 3.46484375 C22.0712562 3.74751097 22.0712562 3.74751097 21 5 C20.90634994 6.7492872 20.88255562 8.50236254 20.88647461 10.25415039 C20.88658791 11.93578026 20.88658791 11.93578026 20.88670349 13.65138245 C20.89186478 14.8711528 20.89702606 16.09092316 20.90234375 17.34765625 C20.90446617 19.2100016 20.90446617 19.2100016 20.90663147 21.10997009 C20.91129409 24.41605491 20.92028503 27.72207146 20.93133545 31.02813721 C20.94155173 34.3996115 20.94612955 37.77109283 20.95117188 41.14257812 C20.96222605 47.76173775 20.97898264 54.38086493 21 61 C24.89558088 61.11643304 28.79071258 61.18732909 32.6875 61.25 C33.79029297 61.28351563 34.89308594 61.31703125 36.02929688 61.3515625 C42.41154774 61.50787891 42.41154774 61.50787891 48.1706543 59.09082031 C49.07618042 58.05586426 49.07618042 58.05586426 50 57 C50.52207031 56.43796875 51.04414062 55.8759375 51.58203125 55.296875 C51.98808594 54.78640625 52.39414062 54.2759375 52.8125 53.75 C53.534375 52.8425 54.25625 51.935 55 51 C55.33 51.66 55.66 52.32 56 53 C53.69 57.62 51.38 62.24 49 67 C32.83 67 16.66 67 0 67 C0 66.34 0 65.68 0 65 C2.01822917 64.57682292 4.03645833 64.15364583 6.0546875 63.73046875 C8.37046549 63.07691162 8.37046549 63.07691162 10 60 C10.32393213 57.53690897 10.32393213 57.53690897 10.30639648 54.75 C10.32238388 53.67878906 10.33837128 52.60757812 10.35484314 51.50390625 C10.36020584 50.34761719 10.36556854 49.19132812 10.37109375 48 C10.38012222 46.81277344 10.3891507 45.62554688 10.39845276 44.40234375 C10.41296853 41.89065072 10.42184527 39.37891976 10.42553711 36.8671875 C10.43745365 33.01498235 10.48664715 29.1643679 10.53710938 25.3125 C10.54657076 22.87500784 10.55380715 20.43750582 10.55859375 18 C10.57812607 16.84371094 10.59765839 15.68742187 10.61778259 14.49609375 C10.61170486 13.42488281 10.60562714 12.35367187 10.59936523 11.25 C10.60443588 10.30640625 10.60950653 9.3628125 10.61473083 8.390625 C10.20531125 5.77021006 10.20531125 5.77021006 7.63832092 4.21484375 C5.05827003 3.02683107 2.80334397 2.40047771 0 2 C0 1.34 0 0.68 0 0 Z " fill="#7A503B" transform="translate(799,1435)"/>
<path d="M0 0 C1.26237731 2.52475462 1.09856404 4.31200466 1.0625 7.125 C1.05347656 8.03507812 1.04445313 8.94515625 1.03515625 9.8828125 C1.02355469 10.58148437 1.01195312 11.28015625 1 12 C-0.82530434 10.23125438 -2.31033902 8.57194618 -3.8125 6.5 C-6.74197725 3.152026 -9.52025775 1.35564083 -13.98828125 0.71484375 C-18.50715841 0.51911084 -21.45313127 1.20549737 -25 4 C-26.5547669 7.10953379 -26.28644437 9.56266761 -26 13 C-22.81308977 19.24634405 -17.67164983 23.07426046 -12.08984375 27.09765625 C1.24330114 36.72990343 1.24330114 36.72990343 4 45 C4.39032004 50.85480059 3.96549032 54.7609671 1 60 C-4.63414696 65.63414696 -9.88973166 67.28582488 -17.75 67.3125 C-24.05281993 67.23890019 -29.09527885 66.14717133 -35 64 C-35.33 59.38 -35.66 54.76 -36 50 C-35.34 50 -34.68 50 -34 50 C-33.02315499 51.56824816 -32.11800553 53.18148961 -31.25 54.8125 C-28.66987413 59.18695801 -27.10648093 61.65111825 -22 63 C-16.70727349 63.60109136 -12.52712348 63.91627409 -7.875 61.125 C-4.72435884 57.55427335 -4.6525453 54.93466903 -4.7265625 50.30859375 C-5.4024573 44.60211055 -9.68347733 41.08871914 -13.875 37.62890625 C-16.38922305 35.70164336 -18.97360268 33.88809472 -21.5625 32.0625 C-26.86691127 28.25383056 -31.86906424 24.39280727 -34 18 C-34.56966451 13.47152768 -35.00460038 8.99484932 -32.90625 4.828125 C-24.33895032 -5.83542886 -11.67257997 -4.13088058 0 0 Z " fill="#7B523D" transform="translate(1264,1436)"/>
<path d="M0 0 C14.07692308 0 14.07692308 0 19 4 C22.76544339 8.82749152 23.59765651 12.54439529 23.3203125 18.63671875 C22.67491815 23.39846972 20.96100774 26.13274911 17.4375 29.3125 C10.95184952 33.80256572 11.20715083 32 0 32 C0 21.44 0 10.88 0 0 Z " fill="#ECE3D8" transform="translate(1117,1437)"/>
<path d="M0 0 C0.66 0 1.32 0 2 0 C3.17192435 3.12305373 4.33663876 6.24874739 5.5 9.375 C5.83386719 10.26445313 6.16773438 11.15390625 6.51171875 12.0703125 C6.82753906 12.92109375 7.14335938 13.771875 7.46875 14.6484375 C7.76201172 15.43395996 8.05527344 16.21948242 8.35742188 17.02880859 C9 19 9 19 9 21 C4.05 21 -0.9 21 -6 21 C-5.55355616 13.41045469 -2.88499438 6.98360263 0 0 Z " fill="#E9DFD4" transform="translate(942,1446)"/>
<path d="M0 0 C3.44958662 1.72479331 3.93071709 5.83536529 5.125 9.3125 C5.40214844 10.08529297 5.67929687 10.85808594 5.96484375 11.65429688 C7.27662491 15.41193602 8 17.93613641 8 22 C3.05 22 -1.9 22 -7 22 C-5.04910592 14.48905779 -2.76288395 7.25081726 0 0 Z " fill="#E9E0D6" transform="translate(759,1445)"/>
</svg>
