<?xml version="1.0" encoding="UTF-8"?>
<svg xmlns="http://www.w3.org/2000/svg" xmlns:xlink="http://www.w3.org/1999/xlink" width="120px" height="120px" viewBox="0 0 120 120" version="1.1">
<g id="surface1">
<path style=" stroke:none;fill-rule:nonzero;fill:rgb(84.705883%,65.490198%,56.470591%);fill-opacity:1;" d="M 0 0 C 39.601562 0 79.199219 0 120 0 C 120 39.601562 120 79.199219 120 120 C 80.398438 120 40.800781 120 0 120 C 0 80.398438 0 40.800781 0 0 Z M 0 0 "/>
<path style=" stroke:none;fill-rule:nonzero;fill:rgb(93.333334%,90.196079%,86.274511%);fill-opacity:1;" d="M 59.757812 13.65625 C 59.941406 13.65625 60.125 13.65625 60.308594 13.65625 C 61.976562 13.65625 63.628906 13.679688 65.28125 13.890625 C 65.492188 13.917969 65.699219 13.941406 65.90625 13.960938 C 67.378906 14.121094 68.847656 14.425781 70.292969 14.742188 C 70.371094 14.757812 70.445312 14.773438 70.523438 14.789062 C 71.019531 14.902344 71.511719 15.035156 72 15.179688 C 72.089844 15.207031 72.183594 15.230469 72.273438 15.253906 C 74.734375 15.929688 77.128906 16.800781 79.441406 17.878906 C 79.503906 17.910156 79.570312 17.941406 79.632812 17.96875 C 81.195312 18.699219 82.710938 19.5 84.179688 20.398438 C 84.234375 20.433594 84.285156 20.464844 84.339844 20.496094 C 85.480469 21.199219 86.578125 21.960938 87.648438 22.761719 C 87.777344 22.859375 87.90625 22.953125 88.035156 23.050781 C 88.484375 23.378906 88.917969 23.722656 89.339844 24.085938 C 89.511719 24.230469 89.683594 24.375 89.859375 24.515625 C 90.128906 24.734375 90.386719 24.960938 90.640625 25.195312 C 90.761719 25.300781 90.878906 25.40625 91 25.511719 C 91.683594 26.109375 92.332031 26.742188 92.972656 27.386719 C 93.089844 27.503906 93.210938 27.621094 93.328125 27.738281 C 93.691406 28.101562 94.046875 28.46875 94.378906 28.859375 C 94.476562 28.964844 94.574219 29.074219 94.671875 29.179688 C 94.917969 29.445312 95.148438 29.722656 95.375 30.003906 C 95.507812 30.167969 95.644531 30.328125 95.785156 30.484375 C 96.152344 30.910156 96.503906 31.347656 96.839844 31.800781 C 96.871094 31.839844 96.902344 31.882812 96.933594 31.925781 C 98.386719 33.871094 99.710938 35.898438 100.859375 38.039062 C 100.886719 38.089844 100.914062 38.140625 100.941406 38.191406 C 102.390625 40.898438 103.589844 43.730469 104.460938 46.679688 C 104.484375 46.765625 104.484375 46.765625 104.511719 46.851562 C 104.816406 47.882812 105.0625 48.929688 105.300781 49.980469 C 105.3125 50.042969 105.328125 50.105469 105.34375 50.171875 C 105.960938 52.871094 106.332031 55.667969 106.328125 58.441406 C 106.328125 58.558594 106.328125 58.679688 106.328125 58.800781 C 106.328125 59.050781 106.328125 59.300781 106.328125 59.550781 C 106.328125 59.867188 106.328125 60.1875 106.328125 60.503906 C 106.328125 60.75 106.328125 61 106.328125 61.246094 C 106.328125 61.363281 106.328125 61.480469 106.328125 61.597656 C 106.328125 62.15625 106.324219 62.714844 106.292969 63.269531 C 106.289062 63.3125 106.289062 63.351562 106.285156 63.394531 C 106.273438 63.609375 106.246094 63.8125 106.199219 64.019531 C 106.191406 64.109375 106.183594 64.203125 106.175781 64.292969 C 106.105469 65.226562 105.984375 66.152344 105.839844 67.078125 C 105.828125 67.164062 105.8125 67.25 105.800781 67.335938 C 105.617188 68.523438 105.394531 69.6875 105.105469 70.851562 C 105.054688 71.0625 105.003906 71.277344 104.957031 71.488281 C 104.871094 71.871094 104.765625 72.25 104.648438 72.628906 C 104.589844 72.808594 104.535156 72.992188 104.480469 73.175781 C 104.300781 73.800781 104.101562 74.417969 103.890625 75.035156 C 103.863281 75.113281 103.863281 75.113281 103.835938 75.195312 C 103.480469 76.226562 103.089844 77.238281 102.660156 78.238281 C 102.636719 78.296875 102.613281 78.351562 102.585938 78.410156 C 102.4375 78.757812 102.28125 79.097656 102.121094 79.441406 C 102.089844 79.503906 102.0625 79.566406 102.03125 79.628906 C 100.691406 82.480469 99.105469 85.207031 97.199219 87.71875 C 97.167969 87.761719 97.132812 87.804688 97.101562 87.851562 C 96.179688 89.058594 95.210938 90.226562 94.175781 91.335938 C 94.109375 91.410156 94.039062 91.484375 93.972656 91.5625 C 93.5625 92.027344 93.121094 92.46875 92.679688 92.90625 C 92.546875 93.042969 92.414062 93.175781 92.28125 93.308594 C 92.195312 93.394531 92.105469 93.480469 92.019531 93.566406 C 91.980469 93.605469 91.941406 93.644531 91.902344 93.6875 C 91.671875 93.917969 91.433594 94.136719 91.183594 94.347656 C 91.039062 94.472656 90.902344 94.601562 90.761719 94.734375 C 90.492188 94.976562 90.214844 95.210938 89.933594 95.4375 C 89.777344 95.566406 89.625 95.691406 89.476562 95.820312 C 89.097656 96.144531 88.710938 96.453125 88.316406 96.753906 C 88.1875 96.851562 88.058594 96.945312 87.933594 97.042969 C 83.796875 100.1875 79.144531 102.558594 74.207031 104.164062 C 74.136719 104.1875 74.136719 104.1875 74.058594 104.210938 C 73.460938 104.40625 72.855469 104.585938 72.246094 104.753906 C 72.03125 104.8125 71.816406 104.875 71.601562 104.9375 C 71.015625 105.109375 70.421875 105.226562 69.820312 105.339844 C 69.554688 105.390625 69.292969 105.445312 69.03125 105.507812 C 68.15625 105.699219 67.28125 105.847656 66.394531 105.972656 C 66.316406 105.980469 66.316406 105.980469 66.242188 105.992188 C 64.28125 106.269531 62.328125 106.351562 60.351562 106.34375 C 60.054688 106.34375 59.757812 106.34375 59.464844 106.34375 C 57.488281 106.351562 55.535156 106.246094 53.578125 105.960938 C 53.492188 105.949219 53.492188 105.949219 53.40625 105.933594 C 51.808594 105.699219 50.234375 105.378906 48.671875 104.988281 C 48.503906 104.945312 48.335938 104.90625 48.164062 104.867188 C 44.222656 103.933594 40.332031 102.242188 36.839844 100.199219 C 36.78125 100.167969 36.722656 100.132812 36.664062 100.097656 C 35.210938 99.253906 33.808594 98.324219 32.460938 97.320312 C 32.394531 97.273438 32.328125 97.222656 32.265625 97.175781 C 31.5625 96.652344 30.878906 96.109375 30.214844 95.542969 C 30.121094 95.460938 30.023438 95.378906 29.925781 95.300781 C 29.542969 94.976562 29.167969 94.644531 28.800781 94.300781 C 28.628906 94.140625 28.457031 93.980469 28.277344 93.828125 C 28.027344 93.609375 27.789062 93.378906 27.554688 93.144531 C 27.511719 93.101562 27.46875 93.058594 27.425781 93.015625 C 27.339844 92.925781 27.25 92.835938 27.160156 92.75 C 27.027344 92.613281 26.890625 92.480469 26.757812 92.34375 C 26.671875 92.257812 26.582031 92.171875 26.496094 92.085938 C 26.457031 92.046875 26.417969 92.007812 26.378906 91.964844 C 26.144531 91.734375 25.925781 91.496094 25.710938 91.246094 C 25.578125 91.089844 25.4375 90.941406 25.296875 90.792969 C 25.039062 90.511719 24.796875 90.226562 24.558594 89.929688 C 24.4375 89.78125 24.3125 89.632812 24.1875 89.488281 C 23.800781 89.035156 23.4375 88.566406 23.078125 88.09375 C 22.984375 87.964844 22.890625 87.84375 22.792969 87.71875 C 21.800781 86.410156 20.875 85.019531 20.058594 83.59375 C 19.976562 83.453125 19.890625 83.3125 19.808594 83.167969 C 19.292969 82.285156 18.820312 81.375 18.359375 80.460938 C 18.328125 80.398438 18.296875 80.332031 18.261719 80.269531 C 17.460938 78.671875 16.8125 77.007812 16.210938 75.324219 C 16.144531 75.132812 16.074219 74.9375 16.003906 74.746094 C 15.75 74.03125 15.53125 73.308594 15.339844 72.574219 C 15.304688 72.429688 15.265625 72.289062 15.226562 72.144531 C 14.847656 70.75 14.515625 69.347656 14.28125 67.921875 C 14.273438 67.878906 14.265625 67.835938 14.257812 67.789062 C 14.140625 67.066406 14.035156 66.34375 13.941406 65.617188 C 13.925781 65.515625 13.914062 65.414062 13.898438 65.3125 C 13.664062 63.582031 13.65625 61.847656 13.65625 60.105469 C 13.65625 60.046875 13.65625 59.992188 13.65625 59.933594 C 13.65625 57.941406 13.714844 55.972656 14.003906 53.996094 C 14.042969 53.746094 14.074219 53.492188 14.109375 53.238281 C 14.257812 52.140625 14.445312 51.0625 14.699219 49.980469 C 14.714844 49.921875 14.726562 49.863281 14.742188 49.804688 C 14.8125 49.492188 14.886719 49.179688 14.964844 48.867188 C 15 48.71875 15.035156 48.574219 15.070312 48.425781 C 16.117188 44.101562 17.921875 39.925781 20.21875 36.121094 C 20.253906 36.066406 20.285156 36.011719 20.316406 35.957031 C 21.511719 33.972656 22.878906 32.066406 24.382812 30.304688 C 24.527344 30.136719 24.667969 29.964844 24.804688 29.789062 C 25.089844 29.441406 25.394531 29.117188 25.699219 28.789062 C 25.769531 28.710938 25.839844 28.636719 25.90625 28.558594 C 26.328125 28.082031 26.777344 27.636719 27.226562 27.1875 C 27.363281 27.046875 27.5 26.910156 27.640625 26.773438 C 27.726562 26.683594 27.816406 26.59375 27.90625 26.507812 C 27.945312 26.464844 27.988281 26.425781 28.027344 26.382812 C 28.261719 26.148438 28.503906 25.925781 28.753906 25.710938 C 28.910156 25.578125 29.058594 25.4375 29.207031 25.296875 C 29.488281 25.039062 29.773438 24.796875 30.070312 24.558594 C 30.222656 24.433594 30.375 24.304688 30.523438 24.179688 C 30.902344 23.855469 31.289062 23.542969 31.6875 23.246094 C 31.808594 23.152344 31.925781 23.0625 32.046875 22.96875 C 33.382812 21.9375 34.816406 20.976562 36.273438 20.125 C 36.316406 20.101562 36.355469 20.078125 36.398438 20.054688 C 39.875 18.039062 43.527344 16.402344 47.410156 15.347656 C 47.5625 15.304688 47.710938 15.261719 47.859375 15.21875 C 48.640625 14.996094 49.429688 14.8125 50.21875 14.640625 C 50.277344 14.628906 50.339844 14.613281 50.398438 14.601562 C 53.496094 13.933594 56.59375 13.65625 59.757812 13.65625 Z M 59.757812 13.65625 "/>
<path style=" stroke:none;fill-rule:nonzero;fill:rgb(93.333334%,90.196079%,86.274511%);fill-opacity:1;" d="M 59.757812 13.65625 C 59.941406 13.65625 60.125 13.65625 60.308594 13.65625 C 61.976562 13.65625 63.628906 13.679688 65.28125 13.890625 C 65.492188 13.917969 65.699219 13.941406 65.90625 13.960938 C 67.378906 14.121094 68.847656 14.425781 70.292969 14.742188 C 70.371094 14.757812 70.445312 14.773438 70.523438 14.789062 C 71.019531 14.902344 71.511719 15.035156 72 15.179688 C 72.089844 15.207031 72.183594 15.230469 72.273438 15.253906 C 74.734375 15.929688 77.128906 16.800781 79.441406 17.878906 C 79.503906 17.910156 79.570312 17.941406 79.632812 17.96875 C 81.195312 18.699219 82.710938 19.5 84.179688 20.398438 C 84.234375 20.433594 84.285156 20.464844 84.339844 20.496094 C 85.480469 21.199219 86.578125 21.960938 87.648438 22.761719 C 87.777344 22.859375 87.90625 22.953125 88.035156 23.050781 C 88.484375 23.378906 88.917969 23.722656 89.339844 24.085938 C 89.511719 24.230469 89.683594 24.375 89.859375 24.515625 C 90.128906 24.734375 90.386719 24.960938 90.640625 25.195312 C 90.761719 25.300781 90.878906 25.40625 91 25.511719 C 91.683594 26.109375 92.332031 26.742188 92.972656 27.386719 C 93.089844 27.503906 93.210938 27.621094 93.328125 27.738281 C 93.691406 28.101562 94.046875 28.46875 94.378906 28.859375 C 94.476562 28.964844 94.574219 29.074219 94.671875 29.179688 C 94.917969 29.445312 95.148438 29.722656 95.375 30.003906 C 95.507812 30.167969 95.644531 30.328125 95.785156 30.484375 C 96.152344 30.910156 96.503906 31.347656 96.839844 31.800781 C 96.871094 31.839844 96.902344 31.882812 96.933594 31.925781 C 98.386719 33.871094 99.710938 35.898438 100.859375 38.039062 C 100.886719 38.089844 100.914062 38.140625 100.941406 38.191406 C 102.390625 40.898438 103.589844 43.730469 104.460938 46.679688 C 104.484375 46.765625 104.484375 46.765625 104.511719 46.851562 C 104.816406 47.882812 105.0625 48.929688 105.300781 49.980469 C 105.3125 50.042969 105.328125 50.105469 105.34375 50.171875 C 105.960938 52.871094 106.332031 55.667969 106.328125 58.441406 C 106.328125 58.558594 106.328125 58.679688 106.328125 58.800781 C 106.328125 59.050781 106.328125 59.300781 106.328125 59.550781 C 106.328125 59.867188 106.328125 60.1875 106.328125 60.503906 C 106.328125 60.75 106.328125 61 106.328125 61.246094 C 106.328125 61.363281 106.328125 61.480469 106.328125 61.597656 C 106.328125 62.15625 106.324219 62.714844 106.292969 63.269531 C 106.289062 63.3125 106.289062 63.351562 106.285156 63.394531 C 106.273438 63.609375 106.246094 63.8125 106.199219 64.019531 C 106.191406 64.109375 106.183594 64.203125 106.175781 64.292969 C 106.105469 65.226562 105.984375 66.152344 105.839844 67.078125 C 105.828125 67.164062 105.8125 67.25 105.800781 67.335938 C 105.617188 68.523438 105.394531 69.6875 105.105469 70.851562 C 105.054688 71.0625 105.003906 71.277344 104.957031 71.488281 C 104.871094 71.871094 104.765625 72.25 104.648438 72.628906 C 104.589844 72.808594 104.535156 72.992188 104.480469 73.175781 C 104.300781 73.800781 104.101562 74.417969 103.890625 75.035156 C 103.863281 75.113281 103.863281 75.113281 103.835938 75.195312 C 103.480469 76.226562 103.089844 77.238281 102.660156 78.238281 C 102.636719 78.296875 102.613281 78.351562 102.585938 78.410156 C 102.4375 78.757812 102.28125 79.097656 102.121094 79.441406 C 102.089844 79.503906 102.0625 79.566406 102.03125 79.628906 C 100.691406 82.480469 99.105469 85.207031 97.199219 87.71875 C 97.167969 87.761719 97.132812 87.804688 97.101562 87.851562 C 96.179688 89.058594 95.210938 90.226562 94.175781 91.335938 C 94.109375 91.410156 94.039062 91.484375 93.972656 91.5625 C 93.5625 92.027344 93.121094 92.46875 92.679688 92.90625 C 92.546875 93.042969 92.414062 93.175781 92.28125 93.308594 C 92.195312 93.394531 92.105469 93.480469 92.019531 93.566406 C 91.980469 93.605469 91.941406 93.644531 91.902344 93.6875 C 91.671875 93.917969 91.433594 94.136719 91.183594 94.347656 C 91.039062 94.472656 90.902344 94.601562 90.761719 94.734375 C 90.492188 94.976562 90.214844 95.210938 89.933594 95.4375 C 89.777344 95.566406 89.625 95.691406 89.476562 95.820312 C 89.097656 96.144531 88.710938 96.453125 88.316406 96.753906 C 88.1875 96.851562 88.058594 96.945312 87.933594 97.042969 C 83.796875 100.1875 79.144531 102.558594 74.207031 104.164062 C 74.136719 104.1875 74.136719 104.1875 74.058594 104.210938 C 73.460938 104.40625 72.855469 104.585938 72.246094 104.753906 C 72.03125 104.8125 71.816406 104.875 71.601562 104.9375 C 71.015625 105.109375 70.421875 105.226562 69.820312 105.339844 C 69.554688 105.390625 69.292969 105.445312 69.03125 105.507812 C 68.15625 105.699219 67.28125 105.847656 66.394531 105.972656 C 66.316406 105.980469 66.316406 105.980469 66.242188 105.992188 C 64.28125 106.269531 62.328125 106.351562 60.351562 106.34375 C 60.054688 106.34375 59.757812 106.34375 59.464844 106.34375 C 57.488281 106.351562 55.535156 106.246094 53.578125 105.960938 C 53.492188 105.949219 53.492188 105.949219 53.40625 105.933594 C 51.808594 105.699219 50.234375 105.378906 48.671875 104.988281 C 48.503906 104.945312 48.335938 104.90625 48.164062 104.867188 C 44.222656 103.933594 40.332031 102.242188 36.839844 100.199219 C 36.78125 100.167969 36.722656 100.132812 36.664062 100.097656 C 35.210938 99.253906 33.808594 98.324219 32.460938 97.320312 C 32.394531 97.273438 32.328125 97.222656 32.265625 97.175781 C 31.5625 96.652344 30.878906 96.109375 30.214844 95.542969 C 30.121094 95.460938 30.023438 95.378906 29.925781 95.300781 C 29.542969 94.976562 29.167969 94.644531 28.800781 94.300781 C 28.628906 94.140625 28.457031 93.980469 28.277344 93.828125 C 28.027344 93.609375 27.789062 93.378906 27.554688 93.144531 C 27.511719 93.101562 27.46875 93.058594 27.425781 93.015625 C 27.339844 92.925781 27.25 92.835938 27.160156 92.75 C 27.027344 92.613281 26.890625 92.480469 26.757812 92.34375 C 26.671875 92.257812 26.582031 92.171875 26.496094 92.085938 C 26.457031 92.046875 26.417969 92.007812 26.378906 91.964844 C 26.144531 91.734375 25.925781 91.496094 25.710938 91.246094 C 25.578125 91.089844 25.4375 90.941406 25.296875 90.792969 C 25.039062 90.511719 24.796875 90.226562 24.558594 89.929688 C 24.4375 89.78125 24.3125 89.632812 24.1875 89.488281 C 23.800781 89.035156 23.4375 88.566406 23.078125 88.09375 C 22.984375 87.964844 22.890625 87.84375 22.792969 87.71875 C 21.800781 86.410156 20.875 85.019531 20.058594 83.59375 C 19.976562 83.453125 19.890625 83.3125 19.808594 83.167969 C 19.292969 82.285156 18.820312 81.375 18.359375 80.460938 C 18.328125 80.398438 18.296875 80.332031 18.261719 80.269531 C 17.460938 78.671875 16.8125 77.007812 16.210938 75.324219 C 16.144531 75.132812 16.074219 74.9375 16.003906 74.746094 C 15.75 74.03125 15.53125 73.308594 15.339844 72.574219 C 15.304688 72.429688 15.265625 72.289062 15.226562 72.144531 C 14.847656 70.75 14.515625 69.347656 14.28125 67.921875 C 14.273438 67.878906 14.265625 67.835938 14.257812 67.789062 C 14.140625 67.066406 14.035156 66.34375 13.941406 65.617188 C 13.925781 65.515625 13.914062 65.414062 13.898438 65.3125 C 13.664062 63.582031 13.65625 61.847656 13.65625 60.105469 C 13.65625 60.046875 13.65625 59.992188 13.65625 59.933594 C 13.65625 57.941406 13.714844 55.972656 14.003906 53.996094 C 14.042969 53.746094 14.074219 53.492188 14.109375 53.238281 C 14.257812 52.140625 14.445312 51.0625 14.699219 49.980469 C 14.714844 49.921875 14.726562 49.863281 14.742188 49.804688 C 14.8125 49.492188 14.886719 49.179688 14.964844 48.867188 C 15 48.71875 15.035156 48.574219 15.070312 48.425781 C 16.117188 44.101562 17.921875 39.925781 20.21875 36.121094 C 20.253906 36.066406 20.285156 36.011719 20.316406 35.957031 C 21.511719 33.972656 22.878906 32.066406 24.382812 30.304688 C 24.527344 30.136719 24.667969 29.964844 24.804688 29.789062 C 25.089844 29.441406 25.394531 29.117188 25.699219 28.789062 C 25.769531 28.710938 25.839844 28.636719 25.90625 28.558594 C 26.328125 28.082031 26.777344 27.636719 27.226562 27.1875 C 27.363281 27.046875 27.5 26.910156 27.640625 26.773438 C 27.726562 26.683594 27.816406 26.59375 27.90625 26.507812 C 27.945312 26.464844 27.988281 26.425781 28.027344 26.382812 C 28.261719 26.148438 28.503906 25.925781 28.753906 25.710938 C 28.910156 25.578125 29.058594 25.4375 29.207031 25.296875 C 29.488281 25.039062 29.773438 24.796875 30.070312 24.558594 C 30.222656 24.433594 30.375 24.304688 30.523438 24.179688 C 30.902344 23.855469 31.289062 23.542969 31.6875 23.246094 C 31.808594 23.152344 31.925781 23.0625 32.046875 22.96875 C 33.382812 21.9375 34.816406 20.976562 36.273438 20.125 C 36.316406 20.101562 36.355469 20.078125 36.398438 20.054688 C 39.875 18.039062 43.527344 16.402344 47.410156 15.347656 C 47.5625 15.304688 47.710938 15.261719 47.859375 15.21875 C 48.640625 14.996094 49.429688 14.8125 50.21875 14.640625 C 50.277344 14.628906 50.339844 14.613281 50.398438 14.601562 C 53.496094 13.933594 56.59375 13.65625 59.757812 13.65625 Z M 52.078125 19.199219 C 52.019531 19.210938 52.019531 19.210938 51.960938 19.222656 C 49.078125 19.816406 46.253906 20.652344 43.558594 21.839844 C 43.5 21.867188 43.4375 21.894531 43.375 21.921875 C 41.894531 22.574219 40.441406 23.296875 39.050781 24.136719 C 38.878906 24.242188 38.699219 24.347656 38.523438 24.453125 C 37.785156 24.894531 37.066406 25.363281 36.359375 25.859375 C 36.289062 25.910156 36.21875 25.957031 36.148438 26.007812 C 35.273438 26.621094 34.417969 27.273438 33.601562 27.960938 C 33.539062 28.011719 33.476562 28.0625 33.414062 28.117188 C 33.023438 28.441406 32.648438 28.773438 32.277344 29.117188 C 32.148438 29.238281 32.011719 29.355469 31.878906 29.472656 C 31.621094 29.695312 31.382812 29.929688 31.140625 30.171875 C 31.097656 30.214844 31.054688 30.257812 31.007812 30.300781 C 30.917969 30.394531 30.828125 30.484375 30.734375 30.578125 C 30.597656 30.714844 30.457031 30.855469 30.320312 30.992188 C 30.230469 31.082031 30.140625 31.171875 30.050781 31.261719 C 29.988281 31.324219 29.988281 31.324219 29.925781 31.386719 C 29.691406 31.621094 29.46875 31.863281 29.25 32.117188 C 29.125 32.257812 28.996094 32.398438 28.867188 32.539062 C 28.625 32.804688 28.394531 33.074219 28.171875 33.351562 C 28.058594 33.492188 27.945312 33.628906 27.828125 33.769531 C 26.097656 35.835938 24.613281 38.125 23.339844 40.5 C 23.308594 40.554688 23.28125 40.613281 23.25 40.667969 C 22.320312 42.386719 21.527344 44.175781 20.878906 46.019531 C 20.867188 46.0625 20.851562 46.101562 20.835938 46.144531 C 20.203125 47.949219 19.675781 49.765625 19.300781 51.644531 C 19.261719 51.832031 19.222656 52.023438 19.183594 52.210938 C 18.945312 53.359375 18.789062 54.515625 18.660156 55.679688 C 18.65625 55.726562 18.648438 55.769531 18.644531 55.820312 C 18.246094 59.421875 18.300781 63.308594 19.039062 66.871094 C 19.085938 67.105469 19.125 67.339844 19.164062 67.574219 C 19.285156 68.324219 19.457031 69.054688 19.640625 69.792969 C 19.6875 69.984375 19.730469 70.175781 19.773438 70.367188 C 19.890625 70.898438 20.046875 71.414062 20.21875 71.929688 C 20.265625 72.070312 20.308594 72.210938 20.355469 72.347656 C 20.925781 74.117188 21.558594 75.851562 22.359375 77.53125 C 22.441406 77.703125 22.519531 77.875 22.601562 78.046875 C 22.960938 78.820312 23.363281 79.5625 23.789062 80.300781 C 23.898438 80.492188 24.003906 80.6875 24.109375 80.878906 C 24.433594 81.476562 24.796875 82.042969 25.171875 82.609375 C 25.246094 82.71875 25.320312 82.828125 25.390625 82.941406 C 25.988281 83.84375 26.628906 84.710938 27.300781 85.558594 C 27.347656 85.617188 27.394531 85.675781 27.441406 85.738281 C 27.554688 85.878906 27.667969 86.019531 27.78125 86.160156 C 27.820312 86.210938 27.859375 86.257812 27.902344 86.3125 C 28.160156 86.628906 28.421875 86.945312 28.691406 87.253906 C 28.71875 87.289062 28.746094 87.320312 28.777344 87.355469 C 29.410156 88.085938 30.085938 88.777344 30.773438 89.460938 C 30.894531 89.582031 31.015625 89.703125 31.136719 89.824219 C 31.21875 89.90625 31.296875 89.984375 31.375 90.0625 C 31.410156 90.097656 31.445312 90.136719 31.484375 90.171875 C 31.707031 90.394531 31.9375 90.605469 32.175781 90.808594 C 32.308594 90.925781 32.4375 91.042969 32.570312 91.164062 C 32.824219 91.390625 33.085938 91.609375 33.351562 91.828125 C 33.492188 91.941406 33.628906 92.054688 33.769531 92.171875 C 34.394531 92.695312 35.039062 93.183594 35.699219 93.660156 C 35.761719 93.707031 35.761719 93.707031 35.828125 93.753906 C 36.984375 94.589844 38.183594 95.347656 39.421875 96.058594 C 39.460938 96.082031 39.503906 96.109375 39.542969 96.132812 C 42.648438 97.9375 46.023438 99.304688 49.5 100.199219 C 49.574219 100.21875 49.648438 100.238281 49.722656 100.257812 C 51.515625 100.71875 53.3125 101.046875 55.152344 101.253906 C 55.308594 101.273438 55.464844 101.289062 55.621094 101.3125 C 56.261719 101.390625 56.898438 101.4375 57.542969 101.46875 C 57.597656 101.46875 57.648438 101.472656 57.703125 101.476562 C 62.550781 101.699219 67.492188 101.242188 72.121094 99.71875 C 72.164062 99.703125 72.210938 99.691406 72.257812 99.675781 C 74.449219 98.953125 76.582031 98.148438 78.636719 97.09375 C 78.746094 97.039062 78.855469 96.980469 78.964844 96.925781 C 80.089844 96.355469 80.089844 96.355469 81.175781 95.71875 C 81.324219 95.625 81.476562 95.53125 81.625 95.441406 C 83.191406 94.480469 84.699219 93.417969 86.117188 92.246094 C 86.265625 92.121094 86.417969 92 86.574219 91.875 C 86.835938 91.660156 87.089844 91.433594 87.339844 91.207031 C 87.460938 91.097656 87.585938 90.988281 87.707031 90.882812 C 88.351562 90.316406 88.964844 89.722656 89.570312 89.117188 C 89.695312 88.992188 89.816406 88.871094 89.941406 88.75 C 90.019531 88.667969 90.101562 88.589844 90.179688 88.507812 C 90.214844 88.472656 90.25 88.4375 90.289062 88.398438 C 90.542969 88.144531 90.785156 87.875 91.019531 87.601562 C 91.078125 87.53125 91.136719 87.464844 91.195312 87.398438 C 91.554688 86.984375 91.898438 86.566406 92.234375 86.132812 C 92.34375 85.988281 92.457031 85.847656 92.574219 85.703125 C 93.285156 84.832031 93.933594 83.914062 94.558594 82.980469 C 94.605469 82.914062 94.605469 82.914062 94.648438 82.847656 C 95.625 81.394531 96.476562 79.867188 97.261719 78.300781 C 97.292969 78.238281 97.324219 78.175781 97.355469 78.109375 C 98.449219 75.933594 99.332031 73.621094 99.972656 71.269531 C 100.023438 71.09375 100.074219 70.914062 100.125 70.738281 C 100.414062 69.707031 100.632812 68.667969 100.835938 67.621094 C 100.859375 67.5 100.882812 67.382812 100.90625 67.265625 C 101.027344 66.644531 101.117188 66.027344 101.195312 65.398438 C 101.203125 65.324219 101.203125 65.324219 101.214844 65.246094 C 101.316406 64.417969 101.410156 63.59375 101.460938 62.761719 C 101.460938 62.71875 101.464844 62.675781 101.46875 62.632812 C 101.515625 61.78125 101.53125 60.929688 101.53125 60.078125 C 101.53125 60.015625 101.53125 59.953125 101.53125 59.886719 C 101.53125 58.761719 101.496094 57.640625 101.398438 56.519531 C 101.390625 56.417969 101.390625 56.417969 101.382812 56.308594 C 101.234375 54.609375 100.996094 52.882812 100.597656 51.222656 C 100.558594 51.050781 100.519531 50.875 100.484375 50.703125 C 99.824219 47.6875 98.78125 44.777344 97.441406 42 C 97.421875 41.964844 97.40625 41.929688 97.386719 41.890625 C 96.902344 40.882812 96.386719 39.894531 95.804688 38.933594 C 95.699219 38.757812 95.59375 38.582031 95.488281 38.402344 C 95.046875 37.664062 94.578125 36.945312 94.078125 36.238281 C 94.046875 36.195312 94.015625 36.148438 93.984375 36.101562 C 93.34375 35.199219 92.671875 34.316406 91.949219 33.476562 C 91.8125 33.3125 91.679688 33.148438 91.546875 32.980469 C 91.238281 32.605469 90.90625 32.257812 90.574219 31.90625 C 90.414062 31.738281 90.257812 31.566406 90.105469 31.390625 C 89.828125 31.082031 89.539062 30.792969 89.246094 30.5 C 89.199219 30.449219 89.148438 30.402344 89.101562 30.351562 C 88.84375 30.097656 88.585938 29.851562 88.3125 29.617188 C 88.144531 29.472656 87.984375 29.320312 87.820312 29.167969 C 87.535156 28.902344 87.242188 28.648438 86.933594 28.402344 C 86.808594 28.296875 86.683594 28.191406 86.558594 28.082031 C 86.019531 27.601562 85.453125 27.171875 84.867188 26.75 C 84.707031 26.628906 84.546875 26.507812 84.386719 26.386719 C 83.984375 26.082031 83.566406 25.804688 83.148438 25.523438 C 83.023438 25.441406 82.894531 25.355469 82.769531 25.269531 C 78.925781 22.707031 74.59375 20.808594 70.105469 19.714844 C 69.941406 19.675781 69.777344 19.632812 69.613281 19.59375 C 68.835938 19.398438 68.058594 19.238281 67.269531 19.109375 C 67.066406 19.078125 66.867188 19.042969 66.667969 19.007812 C 65.753906 18.847656 64.84375 18.734375 63.917969 18.644531 C 63.839844 18.636719 63.839844 18.636719 63.761719 18.628906 C 62.472656 18.507812 61.191406 18.46875 59.894531 18.46875 C 59.820312 18.46875 59.75 18.46875 59.675781 18.46875 C 57.125 18.472656 54.582031 18.683594 52.078125 19.199219 Z M 52.078125 19.199219 "/>
<path style=" stroke:none;fill-rule:nonzero;fill:rgb(84.705883%,65.490198%,56.470591%);fill-opacity:1;" d="M 63.421875 18.601562 C 63.507812 18.609375 63.59375 18.613281 63.679688 18.621094 C 65.71875 18.800781 67.734375 19.121094 69.71875 19.621094 C 69.816406 19.644531 69.910156 19.667969 70.003906 19.6875 C 70.230469 19.746094 70.457031 19.800781 70.679688 19.859375 C 70.726562 19.871094 70.769531 19.882812 70.816406 19.894531 C 74.199219 20.792969 77.480469 22.144531 80.519531 23.878906 C 80.570312 23.90625 80.621094 23.9375 80.671875 23.964844 C 81.421875 24.386719 82.144531 24.851562 82.859375 25.332031 C 82.902344 25.359375 82.941406 25.386719 82.984375 25.414062 C 83.746094 25.921875 84.492188 26.441406 85.210938 27.003906 C 85.257812 27.039062 85.304688 27.074219 85.351562 27.113281 C 85.703125 27.390625 86.054688 27.671875 86.398438 27.960938 C 86.429688 27.984375 86.460938 28.011719 86.492188 28.039062 C 86.878906 28.359375 87.257812 28.6875 87.628906 29.023438 C 87.753906 29.136719 87.882812 29.25 88.007812 29.359375 C 88.617188 29.890625 89.195312 30.449219 89.765625 31.015625 C 89.804688 31.058594 89.847656 31.097656 89.890625 31.140625 C 90.121094 31.375 90.34375 31.617188 90.5625 31.867188 C 90.707031 32.035156 90.859375 32.195312 91.011719 32.359375 C 91.28125 32.648438 91.535156 32.945312 91.785156 33.253906 C 91.90625 33.402344 92.03125 33.546875 92.15625 33.695312 C 92.5625 34.167969 92.933594 34.660156 93.300781 35.160156 C 93.34375 35.222656 93.34375 35.222656 93.390625 35.285156 C 94.683594 37.03125 95.839844 38.871094 96.839844 40.800781 C 96.875 40.867188 96.910156 40.9375 96.949219 41.007812 C 98.394531 43.804688 99.511719 46.742188 100.261719 49.800781 C 100.28125 49.882812 100.28125 49.882812 100.300781 49.972656 C 100.390625 50.332031 100.476562 50.695312 100.558594 51.058594 C 100.570312 51.109375 100.582031 51.164062 100.597656 51.214844 C 100.785156 52.042969 100.9375 52.867188 101.054688 53.707031 C 101.082031 53.890625 101.109375 54.074219 101.136719 54.257812 C 101.570312 57.261719 101.671875 60.335938 101.398438 63.359375 C 101.394531 63.441406 101.394531 63.441406 101.386719 63.519531 C 101.363281 63.8125 101.332031 64.101562 101.300781 64.390625 C 101.285156 64.515625 101.273438 64.636719 101.257812 64.761719 C 101 67.253906 100.492188 69.734375 99.71875 72.121094 C 99.695312 72.199219 99.667969 72.277344 99.644531 72.355469 C 99.035156 74.269531 98.316406 76.128906 97.441406 77.941406 C 97.40625 78.007812 97.375 78.078125 97.339844 78.144531 C 96.886719 79.089844 96.394531 80.003906 95.855469 80.902344 C 95.765625 81.046875 95.679688 81.195312 95.59375 81.34375 C 95.292969 81.867188 94.976562 82.371094 94.636719 82.867188 C 94.558594 82.980469 94.480469 83.09375 94.40625 83.210938 C 93.824219 84.066406 93.214844 84.90625 92.554688 85.707031 C 92.359375 85.9375 92.175781 86.175781 92 86.417969 C 91.734375 86.773438 91.441406 87.097656 91.140625 87.421875 C 91.070312 87.5 90.996094 87.582031 90.925781 87.664062 C 90.859375 87.742188 90.789062 87.820312 90.71875 87.898438 C 90.6875 87.941406 90.652344 87.980469 90.617188 88.019531 C 90.210938 88.480469 89.777344 88.910156 89.34375 89.34375 C 89.214844 89.472656 89.085938 89.601562 88.957031 89.730469 C 88.875 89.8125 88.792969 89.898438 88.707031 89.980469 C 88.671875 90.019531 88.632812 90.054688 88.59375 90.09375 C 88.363281 90.320312 88.128906 90.539062 87.886719 90.75 C 87.742188 90.875 87.601562 91.003906 87.460938 91.132812 C 87.195312 91.375 86.925781 91.605469 86.648438 91.828125 C 86.507812 91.941406 86.367188 92.058594 86.230469 92.171875 C 85.667969 92.644531 85.09375 93.082031 84.496094 93.503906 C 84.359375 93.601562 84.222656 93.699219 84.085938 93.800781 C 80.9375 96.105469 77.417969 97.882812 73.738281 99.179688 C 73.667969 99.207031 73.59375 99.234375 73.515625 99.261719 C 70.855469 100.207031 68.035156 100.917969 65.21875 101.21875 C 65.152344 101.226562 65.082031 101.234375 65.011719 101.242188 C 61.617188 101.597656 58.171875 101.679688 54.78125 101.21875 C 54.699219 101.210938 54.621094 101.199219 54.542969 101.1875 C 49.140625 100.464844 43.808594 98.710938 38.398438 95.460938 C 38.3125 95.40625 38.226562 95.355469 38.136719 95.300781 C 36.742188 94.449219 35.414062 93.484375 34.140625 92.460938 C 34.085938 92.414062 34.027344 92.371094 33.972656 92.324219 C 33.328125 91.804688 32.703125 91.265625 32.09375 90.699219 C 31.964844 90.582031 31.832031 90.464844 31.699219 90.347656 C 31.441406 90.125 31.203125 89.890625 30.960938 89.648438 C 30.917969 89.605469 30.875 89.5625 30.828125 89.519531 C 30.738281 89.425781 30.648438 89.335938 30.554688 89.242188 C 30.417969 89.105469 30.277344 88.964844 30.136719 88.828125 C 30.050781 88.738281 29.960938 88.648438 29.871094 88.558594 C 29.828125 88.515625 29.789062 88.476562 29.746094 88.433594 C 29.480469 88.167969 29.226562 87.886719 28.980469 87.601562 C 28.914062 87.527344 28.851562 87.453125 28.789062 87.378906 C 27.511719 85.914062 26.316406 84.371094 25.261719 82.738281 C 25.226562 82.6875 25.191406 82.636719 25.160156 82.585938 C 24.644531 81.792969 24.15625 80.988281 23.699219 80.160156 C 23.664062 80.097656 23.632812 80.035156 23.597656 79.972656 C 22.40625 77.820312 21.449219 75.59375 20.644531 73.269531 C 20.585938 73.097656 20.523438 72.925781 20.464844 72.75 C 20.195312 71.980469 19.988281 71.195312 19.789062 70.402344 C 19.742188 70.207031 19.691406 70.011719 19.640625 69.820312 C 19.359375 68.71875 19.140625 67.617188 18.980469 66.488281 C 18.953125 66.320312 18.925781 66.152344 18.898438 65.980469 C 18.878906 65.847656 18.859375 65.714844 18.839844 65.578125 C 18.832031 65.539062 18.828125 65.496094 18.820312 65.457031 C 18.105469 60.882812 18.324219 56 19.320312 51.480469 C 19.34375 51.367188 19.34375 51.367188 19.371094 51.25 C 20.367188 46.707031 22.109375 42.363281 24.539062 38.398438 C 24.574219 38.34375 24.605469 38.289062 24.640625 38.234375 C 26.007812 36.019531 27.597656 33.925781 29.367188 32.019531 C 29.433594 31.945312 29.5 31.875 29.566406 31.800781 C 29.976562 31.332031 30.417969 30.890625 30.859375 30.453125 C 30.992188 30.320312 31.128906 30.183594 31.261719 30.050781 C 31.347656 29.964844 31.433594 29.878906 31.519531 29.792969 C 31.558594 29.753906 31.597656 29.714844 31.636719 29.675781 C 31.871094 29.441406 32.109375 29.222656 32.355469 29.007812 C 32.488281 28.894531 32.617188 28.777344 32.75 28.65625 C 33.0625 28.375 33.390625 28.105469 33.71875 27.839844 C 33.789062 27.785156 33.855469 27.730469 33.921875 27.675781 C 35.246094 26.601562 36.644531 25.609375 38.101562 24.71875 C 38.15625 24.683594 38.214844 24.648438 38.273438 24.613281 C 42.976562 21.738281 48.109375 19.820312 56.28125 18.601562 C 56.390625 18.589844 56.390625 18.589844 56.503906 18.578125 C 58.785156 18.371094 61.136719 18.390625 63.421875 18.601562 Z M 56.21875 21.179688 C 56.171875 21.183594 56.121094 21.1875 56.070312 21.195312 C 55.792969 21.21875 55.519531 21.25 55.246094 21.285156 C 55.203125 21.289062 55.164062 21.292969 55.125 21.300781 C 54.179688 21.417969 53.25 21.589844 52.320312 21.78125 C 52.25 21.792969 52.179688 21.808594 52.105469 21.824219 C 49.121094 22.414062 46.265625 23.402344 43.5 24.660156 C 43.449219 24.683594 43.398438 24.707031 43.347656 24.730469 C 42.554688 25.089844 41.796875 25.496094 41.039062 25.921875 C 40.964844 25.960938 40.964844 25.960938 40.890625 26.003906 C 40.164062 26.414062 39.457031 26.847656 38.761719 27.300781 C 38.714844 27.328125 38.667969 27.359375 38.625 27.386719 C 37.910156 27.851562 37.21875 28.347656 36.539062 28.859375 C 36.503906 28.886719 36.464844 28.917969 36.425781 28.945312 C 35.996094 29.269531 35.578125 29.609375 35.167969 29.960938 C 34.992188 30.113281 34.808594 30.257812 34.628906 30.40625 C 34.40625 30.585938 34.199219 30.773438 34 30.980469 C 33.890625 31.089844 33.777344 31.1875 33.660156 31.289062 C 33.503906 31.425781 33.355469 31.5625 33.210938 31.710938 C 33.070312 31.855469 32.925781 31.988281 32.769531 32.117188 C 32.394531 32.445312 32.042969 32.792969 31.71875 33.167969 C 31.503906 33.414062 31.28125 33.652344 31.058594 33.890625 C 30.753906 34.210938 30.464844 34.535156 30.1875 34.878906 C 30.074219 35.023438 29.953125 35.164062 29.832031 35.304688 C 29.414062 35.789062 29.039062 36.296875 28.664062 36.8125 C 28.5625 36.957031 28.460938 37.097656 28.355469 37.238281 C 27.953125 37.789062 27.570312 38.347656 27.203125 38.925781 C 27.148438 39.015625 27.089844 39.109375 27.03125 39.199219 C 24.816406 42.667969 23.191406 46.46875 22.199219 50.460938 C 22.1875 50.515625 22.171875 50.570312 22.160156 50.625 C 22.066406 50.988281 21.980469 51.355469 21.898438 51.71875 C 21.886719 51.78125 21.871094 51.84375 21.855469 51.910156 C 21.589844 53.09375 21.398438 54.28125 21.253906 55.488281 C 21.242188 55.613281 21.226562 55.738281 21.210938 55.863281 C 20.882812 58.597656 20.960938 61.464844 21.238281 64.199219 C 21.246094 64.265625 21.253906 64.332031 21.257812 64.398438 C 21.300781 64.792969 21.355469 65.1875 21.421875 65.578125 C 21.433594 65.671875 21.449219 65.761719 21.464844 65.851562 C 21.660156 67.09375 21.878906 68.324219 22.199219 69.539062 C 22.226562 69.640625 22.25 69.742188 22.277344 69.839844 C 22.347656 70.121094 22.421875 70.402344 22.5 70.679688 C 22.511719 70.722656 22.523438 70.765625 22.535156 70.808594 C 22.980469 72.417969 23.5625 74.015625 24.238281 75.539062 C 24.265625 75.597656 24.289062 75.65625 24.316406 75.714844 C 24.941406 77.121094 25.628906 78.492188 26.421875 79.8125 C 26.515625 79.972656 26.605469 80.128906 26.699219 80.289062 C 27.875 82.304688 29.324219 84.214844 30.917969 85.925781 C 31.046875 86.066406 31.175781 86.207031 31.300781 86.355469 C 31.492188 86.578125 31.699219 86.78125 31.910156 86.988281 C 32.027344 87.109375 32.140625 87.234375 32.253906 87.363281 C 32.578125 87.738281 32.929688 88.074219 33.304688 88.398438 C 33.414062 88.496094 33.515625 88.597656 33.617188 88.703125 C 33.839844 88.925781 34.082031 89.121094 34.328125 89.316406 C 34.496094 89.457031 34.65625 89.601562 34.820312 89.753906 C 35.15625 90.0625 35.511719 90.347656 35.878906 90.625 C 36.007812 90.726562 36.136719 90.828125 36.265625 90.929688 C 37.578125 91.960938 38.988281 92.890625 40.441406 93.71875 C 40.496094 93.75 40.550781 93.785156 40.605469 93.816406 C 43.84375 95.683594 47.300781 97.070312 50.941406 97.921875 C 51.003906 97.933594 51.003906 97.933594 51.066406 97.949219 C 53.640625 98.550781 56.285156 98.949219 58.933594 98.949219 C 59.027344 98.949219 59.117188 98.949219 59.207031 98.949219 C 59.394531 98.949219 59.585938 98.949219 59.773438 98.949219 C 59.964844 98.949219 60.152344 98.953125 60.34375 98.953125 C 61.457031 98.957031 62.554688 98.9375 63.660156 98.820312 C 63.746094 98.8125 63.828125 98.804688 63.914062 98.796875 C 64.117188 98.773438 64.320312 98.753906 64.523438 98.730469 C 64.589844 98.722656 64.652344 98.714844 64.722656 98.707031 C 65.054688 98.671875 65.378906 98.625 65.707031 98.554688 C 65.929688 98.511719 66.152344 98.472656 66.375 98.4375 C 66.417969 98.429688 66.460938 98.421875 66.507812 98.417969 C 66.601562 98.402344 66.695312 98.386719 66.785156 98.371094 C 67.785156 98.207031 68.769531 98.03125 69.742188 97.742188 C 69.953125 97.679688 70.167969 97.625 70.382812 97.570312 C 70.832031 97.449219 71.277344 97.3125 71.722656 97.171875 C 71.761719 97.15625 71.800781 97.144531 71.839844 97.132812 C 73.371094 96.632812 74.863281 96.082031 76.320312 95.398438 C 76.382812 95.371094 76.445312 95.34375 76.507812 95.3125 C 80 93.691406 83.164062 91.53125 86.039062 88.980469 C 86.085938 88.941406 86.128906 88.902344 86.175781 88.859375 C 86.496094 88.578125 86.800781 88.28125 87.101562 87.980469 C 87.265625 87.808594 87.4375 87.648438 87.617188 87.496094 C 87.816406 87.328125 87.980469 87.144531 88.148438 86.945312 C 88.269531 86.808594 88.398438 86.679688 88.53125 86.550781 C 88.726562 86.355469 88.914062 86.15625 89.097656 85.945312 C 89.195312 85.828125 89.296875 85.714844 89.394531 85.597656 C 89.804688 85.132812 90.195312 84.660156 90.574219 84.171875 C 90.660156 84.058594 90.75 83.949219 90.839844 83.835938 C 91.320312 83.242188 91.75 82.617188 92.175781 81.984375 C 92.214844 81.921875 92.214844 81.921875 92.257812 81.855469 C 94.195312 78.941406 95.738281 75.867188 96.890625 72.558594 C 96.9375 72.421875 96.988281 72.285156 97.035156 72.148438 C 97.199219 71.703125 97.34375 71.253906 97.460938 70.792969 C 97.480469 70.726562 97.496094 70.660156 97.515625 70.589844 C 97.550781 70.449219 97.589844 70.3125 97.625 70.171875 C 97.660156 70.03125 97.699219 69.894531 97.734375 69.757812 C 98.25 67.808594 98.59375 65.828125 98.800781 63.824219 C 98.808594 63.757812 98.816406 63.6875 98.824219 63.617188 C 98.941406 62.394531 98.953125 61.164062 98.953125 59.9375 C 98.953125 59.863281 98.949219 59.792969 98.949219 59.714844 C 98.949219 57.808594 98.78125 55.949219 98.519531 54.058594 C 98.511719 53.988281 98.5 53.917969 98.492188 53.847656 C 97.792969 48.992188 95.976562 44.234375 89.167969 34.21875 C 89.058594 34.101562 88.949219 33.976562 88.84375 33.855469 C 88.324219 33.257812 87.777344 32.691406 87.21875 32.128906 C 87.171875 32.085938 87.128906 32.042969 87.082031 31.996094 C 86.839844 31.753906 86.589844 31.519531 86.332031 31.296875 C 86.171875 31.160156 86.023438 31.019531 85.871094 30.878906 C 85.597656 30.625 85.316406 30.382812 85.023438 30.148438 C 84.886719 30.035156 84.746094 29.921875 84.609375 29.808594 C 84.046875 29.335938 83.464844 28.894531 82.863281 28.46875 C 82.75 28.386719 82.640625 28.308594 82.527344 28.226562 C 79.503906 26.019531 76.09375 24.304688 72.550781 23.105469 C 72.359375 23.039062 72.167969 22.972656 71.980469 22.90625 C 71.277344 22.664062 70.574219 22.460938 69.851562 22.292969 C 69.660156 22.246094 69.472656 22.191406 69.28125 22.140625 C 67.507812 21.667969 65.667969 21.359375 63.839844 21.199219 C 63.65625 21.183594 63.472656 21.167969 63.289062 21.148438 C 62.289062 21.054688 61.289062 21.042969 60.285156 21.042969 C 60.058594 21.046875 59.832031 21.042969 59.601562 21.042969 C 58.46875 21.042969 57.347656 21.074219 56.21875 21.179688 Z M 56.21875 21.179688 "/>
<path style=" stroke:none;fill-rule:nonzero;fill:rgb(46.27451%,29.803923%,21.568628%);fill-opacity:1;" d="M 64.558594 53.640625 C 64.773438 53.753906 64.988281 53.886719 65.160156 54.058594 C 65.210938 54.65625 64.960938 55.199219 64.738281 55.738281 C 64.703125 55.835938 64.664062 55.933594 64.625 56.03125 C 64.273438 56.910156 64.273438 56.910156 64.089844 57.328125 C 63.875 57.824219 63.683594 58.328125 63.488281 58.832031 C 63.332031 59.230469 63.171875 59.625 63.007812 60.019531 C 62.3125 61.6875 61.90625 63.503906 61.644531 65.289062 C 61.628906 65.398438 61.609375 65.511719 61.585938 65.621094 C 61.554688 65.789062 61.550781 65.949219 61.546875 66.121094 C 61.546875 66.179688 61.546875 66.242188 61.546875 66.304688 C 61.566406 66.554688 61.621094 66.722656 61.800781 66.898438 C 62.078125 66.886719 62.277344 66.738281 62.496094 66.582031 C 62.535156 66.554688 62.570312 66.527344 62.609375 66.5 C 62.988281 66.214844 63.300781 65.886719 63.601562 65.519531 C 63.640625 65.472656 63.640625 65.472656 63.679688 65.425781 C 63.847656 65.21875 64.011719 65.007812 64.171875 64.792969 C 64.230469 64.71875 64.289062 64.644531 64.34375 64.570312 C 65.476562 63.105469 66.5 61.527344 67.441406 59.941406 C 67.46875 59.890625 67.496094 59.84375 67.527344 59.796875 C 67.851562 59.246094 68.167969 58.6875 68.457031 58.117188 C 68.554688 57.921875 68.652344 57.757812 68.800781 57.597656 C 68.96875 57.382812 68.984375 57.25 69.007812 56.980469 C 69.09375 56.175781 69.09375 56.175781 69.316406 55.878906 C 69.523438 55.722656 69.777344 55.769531 70.019531 55.800781 C 70.242188 55.886719 70.339844 55.960938 70.445312 56.175781 C 70.609375 56.601562 70.65625 56.976562 70.652344 57.429688 C 70.652344 57.5 70.652344 57.570312 70.65625 57.640625 C 70.65625 57.871094 70.65625 58.097656 70.65625 58.328125 C 70.65625 58.484375 70.660156 58.644531 70.660156 58.804688 C 70.660156 59.179688 70.664062 59.554688 70.664062 59.925781 C 70.664062 60.355469 70.667969 60.78125 70.667969 61.207031 C 70.675781 62.085938 70.679688 62.960938 70.679688 63.839844 C 70.777344 63.859375 70.878906 63.878906 70.980469 63.898438 C 70.996094 63.867188 71.011719 63.832031 71.027344 63.796875 C 71.835938 62.242188 73.183594 60.832031 74.3125 59.5 C 74.398438 59.398438 74.488281 59.296875 74.574219 59.195312 C 74.890625 58.820312 75.214844 58.449219 75.546875 58.085938 C 75.582031 58.050781 75.617188 58.011719 75.65625 57.96875 C 75.851562 57.761719 76.039062 57.597656 76.277344 57.4375 C 76.628906 57.179688 76.761719 56.792969 76.917969 56.398438 C 76.949219 56.320312 76.949219 56.320312 76.980469 56.242188 C 76.996094 56.195312 77.015625 56.152344 77.03125 56.101562 C 77.113281 55.953125 77.195312 55.886719 77.339844 55.800781 C 77.714844 55.734375 78.046875 55.785156 78.378906 55.957031 C 78.523438 56.074219 78.585938 56.171875 78.660156 56.339844 C 78.667969 56.515625 78.664062 56.671875 78.648438 56.84375 C 78.644531 56.886719 78.644531 56.929688 78.640625 56.976562 C 78.621094 57.257812 78.5625 57.507812 78.480469 57.78125 C 78.449219 57.929688 78.421875 58.078125 78.398438 58.226562 C 78.339844 58.554688 78.269531 58.871094 78.183594 59.195312 C 78.035156 59.757812 77.941406 60.332031 77.847656 60.910156 C 77.828125 61.023438 77.808594 61.136719 77.789062 61.25 C 77.710938 61.722656 77.640625 62.195312 77.574219 62.667969 C 77.5625 62.738281 77.550781 62.8125 77.539062 62.886719 C 77.472656 63.367188 77.445312 63.835938 77.460938 64.320312 C 77.9375 64.214844 78.1875 63.71875 78.441406 63.328125 C 78.9375 62.546875 79.382812 61.742188 79.792969 60.910156 C 80.082031 60.328125 80.398438 59.765625 80.726562 59.203125 C 80.824219 59.035156 80.917969 58.867188 81.011719 58.703125 C 81.925781 57.078125 81.925781 57.078125 82.441406 56.820312 C 82.863281 56.753906 83.234375 56.9375 83.578125 57.179688 C 83.730469 57.453125 83.722656 57.726562 83.71875 58.027344 C 83.71875 58.082031 83.71875 58.136719 83.71875 58.195312 C 83.707031 58.921875 83.601562 59.636719 83.503906 60.355469 C 83.484375 60.503906 83.464844 60.648438 83.445312 60.796875 C 83.367188 61.402344 83.285156 62.011719 83.199219 62.617188 C 83.089844 63.390625 83 64.136719 83.039062 64.921875 C 83.140625 64.941406 83.238281 64.960938 83.339844 64.980469 C 83.355469 64.945312 83.375 64.910156 83.390625 64.875 C 83.457031 64.746094 83.53125 64.621094 83.609375 64.5 C 83.652344 64.429688 83.652344 64.429688 83.699219 64.359375 C 83.746094 64.285156 83.746094 64.285156 83.792969 64.210938 C 84.085938 63.753906 84.371094 63.292969 84.644531 62.824219 C 84.730469 62.683594 84.8125 62.546875 84.894531 62.40625 C 85.488281 61.402344 86.082031 60.398438 86.644531 59.378906 C 86.664062 59.34375 86.683594 59.308594 86.707031 59.269531 C 86.800781 59.09375 86.898438 58.917969 86.992188 58.746094 C 87.660156 57.535156 87.660156 57.535156 87.964844 57.441406 C 88.1875 57.417969 88.347656 57.410156 88.5625 57.480469 C 88.679688 57.601562 88.679688 57.601562 88.699219 57.792969 C 88.675781 58.046875 88.617188 58.199219 88.496094 58.425781 C 88.476562 58.464844 88.453125 58.503906 88.433594 58.546875 C 88.355469 58.691406 88.277344 58.835938 88.199219 58.980469 C 88.167969 59.039062 88.136719 59.097656 88.101562 59.160156 C 87.671875 59.945312 87.230469 60.722656 86.777344 61.496094 C 86.378906 62.175781 86 62.863281 85.621094 63.550781 C 85.539062 63.703125 85.453125 63.851562 85.371094 64 C 85.328125 64.078125 85.289062 64.152344 85.246094 64.230469 C 85.066406 64.558594 84.882812 64.886719 84.703125 65.210938 C 84.613281 65.375 84.523438 65.542969 84.433594 65.707031 C 83.738281 66.96875 83.738281 66.96875 83.039062 67.199219 C 82.375 67.253906 81.894531 67.21875 81.347656 66.796875 C 80.914062 66.414062 80.71875 65.902344 80.640625 65.339844 C 80.628906 65.074219 80.628906 64.804688 80.628906 64.539062 C 80.628906 64.410156 80.628906 64.285156 80.625 64.160156 C 80.625 63.683594 80.65625 63.230469 80.734375 62.761719 C 80.769531 62.515625 80.769531 62.285156 80.761719 62.039062 C 80.5625 62.121094 80.476562 62.199219 80.371094 62.382812 C 80.34375 62.429688 80.316406 62.476562 80.289062 62.523438 C 80.246094 62.601562 80.246094 62.601562 80.203125 62.675781 C 80.136719 62.785156 80.074219 62.894531 80.007812 63.007812 C 79.976562 63.0625 79.941406 63.121094 79.90625 63.179688 C 79.726562 63.484375 79.539062 63.785156 79.351562 64.082031 C 79.3125 64.144531 79.273438 64.203125 79.234375 64.265625 C 79.160156 64.386719 79.085938 64.507812 79.007812 64.625 C 78.90625 64.792969 78.800781 64.957031 78.699219 65.121094 C 78.527344 65.394531 78.355469 65.667969 78.179688 65.941406 C 78.15625 65.976562 78.132812 66.011719 78.109375 66.046875 C 77.820312 66.488281 77.546875 66.789062 77.039062 66.960938 C 76.394531 67.019531 75.933594 66.875 75.421875 66.480469 C 74.972656 66.019531 74.863281 65.421875 74.859375 64.796875 C 74.886719 63.507812 75.207031 62.214844 75.480469 60.960938 C 75.515625 60.804688 75.546875 60.644531 75.582031 60.488281 C 75.597656 60.417969 75.609375 60.347656 75.625 60.273438 C 75.636719 60.222656 75.648438 60.171875 75.660156 60.121094 C 75.207031 60.59375 74.777344 61.078125 74.375 61.597656 C 74.234375 61.785156 74.082031 61.964844 73.929688 62.140625 C 73.382812 62.792969 72.878906 63.488281 72.425781 64.210938 C 72.25 64.492188 72.054688 64.753906 71.851562 65.019531 C 70.886719 66.175781 70.886719 66.175781 70.484375 67.558594 C 70.484375 67.660156 70.480469 67.757812 70.480469 67.859375 C 70.480469 67.910156 70.476562 67.960938 70.476562 68.015625 C 70.457031 69.160156 70.414062 70.300781 70.304688 71.4375 C 70.25 72.035156 70.234375 72.632812 70.214844 73.234375 C 70.175781 74.363281 70.117188 75.484375 69.980469 76.609375 C 69.960938 76.796875 69.941406 76.984375 69.921875 77.175781 C 69.75 78.886719 69.367188 80.589844 68.640625 82.15625 C 68.617188 82.207031 68.59375 82.257812 68.570312 82.308594 C 68.394531 82.667969 68.175781 82.96875 67.921875 83.28125 C 67.863281 83.351562 67.808594 83.425781 67.753906 83.496094 C 67.34375 83.964844 66.761719 84.242188 66.152344 84.320312 C 65.667969 84.34375 65.195312 84.199219 64.8125 83.902344 C 63.898438 83.019531 63.667969 81.351562 63.632812 80.144531 C 63.621094 77.632812 64.464844 75.152344 65.519531 72.898438 C 65.566406 72.800781 65.609375 72.699219 65.65625 72.601562 C 65.96875 71.917969 66.324219 71.261719 66.6875 70.605469 C 66.777344 70.441406 66.867188 70.277344 66.957031 70.113281 C 67.1875 69.683594 67.417969 69.257812 67.703125 68.859375 C 68.191406 68.132812 68.257812 67.460938 68.253906 66.613281 C 68.253906 66.304688 68.257812 65.996094 68.261719 65.691406 C 68.261719 65.625 68.261719 65.558594 68.265625 65.492188 C 68.277344 64.648438 68.339844 63.8125 68.398438 62.972656 C 68.40625 62.898438 68.410156 62.824219 68.417969 62.746094 C 68.441406 62.390625 68.46875 62.039062 68.492188 61.6875 C 68.527344 61.242188 68.554688 60.800781 68.578125 60.359375 C 68.546875 60.414062 68.515625 60.46875 68.484375 60.523438 C 68.113281 61.148438 67.722656 61.761719 67.328125 62.375 C 67.171875 62.617188 67.015625 62.863281 66.859375 63.109375 C 66.214844 64.128906 65.546875 65.125 64.8125 66.082031 C 64.753906 66.164062 64.691406 66.246094 64.632812 66.328125 C 64.085938 67.074219 63.234375 68.0625 62.28125 68.21875 C 61.507812 68.292969 60.921875 68.171875 60.28125 67.703125 C 59.640625 67.152344 59.328125 66.339844 59.21875 65.519531 C 59.195312 65.054688 59.246094 64.617188 59.328125 64.164062 C 59.339844 64.101562 59.351562 64.039062 59.363281 63.972656 C 59.410156 63.6875 59.464844 63.398438 59.519531 63.109375 C 59.527344 63.0625 59.535156 63.019531 59.542969 62.96875 C 59.558594 62.886719 59.578125 62.800781 59.59375 62.714844 C 59.636719 62.492188 59.640625 62.320312 59.578125 62.101562 C 59.363281 62.132812 59.261719 62.214844 59.109375 62.375 C 59.070312 62.417969 59.027344 62.460938 58.984375 62.507812 C 58.839844 62.664062 58.699219 62.820312 58.5625 62.980469 C 58.144531 63.457031 57.714844 63.914062 57.253906 64.347656 C 57.199219 64.398438 57.199219 64.398438 57.144531 64.449219 C 56.539062 65.007812 56.101562 65.253906 55.25 65.238281 C 54.617188 65.1875 54.105469 64.925781 53.640625 64.5 C 53.496094 64.328125 53.382812 64.15625 53.28125 63.960938 C 53.246094 63.898438 53.214844 63.835938 53.183594 63.769531 C 53.070312 63.5 53.074219 63.242188 53.078125 62.953125 C 53.078125 62.898438 53.078125 62.84375 53.078125 62.789062 C 53.121094 60.878906 53.902344 59.265625 54.949219 57.707031 C 55.046875 57.558594 55.136719 57.40625 55.230469 57.25 C 55.773438 56.398438 56.5625 55.691406 57.550781 55.425781 C 58.363281 55.269531 59.167969 55.386719 59.875 55.820312 C 60.457031 56.222656 60.753906 56.6875 61.078125 57.300781 C 61.34375 57.277344 61.34375 57.277344 61.558594 57.136719 C 61.589844 57.089844 61.625 57.042969 61.660156 56.996094 C 61.703125 56.941406 61.742188 56.886719 61.785156 56.832031 C 61.992188 56.535156 62.199219 56.238281 62.402344 55.9375 C 62.613281 55.628906 62.832031 55.324219 63.046875 55.019531 C 63.210938 54.785156 63.375 54.550781 63.539062 54.316406 C 64.058594 53.574219 64.058594 53.574219 64.558594 53.640625 Z M 64.558594 53.640625 "/>
<path style=" stroke:none;fill-rule:nonzero;fill:rgb(46.666667%,29.803923%,21.568628%);fill-opacity:1;" d="M 53.640625 41.101562 C 54.128906 41.328125 54.460938 41.8125 54.660156 42.300781 C 55.238281 44.039062 54.191406 46.675781 53.671875 48.339844 C 53.550781 48.734375 53.4375 49.128906 53.332031 49.53125 C 53.214844 49.96875 53.085938 50.402344 52.9375 50.832031 C 52.863281 51.046875 52.800781 51.261719 52.738281 51.476562 C 52.59375 51.980469 52.4375 52.484375 52.277344 52.984375 C 52.265625 53.023438 52.253906 53.066406 52.238281 53.105469 C 52.132812 53.449219 52.027344 53.789062 51.917969 54.128906 C 51.367188 55.875 51.367188 55.875 50.875 57.640625 C 50.78125 58.003906 50.6875 58.367188 50.578125 58.730469 C 50.410156 59.316406 50.28125 59.914062 50.148438 60.511719 C 50.101562 60.714844 50.054688 60.914062 50.007812 61.117188 C 49.769531 62.136719 49.589844 63.164062 49.441406 64.199219 C 49.421875 64.316406 49.421875 64.316406 49.40625 64.433594 C 49.183594 65.976562 49.070312 67.511719 49.066406 69.066406 C 49.066406 69.117188 49.0625 69.164062 49.0625 69.214844 C 49.0625 69.894531 49.070312 70.570312 49.316406 71.214844 C 49.335938 71.265625 49.355469 71.320312 49.375 71.371094 C 49.445312 71.535156 49.515625 71.675781 49.621094 71.820312 C 49.804688 71.890625 49.96875 71.867188 50.160156 71.820312 C 50.683594 71.558594 51.0625 71.007812 51.421875 70.558594 C 51.460938 70.507812 51.460938 70.507812 51.503906 70.457031 C 52.019531 69.828125 52.363281 69.128906 52.714844 68.398438 C 53.515625 66.742188 53.515625 66.742188 53.941406 66.359375 C 54.136719 66.292969 54.285156 66.289062 54.480469 66.359375 C 54.589844 66.429688 54.589844 66.429688 54.660156 66.539062 C 54.652344 66.871094 54.496094 67.15625 54.359375 67.453125 C 54.335938 67.503906 54.3125 67.554688 54.289062 67.609375 C 54.078125 68.0625 53.867188 68.515625 53.652344 68.964844 C 53.566406 69.144531 53.480469 69.324219 53.402344 69.503906 C 52.835938 70.753906 51.996094 72.265625 50.640625 72.78125 C 50.132812 72.914062 49.578125 72.867188 49.078125 72.71875 C 49.039062 72.710938 49 72.699219 48.957031 72.6875 C 48.363281 72.496094 47.9375 72.058594 47.640625 71.519531 C 47.191406 70.578125 46.972656 69.710938 46.96875 68.671875 C 46.96875 68.597656 46.96875 68.527344 46.964844 68.449219 C 46.964844 68.296875 46.964844 68.144531 46.964844 67.988281 C 46.964844 67.761719 46.964844 67.53125 46.960938 67.300781 C 46.957031 66.277344 47.023438 65.277344 47.160156 64.261719 C 47.171875 64.179688 47.171875 64.179688 47.179688 64.101562 C 47.222656 63.792969 47.269531 63.488281 47.320312 63.179688 C 47.328125 63.132812 47.335938 63.089844 47.34375 63.042969 C 47.519531 61.976562 47.75 60.929688 48 59.878906 C 48.023438 59.785156 48.046875 59.6875 48.066406 59.589844 C 48.304688 58.585938 48.546875 57.578125 48.84375 56.589844 C 48.898438 56.402344 48.953125 56.214844 49.007812 56.027344 C 49.648438 53.859375 50.34375 51.710938 51.105469 49.582031 C 51.65625 48.050781 52.152344 46.503906 52.628906 44.949219 C 52.710938 44.675781 52.796875 44.402344 52.902344 44.140625 C 52.980469 43.917969 53.007812 43.734375 53.019531 43.5 C 53.027344 43.398438 53.027344 43.398438 53.03125 43.292969 C 53.035156 43.242188 53.039062 43.191406 53.039062 43.140625 C 52.285156 43.46875 51.835938 44.382812 51.421875 45.058594 C 51.394531 45.101562 51.371094 45.140625 51.347656 45.179688 C 50.628906 46.355469 49.992188 47.582031 49.410156 48.828125 C 49.328125 49 49.25 49.167969 49.167969 49.335938 C 48.53125 50.675781 47.929688 52.035156 47.339844 53.398438 C 47.320312 53.445312 47.300781 53.492188 47.277344 53.542969 C 46.859375 54.511719 46.445312 55.488281 46.039062 56.464844 C 45.628906 57.453125 45.207031 58.429688 44.761719 59.398438 C 44.710938 59.503906 44.710938 59.503906 44.660156 59.613281 C 44.46875 60.035156 44.273438 60.457031 44.074219 60.875 C 44.011719 61.011719 43.949219 61.148438 43.882812 61.285156 C 42.925781 63.351562 42.925781 63.351562 42.421875 63.601562 C 41.984375 63.71875 41.65625 63.585938 41.273438 63.378906 C 40.773438 62.980469 40.496094 62.535156 40.414062 61.894531 C 40.402344 61.660156 40.398438 61.429688 40.398438 61.195312 C 40.398438 61.152344 40.398438 61.113281 40.398438 61.066406 C 40.402344 60.179688 40.5625 59.34375 40.765625 58.484375 C 40.855469 58.113281 40.929688 57.738281 41 57.363281 C 41.140625 56.652344 41.304688 55.949219 41.472656 55.246094 C 41.519531 55.054688 41.566406 54.863281 41.613281 54.671875 C 41.761719 54.054688 41.914062 53.433594 42.082031 52.816406 C 42.207031 52.347656 42.316406 51.910156 42.300781 51.421875 C 42.039062 51.554688 41.886719 51.722656 41.722656 51.960938 C 41.683594 52.015625 41.683594 52.015625 41.644531 52.070312 C 39.796875 54.773438 38.410156 58.21875 37.625 61.386719 C 37.511719 61.832031 37.390625 62.273438 37.265625 62.714844 C 37.121094 63.199219 36.996094 63.6875 36.871094 64.175781 C 36.738281 64.6875 36.597656 65.191406 36.4375 65.691406 C 36.3125 66.074219 36.203125 66.457031 36.09375 66.84375 C 36.078125 66.90625 36.058594 66.96875 36.039062 67.03125 C 35.949219 67.367188 35.859375 67.703125 35.769531 68.042969 C 35.753906 68.109375 35.734375 68.179688 35.714844 68.25 C 35.679688 68.382812 35.648438 68.515625 35.613281 68.648438 C 35.507812 69.054688 35.363281 69.414062 35.160156 69.78125 C 34.976562 69.785156 34.796875 69.792969 34.613281 69.796875 C 34.5625 69.796875 34.511719 69.800781 34.457031 69.800781 C 34.117188 69.804688 33.929688 69.765625 33.660156 69.539062 C 33.277344 69.148438 33.09375 68.722656 33.089844 68.171875 C 33.089844 68.117188 33.089844 68.058594 33.09375 68 C 33.09375 67.941406 33.09375 67.882812 33.09375 67.820312 C 33.09375 67.625 33.09375 67.429688 33.097656 67.238281 C 33.097656 67.101562 33.097656 66.96875 33.101562 66.835938 C 33.109375 65.910156 33.140625 64.996094 33.238281 64.078125 C 33.25 63.996094 33.257812 63.914062 33.265625 63.828125 C 33.363281 62.914062 33.464844 62 33.617188 61.09375 C 33.65625 60.871094 33.6875 60.644531 33.71875 60.417969 C 33.929688 58.855469 34.238281 57.3125 34.601562 55.777344 C 34.675781 55.464844 34.742188 55.152344 34.8125 54.835938 C 34.914062 54.363281 35.042969 53.902344 35.175781 53.4375 C 35.40625 52.617188 35.628906 51.792969 35.8125 50.960938 C 35.945312 50.367188 36.09375 49.773438 36.238281 49.183594 C 36.253906 49.132812 36.265625 49.082031 36.277344 49.03125 C 36.433594 48.40625 36.597656 47.785156 36.773438 47.164062 C 36.820312 46.996094 36.867188 46.824219 36.910156 46.65625 C 37.042969 46.152344 37.226562 45.6875 37.449219 45.214844 C 37.472656 45.160156 37.5 45.101562 37.527344 45.046875 C 37.714844 44.65625 37.714844 44.65625 37.921875 44.519531 C 38.257812 44.492188 38.472656 44.507812 38.761719 44.699219 C 38.992188 44.921875 39.085938 45.085938 39.117188 45.410156 C 39.121094 45.636719 39.0625 45.84375 39 46.0625 C 38.84375 46.664062 38.726562 47.273438 38.613281 47.886719 C 38.480469 48.601562 38.339844 49.308594 38.179688 50.015625 C 38.089844 50.40625 38.007812 50.796875 37.925781 51.183594 C 37.910156 51.257812 37.910156 51.257812 37.894531 51.328125 C 37.875 51.429688 37.855469 51.527344 37.835938 51.625 C 37.667969 52.433594 37.488281 53.238281 37.289062 54.042969 C 37.15625 54.589844 37.03125 55.140625 36.910156 55.691406 C 36.828125 56.070312 36.738281 56.445312 36.640625 56.820312 C 36.296875 58.144531 36.097656 59.492188 35.925781 60.847656 C 35.867188 61.320312 35.789062 61.773438 35.675781 62.238281 C 35.632812 62.429688 35.621094 62.609375 35.628906 62.808594 C 35.628906 62.867188 35.632812 62.929688 35.632812 62.988281 C 35.636719 63.03125 35.636719 63.074219 35.640625 63.121094 C 35.71875 63.140625 35.796875 63.160156 35.878906 63.179688 C 35.890625 63.140625 35.902344 63.097656 35.914062 63.058594 C 37.089844 58.726562 38.613281 53.996094 41.296875 50.355469 C 41.324219 50.316406 41.351562 50.277344 41.378906 50.238281 C 41.597656 49.949219 41.851562 49.664062 42.179688 49.5 C 42.75 49.445312 43.179688 49.535156 43.640625 49.878906 C 44.046875 50.289062 44.171875 50.78125 44.179688 51.351562 C 44.179688 51.398438 44.179688 51.449219 44.179688 51.5 C 44.179688 51.550781 44.179688 51.601562 44.179688 51.65625 C 44.171875 52.160156 44.089844 52.640625 43.984375 53.132812 C 43.929688 53.402344 43.875 53.675781 43.820312 53.945312 C 43.808594 54.003906 43.796875 54.0625 43.785156 54.121094 C 43.648438 54.816406 43.527344 55.515625 43.40625 56.210938 C 43.230469 57.222656 43.046875 58.230469 42.84375 59.234375 C 42.832031 59.277344 42.824219 59.320312 42.816406 59.363281 C 42.792969 59.472656 42.773438 59.582031 42.75 59.6875 C 42.71875 59.875 42.714844 60.050781 42.71875 60.238281 C 43.164062 60.089844 43.378906 59.421875 43.578125 59.023438 C 43.648438 58.882812 43.71875 58.742188 43.789062 58.601562 C 43.8125 58.550781 43.835938 58.503906 43.863281 58.453125 C 44.425781 57.3125 44.933594 56.15625 45.421875 54.984375 C 45.734375 54.226562 46.054688 53.476562 46.382812 52.726562 C 46.421875 52.636719 46.460938 52.542969 46.5 52.449219 C 46.523438 52.402344 46.542969 52.359375 46.5625 52.3125 C 46.699219 51.996094 46.832031 51.679688 46.96875 51.363281 C 47.464844 50.1875 47.988281 49.023438 48.546875 47.871094 C 48.597656 47.765625 48.648438 47.660156 48.699219 47.554688 C 49.109375 46.699219 49.566406 45.882812 50.050781 45.066406 C 50.164062 44.871094 50.277344 44.671875 50.390625 44.472656 C 52.382812 40.964844 52.382812 40.964844 53.640625 41.101562 Z M 53.640625 41.101562 "/>
<path style=" stroke:none;fill-rule:nonzero;fill:rgb(46.27451%,29.411766%,21.176471%);fill-opacity:1;" d="M 59.945312 23.203125 C 60 23.199219 60.054688 23.199219 60.113281 23.199219 C 61.363281 23.210938 62.464844 23.824219 63.367188 24.65625 C 64.449219 25.804688 64.667969 27.421875 64.628906 28.929688 C 64.550781 30.636719 63.503906 32.015625 62.460938 33.300781 C 62.414062 33.355469 62.371094 33.414062 62.324219 33.472656 C 61.832031 34.078125 61.300781 34.644531 60.765625 35.210938 C 60.402344 35.59375 60.0625 35.957031 59.808594 36.421875 C 59.789062 36.453125 59.769531 36.488281 59.75 36.523438 C 59.488281 36.984375 59.34375 37.429688 59.21875 37.941406 C 59.203125 38.007812 59.1875 38.070312 59.171875 38.136719 C 59.011719 38.839844 58.929688 39.546875 58.859375 40.261719 C 57.828125 39.277344 57.359375 37.3125 56.878906 36 C 56.855469 35.929688 56.828125 35.859375 56.800781 35.785156 C 55.734375 32.859375 54.902344 28.78125 56.210938 25.796875 C 56.40625 25.375 56.632812 25.007812 56.941406 24.660156 C 56.96875 24.625 56.996094 24.589844 57.023438 24.550781 C 57.703125 23.679688 58.855469 23.183594 59.945312 23.203125 Z M 59.945312 23.203125 "/>
<path style=" stroke:none;fill-rule:nonzero;fill:rgb(46.27451%,29.411766%,21.176471%);fill-opacity:1;" d="M 69.367188 32.503906 C 69.429688 32.503906 69.496094 32.503906 69.5625 32.5 C 70.921875 32.496094 72.332031 33.15625 73.320312 34.078125 C 73.503906 34.289062 73.65625 34.503906 73.800781 34.738281 C 73.839844 34.804688 73.839844 34.804688 73.882812 34.871094 C 74.117188 35.3125 74.105469 35.824219 74 36.304688 C 73.875 36.671875 73.695312 36.96875 73.441406 37.261719 C 73.410156 37.296875 73.378906 37.332031 73.34375 37.371094 C 72.652344 38.113281 71.597656 38.394531 70.621094 38.519531 C 70.515625 38.535156 70.515625 38.535156 70.410156 38.550781 C 69.882812 38.621094 69.367188 38.65625 68.835938 38.65625 C 68.707031 38.652344 68.578125 38.65625 68.445312 38.65625 C 68.078125 38.65625 67.710938 38.660156 67.34375 38.660156 C 65.023438 38.613281 65.023438 38.613281 63.011719 39.613281 C 62.871094 39.769531 62.871094 39.769531 62.820312 39.960938 C 62.78125 39.960938 62.742188 39.960938 62.699219 39.960938 C 62.542969 38.132812 63.546875 36.132812 64.6875 34.765625 C 65.898438 33.378906 67.511719 32.515625 69.367188 32.503906 Z M 69.367188 32.503906 "/>
<path style=" stroke:none;fill-rule:nonzero;fill:rgb(46.27451%,29.411766%,21.176471%);fill-opacity:1;" d="M 50.699219 30.121094 C 50.765625 30.148438 50.828125 30.175781 50.894531 30.207031 C 52.03125 30.765625 52.660156 31.714844 53.0625 32.882812 C 53.425781 34.003906 53.476562 35.121094 53.492188 36.285156 C 53.5 37.558594 53.5 37.558594 53.804688 38.78125 C 53.820312 38.820312 53.835938 38.863281 53.851562 38.902344 C 53.980469 39.222656 54.148438 39.507812 54.359375 39.78125 C 51.972656 39.445312 49.132812 37.273438 47.398438 35.640625 C 47.351562 35.59375 47.300781 35.550781 47.25 35.503906 C 46.613281 34.902344 46.023438 34.066406 45.949219 33.167969 C 45.921875 32.140625 46.015625 31.480469 46.738281 30.710938 C 47.71875 29.765625 49.472656 29.570312 50.699219 30.121094 Z M 50.699219 30.121094 "/>
<path style=" stroke:none;fill-rule:nonzero;fill:rgb(92.941177%,89.803922%,85.882354%);fill-opacity:1;" d="M 67.800781 71.339844 C 68.03125 71.453125 68.03125 71.453125 68.101562 71.519531 C 68.105469 71.613281 68.105469 71.703125 68.101562 71.796875 C 68.101562 71.855469 68.101562 71.914062 68.097656 71.976562 C 68.097656 72.070312 68.097656 72.070312 68.09375 72.171875 C 68.09375 72.238281 68.09375 72.304688 68.089844 72.375 C 68.085938 72.59375 68.082031 72.8125 68.078125 73.03125 C 68.074219 73.179688 68.070312 73.328125 68.070312 73.476562 C 68.050781 74.265625 68.035156 75.054688 68.011719 75.84375 C 68.007812 75.914062 68.003906 75.984375 68.003906 76.058594 C 68 76.121094 68 76.183594 67.996094 76.25 C 67.996094 76.304688 67.992188 76.355469 67.992188 76.414062 C 67.980469 76.566406 67.949219 76.710938 67.921875 76.859375 C 67.910156 76.949219 67.902344 77.039062 67.898438 77.128906 C 67.851562 77.816406 67.769531 78.492188 67.65625 79.171875 C 67.644531 79.246094 67.632812 79.320312 67.621094 79.394531 C 67.441406 80.457031 67.125 82.210938 66.390625 83.058594 C 66.238281 83.160156 66.238281 83.160156 66.085938 83.167969 C 65.671875 82.976562 65.492188 82.433594 65.328125 82.035156 C 64.246094 79.023438 65.578125 75.527344 66.859375 72.792969 C 67.109375 72.273438 67.386719 71.753906 67.800781 71.339844 Z M 67.800781 71.339844 "/>
<path style=" stroke:none;fill-rule:nonzero;fill:rgb(93.333334%,89.803922%,85.882354%);fill-opacity:1;" d="M 59.398438 56.398438 C 59.703125 56.609375 59.804688 56.910156 59.941406 57.238281 C 60.054688 57.507812 60.160156 57.664062 60.429688 57.78125 C 60.472656 57.792969 60.515625 57.808594 60.558594 57.820312 C 60.660156 57.898438 60.660156 57.898438 60.722656 58.089844 C 60.71875 58.402344 60.601562 58.523438 60.402344 58.746094 C 60.332031 58.828125 60.265625 58.90625 60.199219 58.984375 C 60.164062 59.023438 60.132812 59.0625 60.097656 59.105469 C 59.957031 59.269531 59.828125 59.445312 59.695312 59.617188 C 59.417969 59.984375 59.125 60.332031 58.824219 60.683594 C 58.742188 60.777344 58.664062 60.871094 58.585938 60.96875 C 58.226562 61.40625 57.84375 61.8125 57.445312 62.214844 C 57.363281 62.300781 57.28125 62.386719 57.195312 62.472656 C 56.816406 62.851562 56.429688 63.136719 55.980469 63.421875 C 55.949219 63.449219 55.949219 63.449219 55.921875 63.480469 C 55.742188 63.492188 55.742188 63.492188 55.558594 63.480469 C 55.402344 63.320312 55.421875 63.242188 55.417969 63.019531 C 55.425781 62.546875 55.539062 62.128906 55.679688 61.679688 C 55.695312 61.632812 55.707031 61.585938 55.722656 61.539062 C 56.234375 59.84375 57.101562 57.453125 58.679688 56.460938 C 58.925781 56.378906 59.144531 56.363281 59.398438 56.398438 Z M 59.398438 56.398438 "/>
<path style=" stroke:none;fill-rule:nonzero;fill:rgb(92.941177%,89.803922%,85.882354%);fill-opacity:1;" d="M 64.515625 86.296875 C 64.953125 86.597656 65.359375 87.066406 65.460938 87.601562 C 65.53125 88.257812 65.425781 88.777344 65.046875 89.324219 C 64.695312 89.753906 64.214844 90.082031 63.660156 90.179688 C 62.898438 90.234375 62.28125 90.140625 61.679688 89.640625 C 61.273438 89.234375 61.070312 88.785156 61.058594 88.210938 C 61.058594 87.777344 61.082031 87.429688 61.320312 87.058594 C 61.34375 87.019531 61.371094 86.976562 61.398438 86.933594 C 62.085938 85.914062 63.480469 85.714844 64.515625 86.296875 Z M 64.515625 86.296875 "/>
<path style=" stroke:none;fill-rule:nonzero;fill:rgb(47.058824%,30.588236%,22.352941%);fill-opacity:1;" d="M 65.878906 86.101562 C 66.1875 86.09375 66.496094 86.089844 66.800781 86.085938 C 66.90625 86.085938 67.011719 86.082031 67.117188 86.082031 C 67.265625 86.078125 67.417969 86.078125 67.566406 86.078125 C 67.613281 86.074219 67.660156 86.074219 67.707031 86.074219 C 68.042969 86.074219 68.296875 86.152344 68.578125 86.339844 C 68.828125 86.605469 68.957031 86.804688 68.957031 87.171875 C 68.960938 87.234375 68.960938 87.296875 68.960938 87.359375 C 68.933594 87.605469 68.839844 87.761719 68.664062 87.933594 C 68.574219 88.003906 68.488281 88.070312 68.398438 88.140625 C 68.488281 88.457031 68.636719 88.707031 68.8125 88.980469 C 68.839844 89.019531 68.863281 89.0625 68.890625 89.105469 C 68.941406 89.1875 68.996094 89.265625 69.046875 89.347656 C 69.113281 89.449219 69.179688 89.554688 69.246094 89.660156 C 69.355469 89.8125 69.421875 89.882812 69.585938 89.960938 C 69.648438 89.996094 69.714844 90.027344 69.78125 90.058594 C 69.78125 90.097656 69.78125 90.140625 69.78125 90.179688 C 69.429688 90.210938 69.164062 90.152344 68.878906 89.941406 C 68.621094 89.683594 68.445312 89.398438 68.273438 89.082031 C 68.019531 88.585938 68.019531 88.585938 67.578125 88.277344 C 67.386719 88.25 67.214844 88.25 67.019531 88.261719 C 67.019531 88.507812 67.027344 88.753906 67.03125 89 C 67.03125 89.070312 67.03125 89.140625 67.03125 89.210938 C 67.035156 89.277344 67.035156 89.34375 67.039062 89.414062 C 67.039062 89.476562 67.039062 89.539062 67.039062 89.601562 C 67.066406 89.773438 67.066406 89.773438 67.222656 89.867188 C 67.375 89.9375 67.511719 89.976562 67.679688 90 C 67.679688 90.039062 67.679688 90.078125 67.679688 90.121094 C 67.105469 90.121094 66.53125 90.121094 65.941406 90.121094 C 65.941406 90.082031 65.941406 90.039062 65.941406 90 C 66.007812 89.984375 66.074219 89.964844 66.144531 89.949219 C 66.214844 89.925781 66.289062 89.902344 66.359375 89.878906 C 66.4375 89.722656 66.425781 89.609375 66.425781 89.433594 C 66.425781 89.328125 66.425781 89.328125 66.425781 89.226562 C 66.425781 89.152344 66.425781 89.078125 66.425781 89 C 66.425781 88.925781 66.425781 88.847656 66.425781 88.769531 C 66.425781 88.570312 66.425781 88.367188 66.425781 88.167969 C 66.421875 87.960938 66.421875 87.753906 66.421875 87.550781 C 66.421875 87.148438 66.421875 86.742188 66.421875 86.339844 C 66.152344 86.28125 66.152344 86.28125 65.878906 86.21875 C 65.878906 86.179688 65.878906 86.140625 65.878906 86.101562 Z M 65.878906 86.101562 "/>
<path style=" stroke:none;fill-rule:nonzero;fill:rgb(46.666667%,30.19608%,21.960784%);fill-opacity:1;" d="M 70.140625 49.320312 C 70.726562 49.582031 71.261719 50.214844 71.578125 50.761719 C 71.683594 51.222656 71.515625 51.675781 71.273438 52.070312 C 71.054688 52.355469 70.808594 52.53125 70.453125 52.585938 C 69.988281 52.613281 69.652344 52.507812 69.300781 52.199219 C 68.921875 51.738281 68.898438 51.285156 68.941406 50.699219 C 69.035156 50.21875 69.191406 49.792969 69.539062 49.441406 C 69.769531 49.285156 69.867188 49.285156 70.140625 49.320312 Z M 70.140625 49.320312 "/>
<path style=" stroke:none;fill-rule:nonzero;fill:rgb(48.235294%,31.764707%,23.529412%);fill-opacity:1;" d="M 45.359375 86.101562 C 45.558594 86.101562 45.757812 86.101562 45.960938 86.101562 C 46.164062 86.5625 46.335938 87.03125 46.5 87.511719 C 46.535156 87.605469 46.535156 87.605469 46.566406 87.703125 C 46.660156 87.964844 46.75 88.226562 46.839844 88.492188 C 46.902344 88.683594 46.972656 88.878906 47.039062 89.070312 C 47.058594 89.132812 47.078125 89.191406 47.097656 89.253906 C 47.207031 89.558594 47.285156 89.769531 47.578125 89.941406 C 47.667969 89.96875 47.667969 89.96875 47.761719 90 C 47.761719 90.039062 47.761719 90.078125 47.761719 90.121094 C 47.1875 90.121094 46.613281 90.121094 46.019531 90.121094 C 46.019531 90.082031 46.019531 90.039062 46.019531 90 C 46.199219 89.960938 46.375 89.921875 46.558594 89.878906 C 46.621094 89.628906 46.617188 89.582031 46.535156 89.355469 C 46.515625 89.300781 46.496094 89.246094 46.476562 89.191406 C 46.457031 89.136719 46.433594 89.082031 46.414062 89.023438 C 46.394531 88.96875 46.375 88.914062 46.351562 88.855469 C 46.300781 88.714844 46.25 88.578125 46.199219 88.441406 C 45.804688 88.441406 45.40625 88.441406 45 88.441406 C 44.929688 88.632812 44.855469 88.828125 44.785156 89.023438 C 44.765625 89.082031 44.746094 89.136719 44.722656 89.191406 C 44.703125 89.246094 44.6875 89.300781 44.664062 89.355469 C 44.648438 89.402344 44.628906 89.453125 44.613281 89.503906 C 44.566406 89.65625 44.566406 89.65625 44.640625 89.878906 C 44.90625 89.9375 44.90625 89.9375 45.179688 90 C 45.179688 90.039062 45.179688 90.078125 45.179688 90.121094 C 44.683594 90.121094 44.191406 90.121094 43.679688 90.121094 C 43.679688 90.082031 43.679688 90.039062 43.679688 90 C 43.746094 89.980469 43.746094 89.980469 43.816406 89.960938 C 44.175781 89.78125 44.277344 89.394531 44.398438 89.03125 C 44.429688 88.9375 44.429688 88.9375 44.460938 88.84375 C 44.496094 88.746094 44.496094 88.746094 44.527344 88.644531 C 44.597656 88.4375 44.667969 88.230469 44.738281 88.023438 C 44.785156 87.882812 44.832031 87.746094 44.878906 87.605469 C 45.132812 86.855469 45.132812 86.855469 45.359375 86.101562 Z M 45.359375 86.101562 "/>
<path style=" stroke:none;fill-rule:nonzero;fill:rgb(47.843137%,31.764707%,23.529412%);fill-opacity:1;" d="M 56.339844 86.101562 C 56.539062 86.101562 56.734375 86.101562 56.941406 86.101562 C 57.117188 86.484375 57.265625 86.867188 57.40625 87.265625 C 57.445312 87.386719 57.488281 87.503906 57.53125 87.625 C 57.59375 87.808594 57.660156 87.996094 57.726562 88.179688 C 57.789062 88.359375 57.851562 88.539062 57.914062 88.722656 C 57.933594 88.777344 57.953125 88.832031 57.972656 88.886719 C 58.136719 89.453125 58.136719 89.453125 58.488281 89.890625 C 58.617188 89.945312 58.617188 89.945312 58.800781 90 C 58.800781 90.039062 58.800781 90.078125 58.800781 90.121094 C 58.207031 90.121094 57.613281 90.121094 57 90.121094 C 57 90.082031 57 90.039062 57 90 C 57.179688 89.960938 57.355469 89.921875 57.539062 89.878906 C 57.601562 89.652344 57.597656 89.519531 57.515625 89.300781 C 57.496094 89.253906 57.480469 89.210938 57.460938 89.164062 C 57.4375 89.105469 57.417969 89.050781 57.394531 88.992188 C 57.324219 88.808594 57.253906 88.628906 57.179688 88.441406 C 56.785156 88.441406 56.386719 88.441406 55.980469 88.441406 C 55.910156 88.636719 55.839844 88.832031 55.769531 89.027344 C 55.75 89.085938 55.730469 89.140625 55.710938 89.199219 C 55.691406 89.25 55.671875 89.304688 55.652344 89.359375 C 55.632812 89.410156 55.617188 89.457031 55.597656 89.507812 C 55.550781 89.644531 55.550781 89.644531 55.558594 89.820312 C 55.765625 89.957031 55.917969 89.972656 56.160156 90 C 56.160156 90.039062 56.160156 90.078125 56.160156 90.121094 C 55.664062 90.121094 55.171875 90.121094 54.660156 90.121094 C 54.660156 90.082031 54.660156 90.039062 54.660156 90 C 54.726562 89.980469 54.792969 89.957031 54.859375 89.9375 C 55.046875 89.855469 55.078125 89.828125 55.183594 89.636719 C 55.210938 89.5625 55.234375 89.484375 55.257812 89.40625 C 55.273438 89.367188 55.289062 89.324219 55.300781 89.28125 C 55.332031 89.191406 55.363281 89.097656 55.390625 89.007812 C 55.441406 88.855469 55.492188 88.707031 55.546875 88.554688 C 55.640625 88.289062 55.730469 88.019531 55.824219 87.753906 C 55.878906 87.585938 55.9375 87.421875 55.992188 87.253906 C 56.03125 87.148438 56.066406 87.039062 56.101562 86.933594 C 56.121094 86.882812 56.136719 86.835938 56.15625 86.785156 C 56.230469 86.558594 56.300781 86.335938 56.339844 86.101562 Z M 56.339844 86.101562 "/>
<path style=" stroke:none;fill-rule:nonzero;fill:rgb(47.843137%,31.37255%,23.529412%);fill-opacity:1;" d="M 64.515625 86.296875 C 64.953125 86.597656 65.359375 87.066406 65.460938 87.601562 C 65.53125 88.257812 65.425781 88.777344 65.046875 89.324219 C 64.695312 89.753906 64.214844 90.082031 63.660156 90.179688 C 62.898438 90.234375 62.28125 90.140625 61.679688 89.640625 C 61.273438 89.234375 61.070312 88.785156 61.058594 88.210938 C 61.058594 87.777344 61.082031 87.429688 61.320312 87.058594 C 61.34375 87.019531 61.371094 86.976562 61.398438 86.933594 C 62.085938 85.914062 63.480469 85.714844 64.515625 86.296875 Z M 62.015625 86.75 C 61.65625 87.296875 61.601562 87.855469 61.679688 88.5 C 61.84375 89.125 62.160156 89.554688 62.710938 89.882812 C 63.042969 90.054688 63.402344 90.046875 63.757812 89.964844 C 64.226562 89.800781 64.480469 89.511719 64.734375 89.09375 C 64.9375 88.566406 64.960938 87.859375 64.757812 87.328125 C 64.527344 86.84375 64.25 86.507812 63.761719 86.273438 C 63.121094 86.0625 62.4375 86.222656 62.015625 86.75 Z M 62.015625 86.75 "/>
<path style=" stroke:none;fill-rule:nonzero;fill:rgb(49.411765%,33.725491%,25.882354%);fill-opacity:1;" d="M 70.019531 86.101562 C 70.421875 86.097656 70.820312 86.097656 71.222656 86.097656 C 71.359375 86.097656 71.496094 86.097656 71.628906 86.09375 C 71.828125 86.09375 72.023438 86.09375 72.21875 86.09375 C 72.277344 86.09375 72.339844 86.09375 72.402344 86.09375 C 72.460938 86.09375 72.515625 86.09375 72.574219 86.09375 C 72.625 86.09375 72.675781 86.09375 72.726562 86.09375 C 72.839844 86.101562 72.839844 86.101562 72.898438 86.160156 C 72.90625 86.3125 72.90625 86.460938 72.902344 86.613281 C 72.902344 86.65625 72.902344 86.699219 72.902344 86.742188 C 72.902344 86.847656 72.902344 86.953125 72.898438 87.058594 C 72.859375 87.058594 72.820312 87.058594 72.78125 87.058594 C 72.769531 87.023438 72.753906 86.984375 72.742188 86.945312 C 72.726562 86.894531 72.710938 86.84375 72.695312 86.792969 C 72.679688 86.746094 72.660156 86.695312 72.644531 86.644531 C 72.609375 86.523438 72.609375 86.523438 72.539062 86.460938 C 72.441406 86.449219 72.34375 86.445312 72.246094 86.441406 C 72.191406 86.4375 72.136719 86.4375 72.082031 86.433594 C 72.015625 86.429688 71.945312 86.429688 71.875 86.425781 C 71.660156 86.417969 71.441406 86.410156 71.21875 86.398438 C 71.21875 86.894531 71.21875 87.390625 71.21875 87.898438 C 71.8125 87.871094 71.8125 87.871094 72.421875 87.839844 C 72.480469 87.703125 72.539062 87.5625 72.601562 87.421875 C 72.640625 87.421875 72.679688 87.421875 72.71875 87.421875 C 72.71875 87.855469 72.71875 88.292969 72.71875 88.738281 C 72.679688 88.738281 72.640625 88.738281 72.601562 88.738281 C 72.582031 88.671875 72.566406 88.605469 72.546875 88.535156 C 72.523438 88.464844 72.503906 88.394531 72.480469 88.320312 C 72.34375 88.25 72.253906 88.25 72.097656 88.242188 C 72.054688 88.238281 72.007812 88.238281 71.960938 88.234375 C 71.902344 88.230469 71.84375 88.230469 71.78125 88.226562 C 71.597656 88.21875 71.410156 88.207031 71.21875 88.199219 C 71.238281 88.714844 71.257812 89.230469 71.28125 89.761719 C 71.511719 89.765625 71.746094 89.773438 71.984375 89.78125 C 72.058594 89.785156 72.132812 89.789062 72.207031 89.792969 C 72.382812 89.796875 72.546875 89.792969 72.71875 89.761719 C 72.890625 89.601562 72.890625 89.601562 72.960938 89.398438 C 72.984375 89.34375 73.007812 89.285156 73.035156 89.226562 C 73.050781 89.183594 73.066406 89.144531 73.078125 89.101562 C 73.101562 89.101562 73.121094 89.101562 73.140625 89.101562 C 73.140625 89.214844 73.144531 89.328125 73.144531 89.441406 C 73.144531 89.503906 73.144531 89.566406 73.144531 89.632812 C 73.140625 89.820312 73.140625 89.820312 73.078125 90.121094 C 72.011719 90.121094 70.941406 90.121094 69.839844 90.121094 C 69.839844 90.082031 69.839844 90.039062 69.839844 90 C 69.886719 89.992188 69.933594 89.984375 69.980469 89.976562 C 70.074219 89.960938 70.074219 89.960938 70.167969 89.945312 C 70.226562 89.933594 70.289062 89.921875 70.351562 89.914062 C 70.496094 89.894531 70.496094 89.894531 70.558594 89.820312 C 70.566406 89.714844 70.566406 89.609375 70.570312 89.507812 C 70.570312 89.441406 70.570312 89.371094 70.570312 89.304688 C 70.570312 89.230469 70.570312 89.160156 70.570312 89.082031 C 70.570312 89.007812 70.570312 88.933594 70.570312 88.859375 C 70.570312 88.699219 70.570312 88.542969 70.570312 88.386719 C 70.570312 88.226562 70.570312 88.0625 70.574219 87.902344 C 70.574219 87.667969 70.574219 87.4375 70.574219 87.203125 C 70.574219 87.132812 70.574219 87.058594 70.574219 86.984375 C 70.574219 86.917969 70.574219 86.851562 70.574219 86.78125 C 70.574219 86.691406 70.574219 86.691406 70.574219 86.601562 C 70.574219 86.449219 70.574219 86.449219 70.441406 86.339844 C 70.300781 86.296875 70.160156 86.257812 70.019531 86.21875 C 70.019531 86.179688 70.019531 86.140625 70.019531 86.101562 Z M 70.019531 86.101562 "/>
<path style=" stroke:none;fill-rule:nonzero;fill:rgb(49.411765%,33.333334%,25.490198%);fill-opacity:1;" d="M 58.921875 86.101562 C 59.433594 86.101562 59.949219 86.101562 60.480469 86.101562 C 60.480469 86.140625 60.480469 86.179688 60.480469 86.21875 C 60.40625 86.246094 60.40625 86.246094 60.332031 86.277344 C 60.1875 86.324219 60.1875 86.324219 60.121094 86.398438 C 60.113281 86.523438 60.113281 86.644531 60.113281 86.769531 C 60.113281 86.847656 60.113281 86.925781 60.113281 87.007812 C 60.113281 87.074219 60.113281 87.074219 60.113281 87.136719 C 60.113281 87.316406 60.109375 87.496094 60.109375 87.675781 C 60.105469 88.011719 60.105469 88.347656 60.105469 88.679688 C 60.105469 88.914062 60.105469 89.148438 60.101562 89.378906 C 60.101562 89.46875 60.101562 89.554688 60.101562 89.644531 C 60.105469 90.390625 59.992188 91.09375 59.449219 91.648438 C 59.160156 91.890625 58.871094 91.949219 58.503906 91.9375 C 58.332031 91.914062 58.214844 91.84375 58.078125 91.738281 C 58.132812 91.449219 58.132812 91.449219 58.199219 91.378906 C 58.523438 91.351562 58.523438 91.351562 58.671875 91.46875 C 58.871094 91.609375 59.042969 91.570312 59.28125 91.558594 C 59.390625 91.277344 59.417969 91.023438 59.417969 90.71875 C 59.417969 90.671875 59.417969 90.628906 59.417969 90.578125 C 59.417969 90.425781 59.417969 90.273438 59.417969 90.117188 C 59.417969 90.011719 59.417969 89.90625 59.417969 89.796875 C 59.417969 89.574219 59.417969 89.351562 59.417969 89.128906 C 59.417969 88.84375 59.417969 88.554688 59.421875 88.269531 C 59.421875 88.046875 59.421875 87.828125 59.421875 87.609375 C 59.421875 87.503906 59.421875 87.394531 59.421875 87.289062 C 59.421875 87.144531 59.421875 86.996094 59.421875 86.847656 C 59.421875 86.804688 59.421875 86.761719 59.421875 86.714844 C 59.425781 86.582031 59.425781 86.582031 59.398438 86.398438 C 59.226562 86.285156 59.121094 86.253906 58.921875 86.21875 C 58.921875 86.179688 58.921875 86.140625 58.921875 86.101562 Z M 58.921875 86.101562 "/>
<path style=" stroke:none;fill-rule:nonzero;fill:rgb(47.843137%,31.37255%,23.529412%);fill-opacity:1;" d="M 51.601562 86.101562 C 52.511719 86.101562 53.421875 86.101562 54.359375 86.101562 C 54.359375 86.355469 54.359375 86.613281 54.359375 86.878906 C 54.320312 86.878906 54.28125 86.878906 54.238281 86.878906 C 54.222656 86.832031 54.207031 86.785156 54.1875 86.738281 C 54.128906 86.574219 54.128906 86.574219 54 86.460938 C 53.847656 86.4375 53.847656 86.4375 53.671875 86.433594 C 53.578125 86.433594 53.578125 86.433594 53.476562 86.429688 C 53.410156 86.425781 53.34375 86.425781 53.273438 86.421875 C 53.171875 86.417969 53.171875 86.417969 53.066406 86.414062 C 52.898438 86.410156 52.730469 86.40625 52.558594 86.398438 C 52.578125 86.855469 52.597656 87.3125 52.621094 87.78125 C 52.835938 87.78125 53.050781 87.785156 53.273438 87.789062 C 53.375 87.789062 53.375 87.789062 53.476562 87.789062 C 53.53125 87.792969 53.585938 87.792969 53.640625 87.792969 C 53.695312 87.792969 53.75 87.792969 53.804688 87.792969 C 53.953125 87.792969 53.953125 87.792969 54.058594 87.660156 C 54.097656 87.535156 54.097656 87.535156 54.121094 87.421875 C 54.160156 87.421875 54.199219 87.421875 54.238281 87.421875 C 54.238281 87.777344 54.238281 88.132812 54.238281 88.5 C 54.199219 88.5 54.160156 88.5 54.121094 88.5 C 54.089844 88.320312 54.089844 88.320312 54.058594 88.140625 C 53.585938 88.140625 53.109375 88.140625 52.621094 88.140625 C 52.613281 88.394531 52.613281 88.652344 52.609375 88.910156 C 52.605469 88.980469 52.605469 89.054688 52.605469 89.128906 C 52.605469 89.199219 52.601562 89.269531 52.601562 89.339844 C 52.601562 89.40625 52.601562 89.46875 52.597656 89.535156 C 52.605469 89.699219 52.605469 89.699219 52.699219 89.808594 C 52.84375 89.910156 52.992188 89.953125 53.160156 90 C 53.160156 90.039062 53.160156 90.078125 53.160156 90.121094 C 52.644531 90.121094 52.128906 90.121094 51.601562 90.121094 C 51.601562 90.082031 51.601562 90.039062 51.601562 90 C 51.660156 89.972656 51.71875 89.945312 51.777344 89.917969 C 51.882812 89.859375 51.882812 89.859375 51.960938 89.761719 C 52.011719 89.507812 52 89.257812 51.996094 89 C 51.996094 88.925781 51.992188 88.851562 51.992188 88.777344 C 51.992188 88.578125 51.988281 88.382812 51.984375 88.1875 C 51.980469 87.984375 51.980469 87.785156 51.976562 87.582031 C 51.972656 87.1875 51.96875 86.792969 51.960938 86.398438 C 51.839844 86.339844 51.722656 86.28125 51.601562 86.21875 C 51.601562 86.179688 51.601562 86.140625 51.601562 86.101562 Z M 51.601562 86.101562 "/>
<path style=" stroke:none;fill-rule:nonzero;fill:rgb(47.843137%,31.37255%,23.137255%);fill-opacity:1;" d="M 47.941406 86.101562 C 48.59375 86.101562 49.246094 86.101562 49.921875 86.101562 C 49.921875 86.140625 49.921875 86.179688 49.921875 86.21875 C 49.875 86.226562 49.824219 86.234375 49.777344 86.242188 C 49.71875 86.253906 49.65625 86.265625 49.59375 86.277344 C 49.53125 86.285156 49.472656 86.296875 49.410156 86.308594 C 49.265625 86.324219 49.265625 86.324219 49.199219 86.398438 C 49.195312 86.503906 49.191406 86.609375 49.191406 86.714844 C 49.191406 86.816406 49.191406 86.816406 49.191406 86.917969 C 49.195312 86.992188 49.195312 87.066406 49.195312 87.140625 C 49.195312 87.253906 49.195312 87.253906 49.195312 87.367188 C 49.195312 87.566406 49.195312 87.761719 49.195312 87.960938 C 49.195312 88.164062 49.195312 88.367188 49.195312 88.570312 C 49.199219 88.964844 49.199219 89.363281 49.199219 89.761719 C 49.433594 89.765625 49.667969 89.769531 49.902344 89.773438 C 49.96875 89.777344 50.035156 89.777344 50.101562 89.78125 C 50.484375 89.789062 50.484375 89.789062 50.832031 89.644531 C 50.882812 89.582031 50.882812 89.582031 50.941406 89.519531 C 50.972656 89.484375 51.003906 89.453125 51.035156 89.417969 C 51.058594 89.386719 51.082031 89.355469 51.109375 89.324219 C 51.152344 89.269531 51.195312 89.214844 51.238281 89.160156 C 51.261719 89.199219 51.28125 89.238281 51.300781 89.28125 C 51.160156 89.558594 51.023438 89.835938 50.878906 90.121094 C 49.910156 90.121094 48.941406 90.121094 47.941406 90.121094 C 47.941406 90.082031 47.941406 90.039062 47.941406 90 C 48.0625 89.976562 48.183594 89.949219 48.304688 89.921875 C 48.441406 89.882812 48.441406 89.882812 48.539062 89.699219 C 48.558594 89.550781 48.558594 89.550781 48.558594 89.386719 C 48.558594 89.320312 48.558594 89.257812 48.5625 89.191406 C 48.5625 89.121094 48.5625 89.050781 48.5625 88.980469 C 48.5625 88.910156 48.5625 88.835938 48.5625 88.765625 C 48.566406 88.613281 48.566406 88.460938 48.566406 88.3125 C 48.566406 88.082031 48.570312 87.851562 48.570312 87.617188 C 48.574219 87.472656 48.574219 87.328125 48.574219 87.179688 C 48.574219 87.109375 48.574219 87.042969 48.578125 86.96875 C 48.578125 86.90625 48.578125 86.839844 48.574219 86.773438 C 48.578125 86.71875 48.578125 86.660156 48.578125 86.601562 C 48.550781 86.445312 48.550781 86.445312 48.398438 86.351562 C 48.242188 86.28125 48.109375 86.242188 47.941406 86.21875 C 47.941406 86.179688 47.941406 86.140625 47.941406 86.101562 Z M 47.941406 86.101562 "/>
<path style=" stroke:none;fill-rule:nonzero;fill:rgb(48.235294%,32.156864%,23.921569%);fill-opacity:1;" d="M 75.839844 86.160156 C 75.914062 86.3125 75.90625 86.417969 75.902344 86.585938 C 75.902344 86.640625 75.902344 86.695312 75.902344 86.753906 C 75.902344 86.792969 75.902344 86.835938 75.898438 86.878906 C 75.789062 86.773438 75.703125 86.675781 75.609375 86.550781 C 75.433594 86.347656 75.269531 86.242188 75 86.203125 C 74.730469 86.191406 74.554688 86.230469 74.339844 86.398438 C 74.246094 86.585938 74.261719 86.734375 74.28125 86.941406 C 74.472656 87.316406 74.78125 87.542969 75.113281 87.785156 C 75.914062 88.363281 75.914062 88.363281 76.078125 88.859375 C 76.101562 89.210938 76.078125 89.445312 75.898438 89.761719 C 75.5625 90.097656 75.246094 90.195312 74.773438 90.199219 C 74.398438 90.195312 74.09375 90.128906 73.738281 90 C 73.71875 89.722656 73.699219 89.445312 73.679688 89.160156 C 73.71875 89.160156 73.757812 89.160156 73.800781 89.160156 C 73.859375 89.253906 73.914062 89.351562 73.964844 89.449219 C 74.121094 89.710938 74.214844 89.859375 74.519531 89.941406 C 74.835938 89.976562 75.089844 89.996094 75.367188 89.828125 C 75.554688 89.613281 75.5625 89.457031 75.554688 89.179688 C 75.515625 88.835938 75.257812 88.625 75.007812 88.417969 C 74.855469 88.300781 74.703125 88.191406 74.546875 88.082031 C 74.226562 87.855469 73.929688 87.625 73.800781 87.238281 C 73.765625 86.96875 73.738281 86.699219 73.867188 86.449219 C 74.378906 85.808594 75.140625 85.914062 75.839844 86.160156 Z M 75.839844 86.160156 "/>
<path style=" stroke:none;fill-rule:nonzero;fill:rgb(92.54902%,89.019608%,84.705883%);fill-opacity:1;" d="M 67.019531 86.21875 C 67.863281 86.21875 67.863281 86.21875 68.160156 86.460938 C 68.386719 86.75 68.4375 86.972656 68.417969 87.339844 C 68.378906 87.625 68.277344 87.789062 68.066406 87.980469 C 67.675781 88.25 67.691406 88.140625 67.019531 88.140625 C 67.019531 87.507812 67.019531 86.871094 67.019531 86.21875 Z M 67.019531 86.21875 "/>
<path style=" stroke:none;fill-rule:nonzero;fill:rgb(91.37255%,87.450981%,83.137256%);fill-opacity:1;" d="M 56.519531 86.761719 C 56.558594 86.761719 56.597656 86.761719 56.640625 86.761719 C 56.710938 86.949219 56.78125 87.136719 56.851562 87.324219 C 56.871094 87.375 56.890625 87.429688 56.910156 87.484375 C 56.929688 87.535156 56.949219 87.585938 56.96875 87.640625 C 56.984375 87.6875 57.003906 87.734375 57.019531 87.78125 C 57.058594 87.898438 57.058594 87.898438 57.058594 88.019531 C 56.761719 88.019531 56.464844 88.019531 56.160156 88.019531 C 56.1875 87.566406 56.347656 87.179688 56.519531 86.761719 Z M 56.519531 86.761719 "/>
<path style=" stroke:none;fill-rule:nonzero;fill:rgb(91.37255%,87.843138%,83.92157%);fill-opacity:1;" d="M 45.539062 86.699219 C 45.746094 86.804688 45.777344 87.050781 45.847656 87.257812 C 45.863281 87.304688 45.878906 87.351562 45.898438 87.398438 C 45.976562 87.625 46.019531 87.777344 46.019531 88.019531 C 45.722656 88.019531 45.425781 88.019531 45.121094 88.019531 C 45.238281 87.570312 45.375 87.136719 45.539062 86.699219 Z M 45.539062 86.699219 "/>
</g>
</svg>
